<?xml version="1.0" standalone="no"?>
<!DOCTYPE svg PUBLIC "-//W3C//DTD SVG 1.1//EN" "http://www.w3.org/Graphics/SVG/1.1/DTD/svg11.dtd" >
<svg xmlns="http://www.w3.org/2000/svg">
<metadata>
Copyright (c) 2015 by Fontsmith Ltd. All rights reserved. This font may not be altered in any way without prior permission of Fontsmith Ltd.
</metadata>
<defs>
<font id="INGMe-Italic" horiz-adv-x="544" >
  <font-face 
    font-family="ING Me"
    font-weight="400"
    font-style="italic"
    font-stretch="normal"
    units-per-em="1000"
    panose-1="2 0 5 6 4 0 0 9 0 4"
    ascent="750"
    descent="-250"
    x-height="528"
    cap-height="720"
    bbox="-155 -278 1198 1079"
    underline-thickness="52"
    underline-position="-48"
    slope="-8"
    unicode-range="U+000D-FB04"
  />
<missing-glyph horiz-adv-x="694" 
d="M90 720h514v-720h-514v720zM522 669h-350l176 -263zM553 98v524l-175 -262zM522 52l-174 262l-176 -262h350zM142 98l174 262l-174 262v-524z" />
    <glyph glyph-name="fi" unicode="fi" horiz-adv-x="555" 
d="M142 561q13 106 70 157.5t154 51.5q42 0 80.5 -10.5t64.5 -24.5q11 -5 3 -19l-14 -28q-7 -13 -19 -8q-29 14 -57.5 21.5t-65.5 7.5q-67 0 -100.5 -34.5t-43.5 -113.5l-4 -33h142q13 0 12 -15l-4 -30q-3 -15 -16 -15h-142l-63 -452q-3 -16 -20 -16h-37q-19 0 -16 16
l63 452h-77q-15 0 -12 15l4 30q1 15 16 15h78zM385 0q-15 0 -13 14l70 500q2 14 17 14h43q15 0 13 -14l-70 -500q-2 -14 -17 -14h-43z" />
    <glyph glyph-name="fl" unicode="fl" horiz-adv-x="583" 
d="M451 479q4 26 7.5 55t7 58.5t6 57l4.5 49.5q-17 8 -47 13t-58 5q-39 0 -66 -11.5t-45.5 -32t-29 -49.5t-15.5 -63l-5 -33h142q13 0 12 -15l-4 -30q-3 -15 -16 -15h-142l-63 -452q-3 -16 -20 -16h-37q-19 0 -16 16l63 452h-77q-15 0 -12 15l4 30q1 15 16 15h79l5 34
q30 216 236 216q42 0 83 -8.5t66 -19.5q21 -10 19 -28q-1 -23 -3.5 -53t-6.5 -65t-8.5 -72.5t-9.5 -74.5l-44 -315q-6 -47 -6 -58q0 -16 7 -22t26 -6q14 0 13 -13l-3 -22q-1 -8 -3 -11t-8 -5q-13 -5 -39 -5q-32 0 -49.5 19.5t-17.5 48.5q0 14 2.5 39.5t10.5 78.5z" />
    <glyph glyph-name="f_f" unicode="ff" horiz-adv-x="646" 
d="M449 562q15 108 69 161t142 53q26 0 50 -5.5t40 -13.5q8 -4 9 -8.5t-2 -13.5l-9 -24q-4 -9 -8.5 -10.5t-15.5 2.5q-38 12 -75 12q-60 0 -88 -39t-39 -111l-5 -37h142q13 0 12 -15l-4 -30q-3 -15 -16 -15h-142l-63 -452q-3 -16 -20 -16h-37q-19 0 -16 16l63 452h-234
l-63 -452q-3 -16 -20 -16h-37q-19 0 -16 16l63 452h-77q-15 0 -12 15l4 30q1 15 16 15h77l5 34q15 108 69 161t142 53q26 0 50 -5.5t40 -13.5q8 -4 9 -8.5t-2 -13.5l-9 -24q-4 -9 -8.5 -10.5t-15.5 2.5q-38 12 -75 12q-60 0 -88 -39t-39 -111l-5 -37h234z" />
    <glyph glyph-name="f_f_i" unicode="ffi" horiz-adv-x="862" 
d="M445 528l4 33q13 106 70 157.5t154 51.5q42 0 80.5 -10.5t64.5 -24.5q11 -5 3 -19l-14 -28q-7 -13 -19 -8q-29 14 -57.5 21.5t-65.5 7.5q-67 0 -100.5 -34.5t-43.5 -113.5l-4 -33h142q13 0 12 -15l-4 -30q-3 -15 -16 -15h-142l-63 -452q-3 -16 -20 -16h-37q-19 0 -16 16
l63 452h-234l-63 -452q-3 -16 -20 -16h-37q-19 0 -16 16l63 452h-77q-15 0 -12 15l4 30q1 15 16 15h77l5 34q15 108 69 161t142 53q26 0 50 -5.5t40 -13.5q8 -4 9 -8.5t-2 -13.5l-9 -24q-4 -9 -8.5 -10.5t-15.5 2.5q-38 12 -75 12q-60 0 -88 -39t-39 -111l-5 -37h235zM692 0
q-15 0 -13 14l70 500q2 14 17 14h43q15 0 13 -14l-70 -500q-2 -14 -17 -14h-43z" />
    <glyph glyph-name="f_f_l" unicode="ffl" horiz-adv-x="890" 
d="M783 699q-17 8 -47 13t-58 5q-39 0 -66 -11.5t-45.5 -32t-29 -49.5t-15.5 -63l-5 -33h142q13 0 12 -15l-4 -30q-3 -15 -16 -15h-142l-63 -452q-3 -16 -20 -16h-37q-19 0 -16 16l63 452h-234l-63 -452q-3 -16 -20 -16h-37q-19 0 -16 16l63 452h-77q-15 0 -12 15l4 30
q1 15 16 15h77l5 34q15 108 69 161t142 53q26 0 50 -5.5t40 -13.5q8 -4 9 -8.5t-2 -13.5l-9 -24q-4 -9 -8.5 -10.5t-15.5 2.5q-38 12 -75 12q-60 0 -88 -39t-39 -111l-5 -37h236l5 34q30 216 236 216q42 0 83 -8.5t66 -19.5q21 -10 19 -28q-1 -23 -3.5 -53t-6.5 -65
t-8.5 -72.5t-9.5 -74.5l-44 -315q-6 -47 -6 -58q0 -16 7 -22t26 -6q14 0 13 -13l-3 -22q-1 -8 -3 -11t-8 -5q-13 -5 -39 -5q-32 0 -49.5 19.5t-17.5 48.5q0 14 2.5 39.5t10.5 78.5l42 293q4 26 7.5 55t7 58.5t6 57z" />
    <glyph glyph-name=".notdef" horiz-adv-x="694" 
d="M90 720h514v-720h-514v720zM522 669h-350l176 -263zM553 98v524l-175 -262zM522 52l-174 262l-176 -262h350zM142 98l174 262l-174 262v-524z" />
    <glyph glyph-name=".null" horiz-adv-x="0" 
 />
    <glyph glyph-name=".null" horiz-adv-x="0" 
 />
    <glyph glyph-name="nonmarkingreturn" unicode="&#xd;" horiz-adv-x="245" 
 />
    <glyph glyph-name="space" unicode=" " horiz-adv-x="245" 
 />
    <glyph glyph-name="nonbreakingspace" unicode="&#xa0;" horiz-adv-x="245" 
 />
    <glyph glyph-name="A" unicode="A" horiz-adv-x="621" 
d="M436 188h-296l-78 -170q-5 -11 -11 -14.5t-17 -3.5h-42q-19 0 -10 18l328 685q8 17 23 17h56q18 0 21 -17l142 -685q4 -18 -11 -18h-51q-19 0 -22 18zM170 256h254l-71 389z" />
    <glyph glyph-name="B" unicode="B" horiz-adv-x="557" 
d="M119 65h97q101 0 154 39.5t53 116.5q0 57 -38.5 88t-125.5 31h-100zM167 402h82q91 0 138 40.5t47 108.5q0 59 -39 81.5t-109 22.5h-84zM295 720q103 0 160 -37.5t57 -117.5q0 -30 -8.5 -58t-24.5 -53t-39.5 -44.5t-54.5 -31.5q53 -17 85 -54t32 -99q0 -52 -20 -93.5
t-57.5 -71t-90.5 -45t-119 -15.5h-162q-20 0 -17 17l97 687q2 8 5.5 12t13.5 4h143z" />
    <glyph glyph-name="C" unicode="C" horiz-adv-x="555" 
d="M391 664q-72 0 -122.5 -36.5t-82.5 -93t-47 -125.5t-15 -133q0 -50 10.5 -90.5t33.5 -69t58.5 -44t85.5 -15.5q35 0 70.5 8.5t66.5 22.5q12 6 16 -7l9 -30q4 -15 -6 -20q-41 -21 -86 -31t-95 -10q-62 0 -107.5 20t-75.5 57t-45 89t-15 116q0 77 20 158t63 148
t109.5 109.5t158.5 42.5q47 0 88 -12t70 -32q12 -7 5 -22l-13 -28q-5 -9 -11.5 -10t-14.5 4q-57 34 -128 34z" />
    <glyph glyph-name="D" unicode="D" horiz-adv-x="636" 
d="M120 65h86q69 0 116.5 13t87.5 47q31 27 52 62t34.5 75t19.5 83.5t6 85.5q0 54 -12 95.5t-39.5 70t-73 43.5t-111.5 15h-83zM296 720q152 0 229 -67t77 -212q0 -49 -7.5 -98.5t-23.5 -97t-42.5 -90t-63.5 -76.5q-50 -44 -113.5 -61.5t-151.5 -17.5h-147q-20 0 -17 17
l97 687q2 8 5.5 12t13.5 4h144z" />
    <glyph glyph-name="E" unicode="E" horiz-adv-x="523" 
d="M422 65q11 0 14.5 -4.5t1.5 -12.5l-6 -32q-3 -16 -22 -16h-357q-20 0 -17 17l97 687q2 8 5.5 12t13.5 4h358q19 0 16 -17l-6 -32q-3 -16 -22 -16h-295l-37 -258h251q19 0 16 -17l-6 -32q-3 -16 -22 -16h-248l-37 -267h302z" />
    <glyph glyph-name="F" unicode="F" horiz-adv-x="466" 
d="M482 720q19 0 16 -17l-6 -32q-3 -16 -22 -16h-270l-35 -258h226q19 0 16 -17l-6 -32q-3 -16 -22 -16h-223l-44 -316q-3 -16 -20 -16h-42q-17 0 -14 16l96 688q2 9 5.5 12.5t13.5 3.5h331z" />
    <glyph glyph-name="G" unicode="G" horiz-adv-x="626" 
d="M342 320q-19 0 -16 17l5 31q3 16 21 16h202q12 0 16 -5t2 -15l-45 -309q-2 -10 -5.5 -15t-12.5 -9q-40 -18 -90 -29.5t-104 -11.5q-71 0 -122 20t-84 57.5t-49 90t-16 117.5q0 84 21 165.5t64.5 146t111.5 104t163 39.5q57 0 103.5 -15t77.5 -37q11 -8 4 -22l-14 -28
q-5 -8 -10.5 -8.5t-10.5 2.5q-32 20 -72.5 31t-85.5 11q-74 0 -125.5 -35t-84 -90.5t-47.5 -124t-15 -135.5q0 -51 11.5 -92t35.5 -70t62 -45t91 -16q34 0 69.5 6.5t62.5 17.5l34 240h-148z" />
    <glyph glyph-name="H" unicode="H" horiz-adv-x="645" 
d="M522 16q-3 -16 -20 -16h-43q-17 0 -14 16l45 316h-333l-44 -316q-3 -16 -20 -16h-43q-17 0 -14 16l97 688q3 16 20 16h43q17 0 14 -16l-44 -308h333l43 308q2 10 7 13t13 3h43q17 0 14 -16z" />
    <glyph glyph-name="I" unicode="I" horiz-adv-x="248" 
d="M119 16q-3 -16 -20 -16h-43q-17 0 -14 16l97 688q3 16 20 16h43q17 0 14 -16z" />
    <glyph glyph-name="J" unicode="J" horiz-adv-x="436" 
d="M405 720q18 0 15 -17l-70 -501q-30 -212 -212 -212q-42 0 -83.5 12.5t-67.5 32.5q-8 7 -1 19l15 28q7 12 20 5q26 -14 57.5 -23t60.5 -9q64 0 94 37t41 118l62 445h-188q-19 0 -16 17l6 32q3 16 20 16h247z" />
    <glyph glyph-name="K" unicode="K" horiz-adv-x="565" 
d="M497 705q8 10 14 12.5t17 2.5h40q13 0 15.5 -6t-4.5 -14l-280 -332l192 -350q4 -7 1.5 -12.5t-11.5 -5.5h-48q-11 0 -16 4t-10 12l-159 298q-5 11 -11 14t-20 3h-60l-44 -315q-2 -16 -19 -16h-43q-18 0 -15 16l97 688q3 16 19 16h43q11 0 14 -3.5t1 -12.5l-43 -306h49
q14 0 21.5 3t16.5 14z" />
    <glyph glyph-name="L" unicode="L" horiz-adv-x="501" 
d="M422 65q11 0 14.5 -4.5t1.5 -12.5l-6 -32q-3 -16 -22 -16h-357q-20 0 -17 17l97 687q2 10 6.5 13t12.5 3h43q11 0 14 -3.5t1 -12.5l-90 -639h302z" />
    <glyph glyph-name="M" unicode="M" horiz-adv-x="762" 
d="M91 16q-2 -8 -5.5 -12t-13.5 -4h-37q-19 0 -16 16l129 685q3 19 23 19h47q19 0 23 -19l123 -491l258 491q6 12 11.5 15.5t14.5 3.5h54q17 0 16 -19l-67 -685q-1 -16 -19 -16h-38q-17 0 -16 16l62 584l-239 -450q-6 -12 -11.5 -17t-19.5 -5h-33q-14 0 -18.5 5.5t-7.5 16.5
l-112 450z" />
    <glyph glyph-name="N" unicode="N" horiz-adv-x="670" 
d="M189 605l-83 -589q-2 -9 -5.5 -12.5t-13.5 -3.5h-35q-19 0 -16 16l96 685q2 10 7 14.5t17 4.5h42q11 0 17 -3.5t11 -15.5l266 -588l82 591q2 9 5.5 12.5t13.5 3.5h35q19 0 16 -16l-97 -685q-2 -10 -6.5 -14.5t-16.5 -4.5h-43q-11 0 -16.5 4t-10.5 15z" />
    <glyph glyph-name="O" unicode="O" horiz-adv-x="682" 
d="M390 664q-68 0 -118.5 -35t-83.5 -90.5t-49.5 -124.5t-16.5 -137q0 -112 45.5 -166.5t133.5 -54.5q68 0 118.5 34.5t83.5 89.5t49 123.5t16 135.5q0 112 -45 168.5t-133 56.5zM402 730q57 0 102.5 -17.5t77.5 -53t49 -87.5t17 -121q0 -87 -23 -170t-68 -147.5t-112 -104
t-156 -39.5q-56 0 -102 18t-78 53.5t-49.5 88.5t-17.5 123q0 87 23 169t68 146t112.5 103t156.5 39z" />
    <glyph glyph-name="P" unicode="P" horiz-adv-x="524" 
d="M159 347q24 -4 49 -5.5t51 -1.5q49 0 84.5 14t58.5 39.5t34.5 60t11.5 76.5q0 38 -12 62.5t-34 38.5t-53.5 19.5t-70.5 5.5h-75zM113 16q-3 -16 -20 -16h-43q-17 0 -14 16l97 688q2 9 5.5 12.5t13.5 3.5h127q54 0 100 -9t79 -30t51.5 -55.5t18.5 -85.5q0 -54 -16 -102
t-49 -84t-84 -57t-121 -21q-26 0 -53.5 1.5t-53.5 6.5z" />
    <glyph glyph-name="Q" unicode="Q" horiz-adv-x="682" 
d="M402 730q57 0 102.5 -17.5t77.5 -53t49 -87.5t17 -121q0 -63 -12 -124.5t-35.5 -115.5t-59 -98.5t-82.5 -74.5q16 -24 33 -44.5t44 -51.5q12 -15 0 -26l-29 -25q-16 -13 -25 -2q-28 31 -48 58t-41 59q-24 -8 -50 -12t-54 -4q-56 0 -102 18t-78 53.5t-49.5 88.5t-17.5 123
q0 87 23 169t68 146t112.5 103t156.5 39zM390 664q-68 0 -118.5 -35t-83.5 -90.5t-49.5 -124.5t-16.5 -137q0 -112 45.5 -166.5t133.5 -54.5q68 0 118.5 34.5t83.5 89.5t49 123.5t16 135.5q0 112 -45 168.5t-133 56.5z" />
    <glyph glyph-name="R" unicode="R" horiz-adv-x="548" 
d="M162 363h104q41 0 75 11t59 33t38.5 54.5t13.5 76.5q0 37 -11 60.5t-32.5 36t-52 17t-69.5 4.5h-84zM153 302l-40 -286q-3 -16 -20 -16h-43q-17 0 -14 16l97 688q2 9 5.5 12.5t13.5 3.5h136q121 0 182.5 -39t61.5 -133q0 -38 -9.5 -75t-31.5 -68.5t-57.5 -56t-87.5 -36.5
l118 -290q9 -22 -13 -22h-38q-14 0 -18.5 3t-8.5 11l-106 271q-4 10 -10 13.5t-19 3.5h-98z" />
    <glyph glyph-name="S" unicode="S" horiz-adv-x="505" 
d="M10 46q-5 4 -6.5 10t3.5 14l17 29q8 14 23 4q14 -9 32.5 -18t38 -15.5t39.5 -10.5t38 -4q75 0 123.5 37t48.5 106q0 35 -20.5 60.5t-50.5 46.5t-66 40.5t-66 44.5t-50.5 58t-20.5 80q0 42 16.5 79t47 64.5t73 43t93.5 15.5q23 0 45.5 -4t42.5 -10.5t36.5 -14.5t26.5 -16
q5 -4 7 -10t-2 -12l-18 -29q-8 -13 -22 -4q-23 15 -53.5 25t-68.5 10q-30 0 -56.5 -8.5t-46.5 -25t-31.5 -41t-11.5 -55.5q0 -35 20.5 -59.5t50.5 -44.5t66 -39t66 -44t50.5 -58.5t20.5 -82.5q0 -50 -18.5 -90t-52 -68t-79.5 -43.5t-101 -15.5q-58 0 -107.5 17t-76.5 39z
" />
    <glyph glyph-name="T" unicode="T" horiz-adv-x="505" 
d="M339 655l-90 -639q-3 -16 -20 -16h-43q-17 0 -14 16l91 639h-185q-19 0 -16 17l6 32q3 16 20 16h439q19 0 16 -17l-6 -32q-3 -16 -20 -16h-178z" />
    <glyph glyph-name="U" unicode="U" horiz-adv-x="659" 
d="M580 272q-21 -149 -96 -215.5t-198 -66.5q-111 0 -169 50.5t-58 151.5q0 18 2 36t4 37l61 439q3 16 20 16h43q17 0 14 -16l-60 -430q-2 -17 -4 -33.5t-2 -30.5q0 -81 39.5 -118t117.5 -37q88 0 140 51t69 167l61 431q3 16 20 16h43q17 0 14 -16z" />
    <glyph glyph-name="V" unicode="V" horiz-adv-x="587" 
d="M217 351q14 -78 25.5 -148.5t21.5 -132.5q23 55 52 124t70 159l156 351q5 9 9 12.5t16 3.5h45q17 0 9 -18l-312 -685q-7 -17 -29 -17h-54q-11 0 -15 3t-7 13l-128 686q-3 18 15 18h44q12 0 16 -3.5t6 -12.5z" />
    <glyph glyph-name="W" unicode="W" horiz-adv-x="935" 
d="M889 704q4 10 10 13t17 3h38q19 0 12 -18l-280 -686q-6 -16 -26 -16h-58q-11 0 -15.5 3t-6.5 13l-37 343q-8 73 -16 141.5t-14 125.5q-11 -29 -23.5 -61.5t-26 -67t-27.5 -69.5t-26 -68l-137 -342q-6 -18 -26 -18h-57q-11 0 -16 3t-7 13l-93 686q-3 18 17 18h44
q11 0 14.5 -3t4.5 -13l41 -354l32 -281q11 31 25 68.5t29 76t29 75.5t26 67l134 348q4 9 9.5 12.5t16.5 3.5h58q11 0 16 -3t6 -13l37 -354q8 -80 14.5 -151.5t11.5 -131.5q23 56 53.5 131t59.5 153z" />
    <glyph glyph-name="X" unicode="X" horiz-adv-x="548" 
d="M348 157l-34 80t-37 85l-126 -172l-99 -135q-7 -10 -12 -12.5t-16 -2.5h-49q-8 0 -9 5t5 13l143 194q37 50 71.5 95.5t59.5 78.5q-16 33 -36.5 78.5t-40.5 89.5l-67 148q-4 8 0 13t12 5h44q11 0 15 -3t8 -12l45 -104l71 -165l122 168l72 101q7 10 12 12.5t16 2.5h51
q8 0 9 -5t-4 -13l-109 -147q-29 -41 -64.5 -87.5t-73.5 -97.5q10 -21 19 -40t18 -39t19.5 -43.5t23.5 -51.5l80 -178q2 -7 -0.5 -12.5t-11.5 -5.5h-44q-11 0 -14.5 3t-8.5 12z" />
    <glyph glyph-name="Y" unicode="Y" horiz-adv-x="520" 
d="M548 720q8 0 10.5 -4t-2.5 -12l-267 -426l-37 -262q-3 -16 -20 -16h-44q-16 0 -13 16l38 262l-146 427q-2 7 1.5 11t10.5 4h47q11 0 15 -2t7 -10l58 -178q21 -64 34 -107.5t21 -74.5q23 41 49 86t58 96l109 176q5 8 9.5 11t13.5 3h48z" />
    <glyph glyph-name="Z" unicode="Z" horiz-adv-x="531" 
d="M439 65q19 0 16 -17l-6 -32q-3 -16 -20 -16h-410q-23 0 -20 22l4 27q2 12 7 21.5t13 20.5l418 564h-320q-19 0 -16 17l6 32q3 16 20 16h389q21 0 18 -19l-3 -25q-2 -12 -8.5 -22t-17.5 -25l-417 -564h347z" />
    <glyph glyph-name="a" unicode="a" horiz-adv-x="550" 
d="M471 223q-8 -60 -11 -111.5t-3 -96.5q0 -5 -1 -10t-19 -5h-27q-11 0 -14.5 3t-5.5 11q-1 5 -1.5 14.5t-0.5 20.5t0.5 22t0.5 19q-21 -41 -65.5 -70.5t-98.5 -29.5q-49 0 -84.5 16.5t-58 45.5t-33 67.5t-10.5 83.5q0 61 17 121t50 107.5t82 77t114 29.5q53 0 85 -19.5
t52 -50.5l11 44q4 16 18 16h31q10 0 14.5 -3t2.5 -14q-4 -23 -11.5 -62t-13.5 -82zM423 398q-20 35 -50.5 54t-72.5 19q-47 0 -82 -24.5t-57.5 -63t-33.5 -84.5t-11 -89q0 -32 6 -60t20.5 -49t37 -33t55.5 -12q64 0 107 51q25 29 39.5 66t22.5 94z" />
    <glyph glyph-name="b" unicode="b" 
d="M173 471q29 32 68 49.5t85 17.5q49 0 83 -16.5t55.5 -45t31 -66t9.5 -80.5q0 -65 -17 -126t-52 -108.5t-90 -76.5t-130 -29q-52 0 -97 8.5t-69 21.5q-13 6 -10 26l99 704q3 16 20 16h37q19 0 16 -16zM117 72q21 -8 50 -12.5t61 -4.5q52 0 89.5 22.5t62 60t36.5 86.5
t12 101q0 71 -29.5 107.5t-89.5 36.5q-32 0 -61 -11t-50 -32q-12 -12 -20 -27t-15 -39.5t-13.5 -61.5t-13.5 -91z" />
    <glyph glyph-name="c" unicode="c" horiz-adv-x="473" 
d="M405 47q4 -13 -8 -19q-34 -17 -76 -27.5t-84 -10.5q-51 0 -88.5 17t-62 46.5t-36 69.5t-11.5 86q0 60 17.5 118.5t52 105.5t86.5 76t121 29q45 0 82.5 -12.5t68.5 -32.5q3 -2 5 -6.5t-3 -12.5l-21 -33q-8 -12 -19 -5q-28 17 -58 25.5t-60 8.5q-49 0 -85.5 -23t-61 -60
t-36.5 -83t-12 -92q0 -33 7.5 -61t23.5 -49t41.5 -33t62.5 -12q34 0 68 8.5t58 20.5q8 4 12 2.5t7 -10.5z" />
    <glyph glyph-name="d" unicode="d" horiz-adv-x="570" 
d="M427 427q-21 20 -50 31.5t-64 11.5q-49 0 -86 -23t-61.5 -60.5t-37 -84.5t-12.5 -95q0 -77 33.5 -114t92.5 -37q32 0 56.5 11.5t43.5 31.5q24 26 37.5 60t21.5 85zM460 147q-3 -20 -5 -36t-2 -25q0 -14 7.5 -21.5t28.5 -7.5q6 0 9.5 -4t1.5 -14l-4 -21q-3 -13 -15 -16
q-5 -2 -15 -3t-19 -1q-18 0 -30 6.5t-19 17.5t-10.5 25.5t-3.5 30.5q-17 -34 -57 -61t-103 -27q-89 0 -137 58t-48 154q0 60 17 120t51.5 108t86.5 78t121 30q36 0 68.5 -11t53.5 -29l35 252q3 16 20 16h37q19 0 16 -16z" />
    <glyph glyph-name="e" unicode="e" horiz-adv-x="531" 
d="M401 88q8 4 12 2.5t7 -10.5l9 -31q4 -13 -8 -19q-76 -40 -174 -40q-103 0 -155.5 57t-52.5 155q0 61 17 121t51.5 108t85.5 77.5t120 29.5q47 0 81 -15.5t56.5 -43.5t33 -65.5t10.5 -82.5q0 -16 -1.5 -34.5t-3.5 -32.5q-5 -25 -29 -25h-342q-1 -8 -1.5 -16.5t-0.5 -16.5
q0 -78 39 -113t113 -35q35 0 69 8t64 22zM418 299q1 8 1.5 16.5t0.5 18.5q0 27 -6.5 52t-20.5 43.5t-36 29.5t-54 11q-59 0 -105.5 -40t-69.5 -131h290z" />
    <glyph glyph-name="f" unicode="f" horiz-adv-x="339" 
d="M52 468q-15 0 -12 15l4 30q1 15 16 15h77l5 34q15 108 69 161t142 53q26 0 50 -5.5t40 -13.5q8 -4 9 -8.5t-2 -13.5l-9 -24q-4 -9 -8.5 -10.5t-15.5 2.5q-38 12 -75 12q-60 0 -88 -39t-39 -111l-5 -37h142q13 0 12 -15l-4 -30q-3 -15 -16 -15h-142l-62 -452
q-2 -9 -5.5 -12.5t-13.5 -3.5h-39q-17 0 -15 16l62 452h-77z" />
    <glyph glyph-name="g" unicode="g" horiz-adv-x="550" 
d="M455 517q4 11 17 11h26q17 0 16 -15q-3 -30 -7.5 -67t-9.5 -72l-49 -369q-17 -124 -79.5 -190.5t-176.5 -66.5q-42 0 -79.5 7.5t-63.5 19.5q-12 5 -6 20l14 33q3 8 7.5 8.5t12.5 -2.5q21 -9 51.5 -15.5t63.5 -6.5q81 0 124.5 45.5t57.5 141.5l13 85q-14 -21 -33 -36.5
t-41.5 -26t-46.5 -16t-47 -5.5q-89 0 -132.5 57t-43.5 151q0 64 18 124t52 105.5t83.5 73t112.5 27.5q46 0 78.5 -19.5t54.5 -46.5zM426 402q-18 32 -49 50.5t-76 18.5q-46 0 -80 -23t-56.5 -59.5t-33.5 -83t-11 -94.5q0 -70 30 -107t90 -37q37 0 66 15t50 39t33.5 54.5
t16.5 61.5z" />
    <glyph glyph-name="h" unicode="h" horiz-adv-x="566" 
d="M464 16q-3 -16 -20 -16h-37q-19 0 -16 16l36 257q5 30 7 52.5t2 40.5q0 54 -28.5 77.5t-87.5 23.5q-73 0 -121 -45q-14 -13 -22.5 -30t-15 -42t-11.5 -59.5t-12 -82.5l-27 -192q-3 -16 -20 -16h-37q-19 0 -16 16l103 734q3 16 20 16h37q19 0 16 -16l-40 -287
q32 36 77 55.5t98 19.5q75 0 118 -37.5t43 -118.5q0 -14 -1.5 -33t-3.5 -34z" />
    <glyph glyph-name="i" unicode="i" horiz-adv-x="224" 
d="M54 0q-15 0 -13 14l70 500q2 14 17 14h43q15 0 13 -14l-70 -500q-2 -14 -17 -14h-43zM130 638q-15 0 -13 14l10 71q2 14 17 14h68q16 0 14 -14l-10 -71q-2 -14 -18 -14h-68z" />
    <glyph glyph-name="j" unicode="j" horiz-adv-x="236" 
d="M127 514q2 14 17 14h43q15 0 13 -14l-72 -514q-8 -62 -23.5 -105.5t-41.5 -72.5q-49 -55 -141 -55q-19 0 -37.5 2.5t-30.5 7.5q-12 4 -8 20l8 27q4 15 20 11q11 -2 24.5 -4t27.5 -2q25 0 46 8t36.5 27.5t27 53.5t19.5 86zM146 638q-15 0 -13 14l10 71q2 14 17 14h68
q16 0 14 -14l-10 -71q-2 -14 -18 -14h-68z" />
    <glyph glyph-name="k" unicode="k" horiz-adv-x="468" 
d="M51 0q-16 0 -13 14l103 738q3 14 17 14h43q16 0 13 -14l-63 -451h43q11 0 18.5 3t14.5 11l160 201q10 12 27 12h41q10 0 11.5 -5t-4.5 -12l-197 -242l153 -252q4 -6 2 -11.5t-11 -5.5h-45q-12 0 -16.5 3t-9.5 10l-120 208q-5 9 -11 12t-20 3h-45l-31 -222q-3 -14 -17 -14
h-43z" />
    <glyph glyph-name="l" unicode="l" horiz-adv-x="227" 
d="M120 142q-6 -47 -6 -58q0 -16 7 -22t26 -6q14 0 13 -13l-3 -22q-1 -8 -3 -11t-8 -5q-13 -5 -39 -5q-32 0 -49.5 19.5t-17.5 48.5q0 14 2.5 39.5t10.5 78.5l47 330q9 64 14 106.5t7.5 69t3.5 40.5t1 20q2 14 15 14h45q13 0 13 -11q-1 -23 -7.5 -86.5t-20.5 -165.5z" />
    <glyph glyph-name="m" unicode="m" horiz-adv-x="900" 
d="M110 514q2 14 17 14h38q16 0 15 -14l-5 -53q32 38 76 57.5t95 19.5q55 0 94.5 -23.5t53.5 -69.5q37 48 85.5 70.5t104.5 22.5q75 0 118 -38.5t43 -117.5q0 -15 -2 -32.5t-4 -35.5l-42 -300q-2 -14 -18 -14h-42q-15 0 -13 14l37 257q9 58 9 95q0 57 -26.5 79t-84.5 22
q-35 0 -66 -11.5t-54 -36.5q-9 -11 -16 -22t-12.5 -26t-9.5 -36t-8 -51l-37 -270q-2 -14 -17 -14h-43q-16 0 -13 14l37 259q9 58 9 93q0 101 -111 101q-34 0 -66 -11.5t-55 -36.5q-12 -13 -19.5 -29t-13.5 -40t-11 -58t-12 -83l-27 -195q-2 -14 -17 -14h-43q-15 0 -13 14
l54 375l15 125v0z" />
    <glyph glyph-name="n" unicode="n" horiz-adv-x="570" 
d="M467 14q-2 -14 -17 -14h-43q-14 0 -13 14l37 259q5 32 8 60t1 48q-3 47 -33 66.5t-82 19.5q-36 0 -67.5 -11t-54.5 -34q-13 -12 -21.5 -28t-15 -40t-12 -59t-12.5 -87l-27 -194q-2 -14 -17 -14h-43q-15 0 -13 14l53 375q5 32 8.5 64.5t6.5 60.5q2 14 17 14h38
q16 0 15 -14l-5 -53q33 36 78.5 56.5t100.5 20.5q73 0 115.5 -36.5t44.5 -107.5q1 -31 -5 -77z" />
    <glyph glyph-name="o" unicode="o" horiz-adv-x="554" 
d="M310 472q-47 0 -83 -22.5t-61 -59.5t-37.5 -84.5t-12.5 -96.5q0 -31 6 -58.5t21 -48.5t39.5 -33.5t61.5 -12.5q46 0 82 22.5t61 59.5t38 84t13 97q0 31 -6.5 58.5t-21.5 48.5t-39.5 33.5t-60.5 12.5zM239 -10q-101 0 -150.5 57.5t-49.5 156.5q0 66 18.5 126.5t54.5 106.5
t89 73.5t121 27.5q97 0 145 -55t48 -158q0 -65 -18 -125t-53 -107t-86.5 -75t-118.5 -28z" />
    <glyph glyph-name="p" unicode="p" horiz-adv-x="552" 
d="M79 -226q-3 -16 -20 -16h-37q-19 0 -16 16l81 560q8 51 13 97.5t10 82.5q2 14 17 14h38q16 0 15 -14l-5 -52q26 34 67.5 55t92.5 21q84 0 131 -52t47 -152q0 -60 -16.5 -121.5t-49.5 -111t-82.5 -80.5t-116.5 -31q-45 0 -78.5 14t-51.5 33zM127 104q19 -20 50 -33.5
t68 -13.5q50 0 86 25t59 64t34 86.5t11 93.5q0 75 -32 110t-86 35q-42 0 -71 -15.5t-49 -38.5q-8 -9 -14 -20t-12 -29t-11 -44.5t-11 -66.5z" />
    <glyph glyph-name="q" unicode="q" horiz-adv-x="546" 
d="M445 42q-3 -25 -7 -63t-7 -77.5t-5 -75t-2 -54.5q0 -14 -17 -14h-43q-13 0 -13 14q0 11 1 36t3 55t4.5 60.5t4.5 52.5t5.5 49t8.5 54q-23 -38 -67 -63.5t-92 -25.5q-47 0 -81 15t-56 42t-32.5 65t-10.5 84q0 69 20 131t58.5 109t94.5 74.5t129 27.5q45 0 87 -9t69 -22
q14 -6 11 -24zM430 455q-44 19 -99 19q-53 0 -93 -23.5t-67 -62t-41 -87.5t-14 -101q0 -72 30.5 -107.5t89.5 -35.5q30 0 56 12.5t48 33.5q12 12 22 27t18 37.5t15.5 54.5t13.5 79z" />
    <glyph glyph-name="r" unicode="r" horiz-adv-x="343" 
d="M168 408q35 59 83.5 92t97.5 33q12 0 17 -3t3 -14l-4 -35q-1 -6 -4 -10.5t-11 -5.5q-38 -5 -67 -19t-52 -34q-36 -32 -57 -79t-32 -124l-27 -195q-1 -14 -17 -14h-43q-15 0 -13 14l42 299q8 52 14.5 105t11.5 95q2 15 16 15h39q15 0 15 -14q-1 -17 -4.5 -49t-7.5 -57z
" />
    <glyph glyph-name="s" unicode="s" horiz-adv-x="438" 
d="M58 92q34 -21 66 -30.5t63 -9.5q23 0 46 5.5t41 17.5t29 31t11 47q0 19 -8 32.5t-23 23.5t-35.5 17t-45.5 14q-31 8 -56 19t-43 26.5t-27.5 38.5t-9.5 55q0 40 17 69.5t44.5 49.5t63 30t72.5 10q38 0 76.5 -12.5t67.5 -34.5q6 -5 7.5 -10.5t-5.5 -13.5l-18 -23
q-6 -8 -10.5 -8.5t-9.5 2.5q-25 16 -53 26.5t-63 10.5q-51 0 -84 -23t-33 -64q0 -21 8 -35t21.5 -23t32 -15.5t39.5 -12.5q35 -10 62.5 -21t46 -26.5t28.5 -38t10 -55.5q0 -39 -16 -70.5t-43 -54t-63.5 -34.5t-78.5 -12q-46 0 -89 12.5t-72 34.5q-8 6 -7.5 12t5.5 14l13 21
q10 16 23 8z" />
    <glyph glyph-name="t" unicode="t" horiz-adv-x="355" 
d="M53 468q-13 0 -12 15l4 30q1 15 16 15h77l20 141q2 14 17 14h43q15 0 13 -14l-20 -141h130q7 0 10.5 -3t1.5 -12l-5 -34q-1 -11 -15 -11h-130l-39 -278q-5 -36 -7.5 -55.5t-2.5 -30.5q0 -51 67 -51q20 0 41 4.5t40 11.5q16 5 19 -9l5 -26q2 -8 0 -11.5t-8 -6.5
q-19 -10 -50.5 -18t-66.5 -8q-52 0 -86.5 25.5t-34.5 82.5q0 12 2.5 35.5t7.5 55.5l40 279h-77z" />
    <glyph glyph-name="u" unicode="u" horiz-adv-x="567" 
d="M452 514q2 14 17 14h43q15 0 13 -14l-48 -342q-6 -43 -9.5 -84.5t-7.5 -75.5q-1 -8 -6 -10t-25 -2h-7q-20 0 -24.5 2t-3.5 9l3 67q-32 -42 -78.5 -65t-101.5 -23q-76 0 -118 36t-42 111q0 18 2 42t6 53l39 282q2 14 17 14h43q15 0 13 -14l-37 -260q-5 -33 -7.5 -58
t-2.5 -43q0 -46 25 -71.5t79 -25.5q42 0 70.5 12t51.5 34t37.5 56.5t23.5 100.5z" />
    <glyph glyph-name="v" unicode="v" horiz-adv-x="483" 
d="M417 514q4 9 8.5 11.5t11.5 2.5h41q18 0 11 -16q-60 -146 -120 -271t-115 -225q-6 -11 -11.5 -13.5t-13.5 -2.5h-44q-12 0 -16.5 3t-6.5 13l-108 494q-2 8 1 13t13 5h44q10 0 13.5 -3t5.5 -11l54 -263q10 -47 17.5 -87t15.5 -89q52 104 104.5 218.5t94.5 220.5z" />
    <glyph glyph-name="w" unicode="w" horiz-adv-x="768" 
d="M556 16q-5 -9 -10 -12.5t-17 -3.5h-45q-12 0 -16.5 4t-6.5 12l-32 253q-7 54 -12 105t-8 85q-14 -37 -31.5 -86t-38.5 -103l-103 -254q-3 -8 -9 -12t-18 -4h-46q-12 0 -16.5 4t-6.5 12l-80 496q-3 16 14 16h44q8 0 13 -2.5t6 -10.5l36 -262q7 -49 12 -95t10 -87
q17 45 35 91t35 90l102 259q3 9 8 13t19 4h46q14 0 17.5 -3.5t5.5 -13.5l29 -203q9 -65 16 -125t15 -111q60 125 103.5 237t73.5 206q4 13 21 13h39q10 0 12 -4t-3 -15q-34 -100 -85.5 -221t-127.5 -272z" />
    <glyph glyph-name="x" unicode="x" horiz-adv-x="494" 
d="M424 17q8 -17 -11 -17h-43q-11 0 -15.5 3t-8.5 10l-105 212l-163 -212q-6 -8 -11 -10.5t-16 -2.5h-44q-9 0 -10 5.5t4 12.5l114 148q27 35 50.5 64t45.5 54q-13 23 -27 49.5t-30 57.5l-62 120q-9 17 11 17h45q9 0 13.5 -2.5t8.5 -10.5l88 -180l133 180q7 9 11.5 11
t15.5 2h46q9 0 10 -5.5t-4 -12.5l-97 -126q-22 -28 -44 -55.5t-41 -50.5z" />
    <glyph glyph-name="y" unicode="y" horiz-adv-x="560" 
d="M388 75q-27 -41 -71 -63t-95 -22q-37 0 -67.5 11t-52 31.5t-33.5 49t-12 63.5q0 34 9 97l38 272q2 14 17 14h43q15 0 13 -14l-36 -255q-9 -59 -9 -97q0 -49 26.5 -77t80.5 -28q36 0 66.5 16t50.5 36q29 30 38.5 71t16.5 92l34 242q2 14 17 14h43q15 0 13 -14l-73 -517
q-10 -69 -28 -116t-53 -79q-30 -27 -77 -40.5t-101 -13.5q-33 0 -68.5 6t-58.5 14q-9 3 -10 7.5t1 11.5l9 30q4 9 8 12t15 0q20 -6 50 -11.5t61 -5.5q38 0 71 9t53 29q25 24 37 58t20 83z" />
    <glyph glyph-name="z" unicode="z" horiz-adv-x="446" 
d="M349 468h-260q-13 0 -12 16l4 29q1 15 16 15h343q14 0 13 -15l-2 -19q-1 -9 -6 -17t-16 -22l-331 -395h266q16 0 13 -16l-4 -29q-2 -15 -17 -15h-345q-15 0 -12 16l3 21q2 11 10.5 22t24.5 31z" />
    <glyph glyph-name="ampersand" unicode="&#x26;" horiz-adv-x="693" 
d="M225 -10q-50 0 -89 14.5t-66 39t-41.5 57.5t-14.5 70q0 43 15.5 78.5t43 64t64 50.5t78.5 38q-29 38 -43 71t-14 71q0 41 15.5 75t42 58.5t62 38t75.5 13.5q34 0 63.5 -10t51.5 -28.5t34.5 -44t12.5 -56.5q0 -39 -14.5 -69t-40 -54.5t-59.5 -44.5t-74 -38l162 -173
q26 37 45.5 83t30.5 91q2 10 6 12.5t11 2.5h41q9 0 11 -3.5t0 -11.5q-12 -53 -39 -110t-64 -109l104 -111q8 -8 7.5 -14t-8.5 -13l-26 -25q-8 -8 -14.5 -6.5t-13.5 8.5l-97 103q-48 -54 -113 -86t-145 -32zM239 56q55 0 108.5 25t95.5 72l-191 205q-29 -11 -57.5 -26.5
t-51 -36.5t-36.5 -49t-14 -64q0 -54 38.5 -90t107.5 -36zM288 427q24 10 51 23.5t50 31.5t38.5 42t15.5 56q0 42 -27 64t-66 22q-52 0 -85 -31.5t-33 -82.5q0 -31 14 -61t42 -64z" />
    <glyph glyph-name="at" unicode="@" horiz-adv-x="815" 
d="M455 540q29 0 51 -10t35 -24l9 16q4 6 7.5 8.5t11.5 2.5h29q21 0 15 -17q-9 -24 -17 -46.5t-17 -50.5l-33 -100q-11 -30 -11 -59q0 -21 11 -33.5t37 -12.5q38 0 65.5 25t45.5 62t27 78t9 73q0 52 -18 93t-50.5 69.5t-78.5 43.5t-101 15q-78 0 -147 -31t-120.5 -84.5
t-81.5 -125t-30 -152.5q0 -115 68.5 -175.5t188.5 -60.5q76 0 156 23q10 3 11 -10l3 -25q1 -10 -7 -14q-38 -14 -86.5 -21t-95.5 -7q-69 0 -125 19.5t-95.5 56.5t-61 91t-21.5 122q0 96 35.5 178.5t97 143t144 95t176.5 34.5q66 0 121.5 -18.5t95.5 -53t62.5 -85
t22.5 -113.5q0 -45 -13 -97.5t-39.5 -97t-68 -74t-98.5 -29.5q-45 0 -69.5 20t-29.5 49q-26 -33 -59.5 -51t-70.5 -18q-59 0 -88 34.5t-29 87.5q0 43 16.5 88.5t46 83t71.5 61t93 23.5zM520 453q-11 16 -29.5 25t-42.5 9q-35 0 -62.5 -19.5t-46.5 -49t-29 -64.5t-10 -67
t14.5 -51t47.5 -19q42 0 73 35t51 93z" />
    <glyph glyph-name="exclam" unicode="!" horiz-adv-x="300" 
d="M167 221q-2 -9 -11 -9h-44q-11 0 -9 9l56 481q2 11 6 14.5t15 3.5h48q11 0 15 -3.5t2 -14.5zM68 0q-15 0 -13 14l11 78q2 14 17 14h74q16 0 14 -14l-11 -78q-2 -14 -18 -14h-74z" />
    <glyph glyph-name="exclamdown" unicode="&#xa1;" horiz-adv-x="300" 
d="M118.993 305.981q1.99902 8.99902 10.999 8.99902h43.9971q10.999 0 9 -8.99902l-55.9971 -480.971q-2 -10.999 -6 -14.499q-3.99902 -3.5 -14.999 -3.5h-47.9971q-10.999 0 -14.999 3.5q-3.99902 3.5 -2 14.499zM217.986 526.968q14.999 0 13 -13.999l-11 -77.9951
q-2 -13.999 -16.999 -13.999h-73.9951q-15.999 0 -13.999 13.999l10.999 77.9951q2 13.999 17.999 13.999h73.9951z" />
    <glyph glyph-name="question" unicode="?" horiz-adv-x="433" 
d="M117 212q-10 0 -12.5 4t-1.5 10l5 49q3 28 10 49.5t22 39t39 32.5t61 31q25 11 46 23.5t36 29t23 38t8 50.5q0 44 -28 69.5t-82 25.5q-35 0 -71.5 -8.5t-70.5 -22.5q-14 -6 -18 7l-10 32q-5 14 9 20q35 17 79 28t92 11q35 0 67.5 -9.5t57.5 -29t39.5 -48.5t14.5 -69
q0 -74 -44.5 -124t-117.5 -82q-23 -10 -38 -18.5t-24.5 -18t-14.5 -21t-8 -27.5l-10 -57q-2 -6 -5 -10t-13 -4h-40zM72 0q-15 0 -13 14l11 78q2 14 17 14h74q16 0 14 -14l-11 -78q-2 -14 -18 -14h-74z" />
    <glyph glyph-name="questiondown" unicode="&#xbf;" horiz-adv-x="433" 
d="M318.98 314.98q9.99902 0 12.499 -3.99902q2.5 -4 1.5 -10l-4.99902 -48.9971q-3 -27.998 -10 -49.4971q-6.99902 -21.498 -21.998 -38.9971q-15 -17.499 -38.998 -32.498q-23.999 -14.999 -60.9961 -30.998q-24.999 -11 -45.9971 -23.499
q-20.999 -12.499 -35.998 -28.998t-22.999 -37.998q-7.99902 -21.498 -7.99902 -50.4961q0 -43.998 27.998 -69.4961q27.998 -25.499 81.9951 -25.499q34.998 0 71.4951 8.5q36.498 8.49902 70.4961 22.499q13.999 5.99902 17.999 -7l9.99902 -31.998
q5 -13.999 -8.99902 -19.999q-34.998 -16.999 -78.9951 -27.998t-91.9941 -10.999q-34.998 0 -67.4961 9.49902q-32.498 9.5 -57.4971 28.998q-24.998 19.499 -39.4971 48.4971t-14.499 68.9961q0 73.9951 44.4971 123.992t117.493 81.9951q22.998 9.99902 37.9971 18.499
q14.999 8.49902 24.499 17.999q9.49902 9.49902 14.499 20.998q4.99902 11.5 7.99902 27.499l10 56.9961q2 6 4.99902 10q3 3.99902 13 3.99902h39.9971zM363.978 526.968q14.999 0 12.999 -13.999l-10.999 -77.9951q-2 -13.999 -16.999 -13.999h-73.9951
q-15.999 0 -13.999 13.999l10.999 77.9951q2 13.999 17.999 13.999h73.9951z" />
    <glyph glyph-name="asterisk" unicode="*" horiz-adv-x="392" 
d="M362 652q16 6 17 -7l8 -41q2 -10 -0.5 -13.5t-11.5 -5.5l-106 -24l70 -84q3 -5 2 -9t-10 -10l-33 -21q-15 -10 -20 2l-49 96l-76 -97q-8 -11 -20 -2l-30 22q-13 10 -2 19l86 84l-100 24q-9 2 -10 5.5t4 13.5l18 41q4 7 7.5 9t11.5 -2l91 -49l7 117q0 7 3 8.5t8 1.5h47
q5 0 8 -1.5t1 -8.5l-26 -117z" />
    <glyph glyph-name="period" unicode="." horiz-adv-x="237" 
d="M44 0q-15 0 -13 14l11 78q2 14 17 14h74q16 0 14 -14l-11 -78q-2 -14 -18 -14h-74z" />
    <glyph glyph-name="comma" unicode="," horiz-adv-x="236" 
d="M29 -147q-16 0 -10 14l47 130l-16 7q-10 5 -13 9.5t-1 15.5l9 63q2 14 17 14h76q16 0 14 -14l-6 -42q-2 -11 -4 -21.5t-6.5 -22.5t-11 -27t-15.5 -35l-37 -79q-5 -12 -18 -12h-25z" />
    <glyph glyph-name="colon" unicode=":" horiz-adv-x="236" 
d="M97 388q-15 0 -13 14l11 78q2 14 17 14h74q16 0 14 -14l-11 -78q-2 -14 -18 -14h-74zM37 0q-15 0 -13 14l11 78q2 14 17 14h74q16 0 14 -14l-11 -78q-2 -14 -18 -14h-74z" />
    <glyph glyph-name="semicolon" unicode=";" horiz-adv-x="235" 
d="M95 388q-15 0 -13 14l11 78q2 14 17 14h74q16 0 14 -14l-11 -78q-2 -14 -18 -14h-74zM24 -147q-16 0 -10 14l47 130l-16 7q-10 5 -13 9.5t-1 15.5l9 63q2 14 17 14h76q16 0 14 -14l-6 -42q-2 -11 -4 -21.5t-6.5 -22.5t-11 -27t-15.5 -35l-37 -79q-5 -12 -18 -12h-25z" />
    <glyph glyph-name="ellipsis" unicode="&#x2026;" horiz-adv-x="711" 
d="M44 0q-15 0 -13 14l11 78q2 14 17 14h74q16 0 14 -14l-11 -78q-2 -14 -18 -14h-74zM281 0q-15 0 -13 14l11 78q2 14 17 14h74q16 0 14 -14l-11 -78q-2 -14 -18 -14h-74zM518 0q-15 0 -13 14l11 78q2 14 17 14h74q16 0 14 -14l-11 -78q-2 -14 -18 -14h-74z" />
    <glyph glyph-name="periodcentered" unicode="&#xb7;" horiz-adv-x="236" 
d="M76 304q-15 0 -13 14l11 78q2 14 17 14h74q16 0 14 -14l-11 -78q-2 -14 -18 -14h-74z" />
    <glyph glyph-name="uni22C5" unicode="&#x22c5;" horiz-adv-x="236" 
d="M76 304q-15 0 -13 14l11 78q2 14 17 14h74q16 0 14 -14l-11 -78q-2 -14 -18 -14h-74z" />
    <glyph glyph-name="bullet" unicode="&#x2022;" horiz-adv-x="331" 
d="M88 413q3 22 26 22h139q23 0 20 -22l-20 -142q-4 -22 -27 -22h-139q-23 0 -19 22z" />
    <glyph glyph-name="slash" unicode="/" horiz-adv-x="326" 
d="M44 -9q-5 -9 -9 -11.5t-12 -2.5h-36q-17 0 -9 17l324 737q5 9 9 11.5t12 2.5h37q16 0 8 -17z" />
    <glyph glyph-name="parenleft" unicode="(" horiz-adv-x="322" 
d="M95 204q0 71 14 143.5t40.5 143t63.5 137t83 124.5q11 15 22 8l26 -13q13 -7 4 -21q-41 -56 -74.5 -119t-57 -130.5t-36.5 -137.5t-13 -139q0 -86 15.5 -157.5t48.5 -144.5q6 -14 -10 -21l-26 -11q-12 -6 -19 8q-17 31 -31.5 64.5t-25.5 73t-17.5 86.5t-6.5 106z" />
    <glyph glyph-name="brokenbar" unicode="&#xa6;" horiz-adv-x="269" 
d="M123 365q-15 0 -13 14l53 373q2 14 17 14h41q15 0 13 -14l-53 -373q-2 -14 -17 -14h-41zM38 -242q-15 0 -13 14l52 373q3 14 17 14h41q16 0 13 -14l-52 -373q-2 -14 -17 -14h-41z" />
    <glyph glyph-name="parenright" unicode=")" horiz-adv-x="322" 
d="M249 422q0 -71 -14.5 -143.5t-40.5 -143t-63 -137t-83 -124.5q-11 -15 -22 -8l-26 13q-13 7 -4 21q41 55 74.5 118.5t57 131t36.5 137.5t13 139q0 86 -15.5 157.5t-48.5 144.5q-6 14 10 21l26 11q12 6 19 -8q17 -31 31.5 -64.5t25.5 -73t17.5 -86.5t6.5 -106z" />
    <glyph glyph-name="bracketleft" unicode="[" horiz-adv-x="322" 
d="M156 739q2 14 17 14h168q13 0 12 -14l-5 -36q-3 -14 -16 -14h-108l-107 -757h108q15 0 12 -14l-5 -36q-1 -14 -16 -14h-168q-15 0 -13 14z" />
    <glyph glyph-name="backslash" unicode="\" horiz-adv-x="328" 
d="M77 728q-3 17 14 17h37q8 0 11.5 -2.5t5.5 -11.5l117 -737q3 -17 -13 -17h-37q-8 0 -11.5 2.5t-5.5 11.5z" />
    <glyph glyph-name="bracketright" unicode="]" horiz-adv-x="322" 
d="M171 -118q-2 -14 -17 -14h-168q-13 0 -12 14l5 36q3 14 16 14h108l107 757h-108q-15 0 -12 14l5 36q1 14 16 14h168q15 0 13 -14z" />
    <glyph glyph-name="braceleft" unicode="{" horiz-adv-x="322" 
d="M120 310q14 -4 23.5 -14.5t15 -24.5t8 -30.5t2.5 -32.5t-2 -38t-4 -39l-9 -62q-3 -20 -4.5 -37t-1.5 -24q1 -35 17 -56t54 -21h17q13 0 12 -14l-5 -35q-1 -14 -16 -14h-20q-63 0 -98 36t-35 107q0 24 6 68l9 60q6 42 6 57q0 35 -9 55.5t-36 25.5q-16 3 -13 16l5 34
q1 13 17 16q21 4 34.5 16.5t22 28t12 33t5.5 31.5l18 131q12 89 58 129.5t123 40.5h20q13 0 12 -14l-5 -35q-1 -14 -16 -14h-17q-45 0 -68 -25t-31 -83l-17 -116q-2 -16 -8 -40t-16.5 -47.5t-26.5 -43t-39 -25.5z" />
    <glyph glyph-name="bar" unicode="|" horiz-adv-x="271" 
d="M32 -242q-15 0 -13 14l138 980q2 14 17 14h41q15 0 13 -14l-138 -980q-2 -14 -17 -14h-41z" />
    <glyph glyph-name="braceright" unicode="}" horiz-adv-x="322" 
d="M196 311q-14 4 -23.5 14.5t-15 24.5t-8 30.5t-2.5 32.5t2 38t4 39l9 62q3 20 4.5 37t1.5 24q-1 35 -17 56t-54 21h-17q-13 0 -12 14l5 35q1 14 16 14h20q63 0 98 -36t35 -107q0 -25 -6 -68l-9 -60q-6 -42 -6 -57q0 -35 9 -55.5t36 -25.5q16 -3 13 -16l-5 -34
q-1 -13 -17 -16q-21 -5 -34.5 -17t-22 -28t-12 -33t-5.5 -31l-18 -131q-12 -89 -58 -129.5t-123 -40.5h-20q-13 0 -12 14l5 35q1 14 16 14h17q45 0 68 25t31 83l17 116q2 16 7.5 40t16 47.5t27 43t39.5 25.5z" />
    <glyph glyph-name="hyphen" unicode="-" horiz-adv-x="373" 
d="M318 337q15 0 12 -14l-4 -29q-1 -14 -16 -14h-253q-13 0 -12 14l4 29q3 14 16 14h253z" />
    <glyph glyph-name="uni00AD" unicode="&#xad;" horiz-adv-x="373" 
d="M318 337q15 0 12 -14l-4 -29q-1 -14 -16 -14h-253q-13 0 -12 14l4 29q3 14 16 14h253z" />
    <glyph glyph-name="endash" unicode="&#x2013;" horiz-adv-x="485" 
d="M427 308q13 0 12 -14l-3 -24q-3 -14 -16 -14h-366q-15 0 -12 14l3 24q1 14 16 14h366z" />
    <glyph glyph-name="emdash" unicode="&#x2014;" horiz-adv-x="988" 
d="M930 308q13 0 12 -14l-3 -24q-3 -14 -16 -14h-869q-15 0 -12 14l3 24q1 14 16 14h869z" />
    <glyph glyph-name="underscore" unicode="_" horiz-adv-x="496" 
d="M431 -141q15 0 12 -14l-3 -23q-1 -14 -16 -14h-493q-13 0 -12 14l3 23q3 14 16 14h493z" />
    <glyph glyph-name="dagger" unicode="&#x2020;" horiz-adv-x="462" 
d="M467 428q-2 -15 -16 -15h-171l-75 -536q-3 -14 -17 -14h-41q-16 0 -13 14l75 536h-166q-14 0 -12 15l4 28q3 15 16 15h166l33 235q3 14 17 14h41q16 0 13 -14l-33 -235h171q15 0 12 -15z" />
    <glyph glyph-name="daggerdbl" unicode="&#x2021;" horiz-adv-x="466" 
d="M417 100q-2 -15 -16 -15h-171l-29 -208q-3 -14 -17 -14h-41q-16 0 -13 14l29 208h-166q-14 0 -12 15l4 28q1 15 16 15h166l42 297h-166q-14 0 -12 15l4 28q1 15 16 15h166l29 208q3 14 17 14h41q16 0 13 -14l-29 -208h171q13 0 12 -15l-4 -28q-2 -15 -16 -15h-171
l-42 -297h171q13 0 12 -15z" />
    <glyph glyph-name="section" unicode="&#xa7;" horiz-adv-x="490" 
d="M445 365q0 -50 -26 -88t-71 -67q16 -14 24.5 -33t8.5 -46q0 -37 -14 -68.5t-39.5 -54t-60 -35.5t-76.5 -13q-52 0 -94 16t-69 40q-7 6 -6 11.5t9 15.5l17 22q5 8 10.5 7.5t12.5 -5.5q23 -17 55 -30t67 -13q25 0 46.5 5t37.5 16.5t25 29t9 41.5q0 28 -18.5 43.5t-46.5 26
t-61 19t-61 23.5t-46.5 39t-18.5 65q0 46 25 81t72 67q-17 17 -26 39.5t-9 52.5q0 36 17 65.5t45 50t65 31.5t76 11q45 0 84.5 -15.5t63.5 -35.5q6 -5 5 -11t-6 -14l-18 -28q-6 -6 -10.5 -6.5t-11.5 4.5q-26 20 -55 31t-64 11q-24 0 -45.5 -5.5t-38.5 -16t-27 -26.5t-10 -37
q0 -28 19 -43.5t47 -26t61 -19.5t61 -24t47 -39t19 -64zM210 449q-14 -7 -28.5 -18t-26 -25.5t-19 -31t-7.5 -35.5q0 -25 15 -39.5t39 -24.5t53.5 -17.5t57.5 -17.5q30 16 55.5 44.5t25.5 68.5q0 24 -16 38t-40 23.5t-53 17t-56 17.5z" />
    <glyph glyph-name="paragraph" unicode="&#xb6;" horiz-adv-x="604" 
d="M555 656l-110 -784q-1 -9 -34 -9h-7q-19 0 -25 2t-5 7l111 785h-109l-111 -785q-1 -9 -35 -9h-6q-32 0 -31 9l62 439q-80 5 -127 52t-47 122q0 54 19 97t55 74t88 47.5t118 16.5h266q15 0 12 -14l-5 -36q-1 -14 -16 -14h-63z" />
    <glyph glyph-name="registered" unicode="&#xae;" horiz-adv-x="792" 
d="M417 365q39 0 62.5 22t23.5 70q0 29 -19.5 43t-62.5 14h-66l-21 -149h83zM405 316h-77l-19 -140q-2 -11 -13 -11h-41q-11 0 -9 11l53 376q0 11 12 11h127q63 0 94.5 -28t31.5 -73q0 -53 -25 -88.5t-73 -51.5l65 -144q3 -6 -1 -9.5t-9 -3.5h-39q-11 0 -16 11zM449 731
q69 0 126 -24.5t98 -67t63.5 -101t22.5 -126.5q0 -81 -31.5 -157t-86.5 -135t-128.5 -94.5t-158.5 -35.5q-69 0 -126.5 24.5t-99 67.5t-64.5 101.5t-23 127.5q0 85 32 161t87.5 133.5t129.5 91.5t159 34zM442 682q-69 0 -131 -30.5t-108.5 -81.5t-74 -117t-27.5 -138
q0 -60 19 -111t53 -87.5t81.5 -57t105.5 -20.5q70 0 132 30.5t108.5 81t73.5 117t27 138.5q0 60 -19 110.5t-53 87.5t-82 57.5t-105 20.5z" />
    <glyph glyph-name="copyright" unicode="&#xa9;" horiz-adv-x="792" 
d="M378 154q-75 0 -116 47t-41 122q0 46 14 90.5t41.5 79.5t68 57t92.5 22q35 0 61.5 -8t48.5 -22q5 -4 4.5 -8t-3.5 -9l-16 -27q-7 -11 -18 -4q-18 11 -39 17t-44 6q-37 0 -64 -16t-45 -42t-27 -59.5t-9 -69.5q0 -57 25.5 -89t78.5 -32q25 0 49.5 7t45.5 18q14 6 17 -7
l3 -25q1 -11 -7 -16q-27 -16 -58 -24t-62 -8zM449 731q69 0 126 -24.5t98 -67t63.5 -101t22.5 -126.5q0 -81 -31.5 -157t-86.5 -135t-128.5 -94.5t-158.5 -35.5q-69 0 -126.5 24.5t-99 67.5t-64.5 101.5t-23 127.5q0 82 32 157.5t87.5 134t129.5 93.5t159 35zM442 682
q-69 0 -131 -30.5t-108.5 -81.5t-74 -117t-27.5 -138q0 -60 19 -111t53 -87.5t81.5 -57t105.5 -20.5q70 0 132 30.5t108.5 81t73.5 117t27 138.5q0 60 -19 110.5t-53 87.5t-82 57.5t-105 20.5z" />
    <glyph glyph-name="trademark" unicode="&#x2122;" horiz-adv-x="872" 
d="M640 397q-3 -5 -6.5 -7.5t-11.5 -2.5h-36q-8 0 -10 2.5t-4 7.5l-37 124q-6 20 -12.5 43.5t-13.5 54.5q-4 -30 -8.5 -56.5t-8.5 -46.5l-39 -185q-4 -12 -16 -12h-36q-13 0 -9 12l82 375q2 9 6 11.5t12 2.5h33q7 0 10.5 -1.5t5.5 -8.5l49 -169q7 -23 13.5 -47t9.5 -38
q7 13 19.5 37.5t25.5 47.5l96 169q4 7 7.5 8.5t10.5 1.5h39q8 0 11.5 -2.5t2.5 -11.5l-22 -375q-1 -12 -13 -12h-37q-13 0 -12 12l13 185q2 24 3.5 50.5t3.5 52.5l-53 -98zM199 670h-126q-12 0 -10 12l4 27q1 11 13 11h316q12 0 11 -11l-4 -27q-2 -12 -14 -12h-127l-47 -339
q-3 -12 -14 -12h-40q-12 0 -9 12z" />
    <glyph glyph-name="quotedblleft" unicode="&#x201c;" horiz-adv-x="405" 
d="M204 720q16 0 10 -14l-47 -130l16 -7q10 -5 13 -9.5t1 -15.5l-9 -63q-2 -14 -17 -14h-76q-16 0 -14 14l6 42q1 11 3.5 21.5t7 22.5t11 27t15.5 35l37 79q5 12 18 12h25zM381 720q16 0 10 -14l-47 -130l16 -7q10 -5 13 -9.5t1 -15.5l-9 -63q-2 -14 -17 -14h-76
q-16 0 -14 14l6 42q1 11 3.5 21.5t7 22.5t11 27t15.5 35l37 79q5 12 18 12h25z" />
    <glyph glyph-name="quotedblright" unicode="&#x201d;" horiz-adv-x="405" 
d="M99.9941 466.972q-15.999 0 -10 13.999l46.9971 129.992l-15.999 6.99902q-9.99902 5 -12.999 9.5q-3 4.49902 -1 15.499l9 62.9961q2 13.999 16.999 13.999h75.9951q15.999 0 13.999 -13.999l-6 -41.998q-1 -10.999 -3.49902 -21.498q-2.5 -10.5 -7 -22.499
t-10.999 -26.998q-6.5 -14.999 -15.499 -34.998l-36.998 -78.9951q-5 -11.999 -17.999 -11.999h-24.998zM276.983 466.972q-15.999 0 -10 13.999l46.9971 129.992l-15.999 6.99902q-9.99902 5 -12.999 9.5q-3 4.49902 -1 15.499l9 62.9961q2 13.999 16.999 13.999h75.9951
q15.999 0 13.999 -13.999l-6 -41.998q-1 -10.999 -3.49902 -21.498q-2.5 -10.5 -7 -22.499t-10.999 -26.998q-6.5 -14.999 -15.499 -34.998l-36.998 -78.9951q-5 -11.999 -17.999 -11.999h-24.998z" />
    <glyph glyph-name="quoteleft" unicode="&#x2018;" horiz-adv-x="228" 
d="M204 720q16 0 10 -14l-47 -130l16 -7q10 -5 13 -9.5t1 -15.5l-9 -63q-2 -14 -17 -14h-76q-16 0 -14 14l6 42q1 11 3.5 21.5t7 22.5t11 27t15.5 35l37 79q5 12 18 12h25z" />
    <glyph glyph-name="quoteright" unicode="&#x2019;" horiz-adv-x="228" 
d="M100 467q-16 0 -10 14l47 130l-16 7q-10 5 -13 9.5t-1 15.5l9 63q2 14 17 14h76q16 0 14 -14l-6 -42q-2 -11 -4 -21.5t-6.5 -22.5t-11 -27t-15.5 -35l-37 -79q-5 -12 -18 -12h-25z" />
    <glyph glyph-name="guillemotleft" unicode="&#xab;" horiz-adv-x="504" 
d="M132 296l90 -183q7 -13 -9 -21l-21 -10q-6 -3 -11 -3t-10 8l-106 190q-4 7 -4 15q0 6 3 21q2 8 3 11.5t6 8.5l157 186q9 12 20 5l22 -14q8 -5 8 -9t-5 -10zM337 296l90 -183q7 -13 -9 -21l-21 -10q-6 -3 -11 -3t-10 8l-106 190q-4 7 -4 15q0 6 3 21q2 8 3 11.5t6 8.5
l157 186q9 12 20 5l22 -14q8 -5 8 -9t-5 -10z" />
    <glyph glyph-name="guillemotright" unicode="&#xbb;" horiz-adv-x="505" 
d="M175 310l-90 183q-7 13 9 21l21 10q6 3 11 3t10 -8l106 -190q4 -7 4 -15q0 -6 -3 -21q-2 -8 -3 -11.5t-6 -8.5l-157 -186q-9 -12 -20 -5l-22 14q-8 5 -8 9t5 10zM379 310l-90 183q-7 13 9 21l21 10q6 3 11 3t10 -8l106 -190q4 -7 4 -15q0 -6 -3 -21q-2 -8 -3 -11.5
t-6 -8.5l-157 -186q-9 -12 -20 -5l-22 14q-8 5 -8 9t5 10z" />
    <glyph glyph-name="guilsinglleft" unicode="&#x2039;" horiz-adv-x="299" 
d="M132 296l90 -183q7 -13 -9 -21l-21 -10q-6 -3 -11 -3t-10 8l-106 190q-4 7 -4 15q0 6 3 21q2 8 3 11.5t6 8.5l157 186q9 12 20 5l22 -14q8 -5 8 -9t-5 -10z" />
    <glyph glyph-name="guilsinglright" unicode="&#x203a;" horiz-adv-x="301" 
d="M175 310l-90 183q-7 13 9 21l21 10q6 3 11 3t10 -8l106 -190q4 -7 4 -15q0 -6 -3 -21q-2 -8 -3 -11.5t-6 -8.5l-157 -186q-9 -12 -20 -5l-22 14q-8 5 -8 9t5 10z" />
    <glyph glyph-name="quotesinglbase" unicode="&#x201a;" horiz-adv-x="228" 
d="M26 -155q-16 0 -10 14l47 130l-16 7q-10 5 -13 9.5t-1 15.5l9 63q2 14 17 14h76q16 0 14 -14l-6 -42q-2 -11 -4 -21.5t-6.5 -22.5t-11 -27t-15.5 -35l-37 -79q-5 -12 -18 -12h-25z" />
    <glyph glyph-name="quotedblbase" unicode="&#x201e;" horiz-adv-x="405" 
d="M28.998 -132.992q-15.999 0 -9.99902 13.999l46.9971 129.992l-15.999 7q-9.99902 5 -12.999 9.49902q-3 4.5 -1 15.499l8.99902 62.9961q2 13.999 16.999 13.999h75.9951q15.999 0 13.999 -13.999l-5.99902 -41.9971q-1 -10.999 -3.5 -21.499
q-2.5 -10.499 -6.99902 -22.498q-4.5 -11.999 -11 -26.999q-6.49902 -14.999 -15.499 -34.9971l-36.9971 -78.9951q-5 -12 -17.999 -12h-24.999zM205.987 -132.992q-15.999 0 -9.99902 13.999l46.9971 129.992l-15.999 7q-10 5 -12.999 9.49902q-3 4.5 -1 15.499
l8.99902 62.9961q2 13.999 16.999 13.999h75.9951q15.999 0 13.999 -13.999l-5.99902 -41.9971q-1 -10.999 -3.5 -21.499q-2.5 -10.499 -7 -22.498q-4.49902 -11.999 -10.999 -26.999q-6.49902 -14.999 -15.499 -34.9971l-36.998 -78.9951q-4.99902 -12 -17.998 -12h-24.999
z" />
    <glyph glyph-name="arrowleft" unicode="&#x2190;" horiz-adv-x="620" 
d="M38 291q0 7 2 11.5t11 12.5l198 180q5 4 9 2t15 -15l9 -9q11 -12 12 -16.5t-3 -8.5l-140 -123h411q5 0 7 -5t-1 -26q0 -26 -6.5 -30.5t-9.5 -4.5h-417l107 -127q4 -5 1.5 -8.5t-13.5 -13.5l-9 -8q-14 -11 -18.5 -13.5t-7.5 2.5l-149 182q-6 8 -7.5 10.5t-0.5 7.5z" />
    <glyph glyph-name="arrowup" unicode="&#x2191;" horiz-adv-x="620" 
d="M265 0q-21 0 -24.5 2.5t-2.5 7.5l59 422l-145 -122q-4 -4 -8 -2t-14 14l-8 10q-11 12 -13 16.5t3 8.5l204 172q8 7 11.5 9t8.5 2h6q5 0 7.5 -1.5t9.5 -9.5l158 -174q4 -4 1 -8.5t-16 -16.5l-7 -6q-12 -12 -16.5 -14t-8.5 3l-107 120l-59 -423q-1 -5 -5 -7.5t-25 -2.5h-9z
" />
    <glyph glyph-name="arrowright" unicode="&#x2192;" horiz-adv-x="620" 
d="M574 294q0 -7 -2.5 -11.5t-11.5 -12.5l-198 -180q-5 -4 -9 -2t-15 15l-8 9q-11 12 -12 16.5t3 8.5l140 124h-411q-6 0 -7.5 4.5t1.5 25.5q0 25 6 30t9 5h418l-107 127q-4 5 -2 8.5t13 13.5l10 8q13 11 17.5 13.5t8.5 -2.5l149 -182q6 -8 7.5 -10.5t0.5 -7.5z" />
    <glyph glyph-name="arrowdown" unicode="&#x2193;" horiz-adv-x="620" 
d="M348 540q21 0 25 -2.5t3 -8.5l-60 -422l145 123q5 4 9 1.5t14 -13.5l8 -10q11 -13 13 -17.5t-3 -8.5l-205 -172q-8 -7 -11 -8.5t-8 -1.5h-7q-4 0 -6.5 1.5t-9.5 8.5l-159 174q-4 5 -0.5 9t15.5 16l7 7q13 12 17.5 13.5t8.5 -2.5l106 -120l60 422q1 5 5 8t24 3h9z" />
    <glyph glyph-name="uni266A" unicode="&#x266a;" horiz-adv-x="690" 
d="M513 408q-3 -2 -5.5 -0.5t-8.5 10.5l-4 6q-6 9 -6.5 11.5t2.5 4.5q32 22 32 50q0 16 -8.5 27t-22 19t-31.5 14t-37 13q-17 5 -32.5 13t-29.5 20v-472q0 -64 -37.5 -99t-108.5 -35q-56 0 -86 24t-30 56t29.5 56t82.5 24q24 0 50 -7t46 -20v588q0 5 3.5 7t19.5 2h8
q16 0 19.5 -2t3.5 -7v-25q24 -18 51 -29t53 -21q25 -9 47.5 -18t39.5 -22t27 -31t10 -46q0 -31 -20 -60.5t-57 -50.5z" />
    <glyph glyph-name="grave" unicode="`" horiz-adv-x="345" 
d="M225 584q-11 0 -15 8l-72 120q-7 13 6 13h64q8 0 11 -1.5t6 -8.5l47 -121q3 -10 -8 -10h-39z" />
    <glyph glyph-name="acute" unicode="&#xb4;" horiz-adv-x="345" 
d="M140 584q-11 0 -4 10l81 121q5 7 8 8.5t11 1.5h65q6 0 8 -3.5t-4 -9.5l-101 -120q-7 -8 -17 -8h-47z" />
    <glyph glyph-name="dieresis" unicode="&#xa8;" horiz-adv-x="345" 
d="M86 600q-14 0 -12 13l10 66q2 13 15 13h61q17 0 15 -13l-10 -66q-2 -13 -18 -13h-61zM274 600q-15 0 -13 13l10 66q2 13 16 13h61q16 0 14 -13l-10 -66q-2 -13 -17 -13h-61z" />
    <glyph glyph-name="circumflex" unicode="&#x2c6;" horiz-adv-x="345" 
d="M365 623q5 -6 -3 -16l-18 -20q-10 -10 -18 -1l-96 94l-129 -95q-10 -8 -18 1l-18 23q-7 9 1 16l105 95q8 7 13 9.5t14 2.5h67q9 0 13 -2.5t10 -9.5z" />
    <glyph glyph-name="tilde" unicode="&#x2dc;" horiz-adv-x="345" 
d="M361 656q-14 -16 -38 -29.5t-49 -13.5q-19 0 -32.5 5t-26.5 11t-26 11t-31 5t-31.5 -8.5t-24.5 -19.5q-8 -8 -14 0l-23 29q-2 5 -0.5 8t6.5 10q11 14 37 29t54 15q19 0 32.5 -5t26 -11t26 -11t31.5 -5q16 0 29 8.5t22 16.5q5 4 10 5t9 -5l17 -24q6 -9 -4 -21z" />
    <glyph glyph-name="macron" unicode="&#xaf;" horiz-adv-x="345" 
d="M357 689q15 0 12 -14l-5 -37q-1 -14 -16 -14h-267q-13 0 -12 14l5 37q3 14 16 14h267z" />
    <glyph glyph-name="breve" unicode="&#x2d8;" horiz-adv-x="345" 
d="M215 593q-56 0 -92.5 22.5t-36.5 71.5v6.5t1 8.5q1 11 13 11h41q11 0 11 -12q0 -57 68 -57q33 0 56 15.5t29 41.5q3 12 13 12h42q14 0 11 -11q-14 -58 -55.5 -83.5t-100.5 -25.5z" />
    <glyph glyph-name="dotaccent" unicode="&#x2d9;" horiz-adv-x="345" 
d="M181 615q-15 0 -13 13l10 66q2 13 16 13h61q16 0 14 -13l-10 -66q-2 -13 -17 -13h-61z" />
    <glyph glyph-name="ring" unicode="&#x2da;" horiz-adv-x="345" 
d="M205 583q-31 0 -53.5 20.5t-22.5 53.5q0 18 8 35t22 29.5t31.5 20t37.5 7.5q32 0 54.5 -20.5t22.5 -52.5q0 -19 -8.5 -36t-22 -29.5t-32 -20t-37.5 -7.5zM211 623q16 0 32 13t16 35q0 16 -9.5 27t-26.5 11q-20 0 -35 -13.5t-15 -35.5q0 -17 11 -27t27 -10z" />
    <glyph glyph-name="cedilla" unicode="&#xb8;" horiz-adv-x="345" 
d="M121 -229q-23 0 -42.5 4t-34.5 11q-11 5 -6 16l10 26q5 13 16 8t27.5 -9.5t31.5 -4.5q22 0 39 10t17 32q0 17 -13.5 24.5t-43.5 7.5q-11 0 -23 -0.5t-22 -1.5q-13 0 -10 11l24 89q3 11 14 11h34q11 0 8 -12l-12 -46q5 1 14 1.5t16 0.5q33 0 57.5 -18.5t24.5 -54.5
q0 -47 -34.5 -76t-91.5 -29z" />
    <glyph glyph-name="hungarumlaut" unicode="&#x2dd;" horiz-adv-x="345" 
d="M68 583q-13 0 -6 12l76 118q5 7 8.5 8.5t10.5 1.5h56q6 0 8 -3.5t-3 -9.5l-95 -118q-5 -5 -7.5 -7t-10.5 -2h-37zM225 583q-13 0 -6 12l76 118q5 7 8.5 8.5t10.5 1.5h56q6 0 8 -3.5t-3 -9.5l-95 -118q-5 -5 -7.5 -7t-10.5 -2h-37z" />
    <glyph glyph-name="ogonek" unicode="&#x2db;" horiz-adv-x="345" 
d="M138 -223q-50 0 -72.5 23.5t-22.5 55.5q0 42 27 78.5t69 62.5q13 8 32 8h28q7 0 8 -3.5t-6 -8.5q-35 -26 -60 -55.5t-25 -61.5q0 -23 14 -32t33 -9q16 0 41 5q12 3 12 -8v-30q0 -7 -1.5 -10t-9.5 -5q-14 -5 -31.5 -7.5t-35.5 -2.5z" />
    <glyph glyph-name="caron" unicode="&#x2c7;" horiz-adv-x="345" 
d="M273 592q-8 -7 -13 -9.5t-14 -2.5h-67q-9 0 -13.5 2.5t-9.5 9.5l-82 97q-5 8 3 16l23 21q10 10 19 1l98 -95l126 95q9 8 17 -1l17 -21q5 -5 4 -8.5t-5 -7.5z" />
    <glyph glyph-name="commaaccent" unicode="&#xf6c3;" horiz-adv-x="345" 
d="M72 -278q-16 0 -10 14l39 112l-14 7q-9 5 -12 8.5t-1 13.5l7 55q3 14 17 14h67q15 0 14 -14l-4 -33q-2 -12 -4.5 -22t-6.5 -21.5t-10 -25.5t-15 -33l-28 -63q-5 -12 -18 -12h-21v0z" />
    <glyph glyph-name="grave.cap" horiz-adv-x="345" 
d="M230 773q-11 0 -15 8l-71 119q-7 13 6 13h66q8 0 11 -1.5t6 -8.5l48 -120q3 -10 -8 -10h-43z" />
    <glyph glyph-name="acute.cap" horiz-adv-x="345" 
d="M176 773q-11 0 -4 10l83 120q5 7 8 8.5t11 1.5h67q5 0 6.5 -3.5t-4.5 -9.5l-103 -119q-7 -8 -17 -8h-47z" />
    <glyph glyph-name="dieresis.cap" horiz-adv-x="345" 
d="M106 784q-14 0 -12 13l9 66q3 13 16 13h61q17 0 14 -13l-9 -66q-2 -13 -18 -13h-61zM294 784q-15 0 -13 13l9 66q3 13 17 13h61q16 0 13 -13l-9 -66q-2 -13 -17 -13h-61z" />
    <glyph glyph-name="circumflex.cap" horiz-adv-x="345" 
d="M386 807q5 -6 -3 -16l-18 -20q-10 -10 -18 -1l-96 94l-129 -95q-10 -8 -18 1l-18 23q-7 9 1 16l105 95q8 7 13 9.5t14 2.5h67q9 0 13 -2.5t10 -9.5z" />
    <glyph glyph-name="tilde.cap" horiz-adv-x="345" 
d="M384 844q-20 -20 -42 -32t-46 -12q-19 0 -32.5 5t-26 11.5t-25.5 11.5t-31 5q-20 0 -34 -9.5t-24 -18.5q-8 -7 -14 0l-23 33q-2 5 -0.5 6t7.5 7q14 16 38.5 30t52.5 14q19 0 33.5 -5t27.5 -11t26.5 -11t29.5 -5q18 0 29 8t22 19q8 8 14 0l20 -28q7 -8 -2 -18z" />
    <glyph glyph-name="macron.cap" horiz-adv-x="345" 
d="M374 877q13 0 12 -14l-5 -37q-3 -14 -16 -14h-267q-15 0 -12 14l5 37q1 14 16 14h267z" />
    <glyph glyph-name="breve.cap" horiz-adv-x="345" 
d="M232 788q-57 0 -92.5 23t-35.5 75v4.5t1 7.5q1 10 14 10h41q10 0 10 -12q0 -57 67 -57q33 0 56 14.5t31 42.5q3 12 14 12h42q11 0 10 -11q-12 -60 -53.5 -84.5t-104.5 -24.5z" />
    <glyph glyph-name="dotaccent.cap" horiz-adv-x="345" 
d="M204 795q-16 0 -13 13l9 66q2 13 17 13h61q15 0 13 -13l-9 -66q-3 -13 -17 -13h-61z" />
    <glyph glyph-name="ring.cap" horiz-adv-x="345" 
d="M234 772q-35 0 -56 22.5t-21 53.5q0 18 8 34.5t22 29t31.5 19.5t37.5 7q32 0 54.5 -21.5t22.5 -52.5q0 -19 -8 -35.5t-21.5 -29t-31.5 -20t-38 -7.5zM240 812q20 0 34 14.5t14 34.5q0 16 -10.5 26.5t-27.5 10.5q-18 0 -33 -13t-15 -36q0 -17 10.5 -27t27.5 -10z" />
    <glyph glyph-name="hungarumlaut.cap" horiz-adv-x="345" 
d="M118 772q-13 0 -6 12l74 119q5 7 8.5 8.5t10.5 1.5h57q6 0 7 -4t-3 -9l-93 -119q-5 -5 -7.5 -7t-10.5 -2h-37zM274 772q-13 0 -6 12l74 119q5 7 8.5 8.5t10.5 1.5h57q6 0 7 -4t-3 -9l-93 -119q-5 -5 -7.5 -7t-10.5 -2h-37z" />
    <glyph glyph-name="caron.cap" horiz-adv-x="345" 
d="M301 789q-8 -7 -13 -9.5t-14 -2.5h-68q-9 0 -13.5 3t-9.5 9l-80 99q-2 4 -2 7.5t5 8.5l23 21q10 9 19 1l94 -97l130 97q9 8 17 -1l17 -21q6 -9 -1 -16z" />
    <glyph glyph-name="zero" unicode="0" 
d="M231 -10q-94 0 -142.5 63.5t-48.5 189.5q0 53 5.5 109t19 110.5t35.5 103t55 85t77.5 58t103.5 21.5q94 0 140 -64.5t46 -188.5q0 -46 -5.5 -100t-18.5 -108.5t-34.5 -104.5t-54 -89t-76.5 -62t-102 -23zM240 56q43 0 74.5 22t54.5 57.5t37.5 80.5t23 91.5t11.5 90.5
t3 77q0 94 -30 141.5t-90 47.5q-43 0 -75 -22t-54.5 -57.5t-37.5 -81t-23.5 -92.5t-12 -91t-3.5 -77q0 -88 31 -137.5t91 -49.5z" />
    <glyph glyph-name="one" unicode="1" 
d="M299 63h133q14 0 11 -16l-6 -34q-3 -13 -17 -13h-358q-8 0 -10 3t-1 10l5 36q3 14 15 14h149l80 567l-158 -94q-16 -10 -22 3l-14 33q-6 14 9 23l184 110q15 9 24 12t23 3h30q16 0 13 -16z" />
    <glyph glyph-name="two" unicode="2" 
d="M30 62q7 51 28 92.5t51 76t65.5 63.5t70.5 55q33 24 64.5 47.5t56 49t39.5 53.5t15 62q0 53 -33.5 76.5t-81.5 23.5q-41 0 -81.5 -11.5t-72.5 -30.5q-9 -5 -13.5 -3.5t-7.5 8.5l-11 27q-2 6 -2 11.5t7 10.5q37 26 89.5 41.5t106.5 15.5q39 0 71.5 -10.5t56.5 -31
t37.5 -50t13.5 -67.5q0 -46 -18 -83t-46.5 -68.5t-65 -59.5t-72.5 -55q-33 -25 -65 -50.5t-58 -54.5t-44 -63t-23 -74h322q8 0 10 -4t0 -12l-4 -31q-1 -8 -4 -12t-11 -4h-380q-19 0 -16 17z" />
    <glyph glyph-name="three" unicode="3" 
d="M175 388q2 10 6 17t18 22l218 230h-291q-8 0 -10 4t-1 12l4 31q2 9 5 12.5t11 3.5h357q11 0 14.5 -2.5t2.5 -12.5l-3 -25q-1 -8 -4 -15t-9.5 -16t-17 -21t-26.5 -29l-173 -185q44 -2 79.5 -16.5t60 -38.5t37.5 -56t13 -68q0 -52 -19.5 -97t-54 -78t-83.5 -51.5
t-107 -18.5q-52 0 -99 13.5t-81 32.5q-15 8 -5 27l12 25q5 11 10.5 12.5t12.5 -2.5q35 -17 72 -29t79 -12t76 12t58 34t37 53.5t13 70.5q0 53 -33 86q-21 21 -55 32t-84 11h-28q-15 0 -14 15z" />
    <glyph glyph-name="four" unicode="4" 
d="M119 259h215l26 186q1 8 5.5 10.5t12.5 2.5h48q8 0 11.5 -2.5t2.5 -10.5l-26 -186h78q8 0 10 -3.5t0 -12.5l-5 -36q-2 -9 -4.5 -12.5t-10.5 -3.5h-78l-25 -178q-2 -8 -6 -10.5t-12 -2.5h-48q-8 0 -12 2.5t-2 10.5l25 178h-290q-15 0 -14 16l3 26q2 11 6.5 20t15.5 28
l260 426q4 7 7.5 10t11.5 3h58q17 0 8 -14z" />
    <glyph glyph-name="five" unicode="5" 
d="M500 720q8 0 10 -4t0 -12l-4 -33q-2 -8 -4.5 -12t-10.5 -4h-269l-31 -218q14 3 35 5.5t42 2.5q94 0 145.5 -49t51.5 -137q0 -60 -20.5 -109.5t-58 -85t-89.5 -55t-114 -19.5q-48 0 -90 10.5t-71 27.5q-8 5 -8 10t5 15l14 30q3 6 8 8.5t15 -2.5q26 -12 59 -21t71 -9
q92 0 146 49.5t54 140.5q0 37 -12.5 62t-33.5 40t-47 21.5t-53 6.5q-30 0 -56.5 -3.5t-49.5 -9.5q-22 -6 -19 19l44 319q2 8 5 12t11 4h325z" />
    <glyph glyph-name="six" unicode="6" 
d="M244 -10q-52 0 -90 17t-63 48.5t-37 75.5t-12 97q0 56 9 115t28 115t48 105.5t69.5 86.5t92 58.5t115.5 21.5q30 0 61.5 -6.5t56.5 -19.5q8 -4 9 -8t-4 -14l-14 -30q-3 -7 -7.5 -9.5t-13.5 0.5q-23 9 -47 14.5t-53 5.5q-53 0 -94 -24.5t-71 -63t-50 -85.5t-32 -93
q32 21 77 36t91 15q47 0 80.5 -14t55.5 -39t32 -59t10 -74q0 -49 -16.5 -97.5t-48 -87.5t-77.5 -63t-105 -24zM250 57q40 0 70.5 18.5t51 48t30.5 66.5t10 75q1 59 -28.5 88t-84.5 29q-49 0 -92.5 -14.5t-75.5 -37.5q-5 -29 -7.5 -53.5t-2.5 -44.5q0 -84 29.5 -129.5
t99.5 -45.5z" />
    <glyph glyph-name="seven" unicode="7" 
d="M153 11q-4 -7 -9.5 -9t-14.5 -2h-50q-8 0 -11 4t1 11l368 640h-337q-8 0 -10 5t0 13l5 32q3 15 16 15h390q8 0 12.5 -3.5t2.5 -12.5l-5 -31q-2 -11 -5.5 -20.5t-8.5 -20.5z" />
    <glyph glyph-name="eight" unicode="8" 
d="M509 580q0 -35 -13 -64t-35 -52.5t-51.5 -42t-63.5 -33.5q26 -14 50.5 -29.5t44 -36t31.5 -45.5t12 -58q0 -50 -19.5 -92t-54 -72.5t-81 -47.5t-101.5 -17q-41 0 -78 11t-65 33t-44 53.5t-16 73.5q0 79 50 133.5t132 87.5q-46 26 -73.5 62.5t-27.5 92.5q0 42 18 77.5
t49 61t72 40t88 14.5q36 0 68 -10t56 -29.5t38 -47.5t14 -63zM234 53q35 0 66 11t54.5 30.5t37.5 47.5t14 63q0 29 -12.5 50.5t-33 38.5t-46 30.5t-51.5 26.5q-29 -11 -57.5 -27.5t-51 -39t-37 -51.5t-14.5 -65q0 -57 37 -86t94 -29zM322 668q-26 0 -51 -9t-44 -25
t-30.5 -39.5t-11.5 -51.5q0 -44 30 -73t74 -52q65 28 103 64.5t38 89.5q0 42 -29 69t-79 27z" />
    <glyph glyph-name="nine" unicode="9" 
d="M158 -10q-76 0 -128 26q-8 4 -9 8t3 14l12 30q4 9 8 10.5t13 -1.5q22 -8 48 -14t58 -6q60 0 103.5 29t73.5 74t48.5 99t27.5 103q-28 -28 -71 -49.5t-92 -21.5t-84 14t-58 38.5t-34 59t-11 75.5q0 52 17.5 97.5t49.5 80t78.5 54.5t103.5 20q93 0 144 -60t50 -167
q0 -51 -7.5 -109t-25 -115t-44.5 -109t-66 -92t-90.5 -64t-117.5 -24zM265 359q51 0 89.5 19.5t71.5 47.5q4 29 5.5 47.5t1.5 34.5q0 78 -31.5 117t-97.5 39q-36 0 -65.5 -13.5t-51 -37.5t-33 -57.5t-11.5 -73.5q0 -58 30.5 -90.5t91.5 -32.5z" />
    <glyph glyph-name="dollar" unicode="$" 
d="M445 599q-20 12 -43.5 21t-49.5 12l-34 -241q24 -14 47 -29t41.5 -34.5t29.5 -44t11 -57.5q0 -39 -13.5 -71.5t-37 -58t-56 -42.5t-71.5 -25l-13 -88q-1 -9 -13 -9h-34q-12 0 -11 9l12 85q-25 0 -49.5 4.5t-46 11.5t-38.5 15.5t-27 16.5q-5 4 -6.5 9.5t3.5 13.5l17 29
q8 12 22 3q29 -19 64 -29.5t70 -10.5l35 256q-24 14 -47.5 29.5t-42 35t-30 44t-11.5 57.5q0 37 14.5 68t39 54.5t57 38.5t69.5 21l11 78q1 8 13 8h34q12 0 11 -8l-11 -75q33 -2 65 -15.5t52 -28.5q8 -6 8.5 -10.5t-3.5 -10.5l-17 -29q-8 -11 -21 -3zM378 215q0 33 -20.5 56
t-49.5 42l-30 -216q40 13 70 41t30 77zM195 518q0 -33 20 -55.5t50 -41.5l29 207q-41 -7 -70 -36t-29 -74z" />
    <glyph glyph-name="cent" unicode="&#xa2;" 
d="M370 516q17 -1 35 -5t35 -10.5t32.5 -14.5t27.5 -17q3 -2 5 -6.5t-3 -12.5l-20 -29q-8 -12 -19 -5q-24 18 -50 27t-52 11l-54 -390q55 4 106 30q8 4 12 2.5t7 -10.5l9 -28q4 -12 -8 -19q-23 -14 -60.5 -25t-74.5 -14l-12 -86q-1 -9 -13 -9h-33q-12 0 -11 9l12 87
q-41 6 -72 24t-53 45.5t-33 63t-11 75.5q0 52 15.5 103.5t45.5 94t75 72t105 36.5l12 86q1 8 13 8h33q12 0 11 -8zM148 218q0 -59 23 -100t79 -51l53 383q-37 -8 -65.5 -29.5t-48.5 -53t-30.5 -70t-10.5 -79.5z" />
    <glyph glyph-name="Euro" unicode="&#x20ac;" 
d="M460 454q15 0 12 -14l-4 -26q-3 -14 -15 -14h-245q-4 -17 -7 -42t-4 -45h231q7 0 10.5 -3t1.5 -12l-4 -26q-2 -8 -5.5 -10.5t-9.5 -2.5h-224q0 -94 38.5 -148.5t114.5 -54.5q29 0 58 7.5t59 20.5q8 4 12 1t6 -8l11 -28q2 -7 1 -11.5t-9 -9.5q-30 -16 -67.5 -27t-85.5 -11
q-57 0 -97.5 22t-67 59t-39.5 85.5t-14 102.5h-78q-14 0 -12 14l4 26q1 14 16 14h72q2 23 5 45.5t7 41.5h-60q-7 0 -10.5 3t-1.5 12l4 26q1 13 16 13h65q16 62 44.5 113t66.5 88q37 35 82.5 55t99.5 20q35 0 71.5 -11.5t65.5 -32.5q12 -8 5 -21l-13 -26q-5 -10 -10 -11
t-15 4q-59 33 -110 33q-145 0 -210 -211h239z" />
    <glyph glyph-name="florin" unicode="&#x192;" 
d="M244 432l13 47q11 42 28 86.5t43 81t63.5 60t90.5 23.5q21 0 38.5 -4.5t27.5 -9.5q7 -4 7 -8t-2 -10l-15 -32q-4 -7 -7.5 -7.5t-11.5 1.5q-9 3 -21 5.5t-23 2.5q-27 0 -49 -13.5t-39 -37t-30.5 -56.5t-23.5 -72l-15 -57h125q15 0 12 -14l-4 -29q-1 -14 -16 -14h-132
l-55 -215q-16 -62 -35.5 -112t-45 -85t-57.5 -54t-72 -19q-23 0 -44.5 5t-36.5 13q-9 5 -4 18l14 30q4 8 8 8.5t11 -2.5q11 -5 24.5 -7.5t30.5 -2.5q46 0 75.5 48t54.5 145l59 230h-108q-13 0 -12 14l4 29q3 14 16 14h114z" />
    <glyph glyph-name="sterling" unicode="&#xa3;" 
d="M49 73q50 27 71.5 70.5t29.5 102.5l14 101h-84q-13 0 -12 14l5 28q1 14 15 14h84l14 99q8 57 24.5 100.5t44.5 73t67.5 45t93.5 15.5q39 0 73 -10t56 -23q8 -5 7.5 -8.5t-5.5 -11.5l-17 -29q-8 -14 -23 -6q-17 10 -42.5 17t-52.5 7q-36 0 -62 -11.5t-44 -33.5
t-28.5 -52.5t-15.5 -69.5l-14 -102h191q16 0 13 -14l-5 -28q-3 -14 -16 -14h-191l-14 -101q-5 -37 -13.5 -64t-20.5 -48t-28 -37t-37 -31h331q13 0 12 -15l-5 -37q-2 -9 -5.5 -11.5t-10.5 -2.5h-408q-15 0 -12 14l4 33q2 11 4.5 16t11.5 10z" />
    <glyph glyph-name="yen" unicode="&#xa5;" 
d="M288 186l-24 -170q-2 -16 -19 -16h-39q-17 0 -15 16l24 170h-137q-15 0 -12 14l3 27q3 14 16 14h138l6 43l-12 44h-120q-13 0 -12 14l4 27q1 14 16 14h96l-89 322q-3 15 12 15h39q11 0 15.5 -2t6.5 -10l90 -342l189 340q5 8 9.5 11t13.5 3h46q17 0 8 -16l-182 -321h100
q13 0 12 -14l-4 -27q-1 -14 -16 -14h-123l-26 -47l-6 -40h145q15 0 12 -14l-3 -27q-3 -14 -16 -14h-146z" />
    <glyph glyph-name="uni20B9" unicode="&#x20b9;" 
d="M449 488q-21 -94 -87.5 -140t-165.5 -47l231 -283q13 -18 -13 -18h-49q-14 0 -19.5 3t-13.5 11l-223 274q-5 6 -8 10.5t-3 10.5q0 3 0.5 8.5t1.5 11.5l2 19q1 16 18 16h70q79 0 122.5 33t58.5 91h-249q-11 0 -11.5 4t2.5 12l15 30q5 11 9.5 13.5t18.5 2.5h223q0 23 -6 43
t-22 36q-15 15 -36.5 21t-53.5 6h-115q-11 0 -11.5 4t2.5 12l14 32q5 11 10 13.5t19 2.5h372q11 0 12 -4t-3 -12l-14 -32q-5 -11 -9.5 -13.5t-18.5 -2.5h-109q20 -17 32.5 -44.5t12.5 -61.5h75q10 0 11 -4t-2 -12l-15 -30q-5 -11 -9 -13.5t-18 -2.5h-48z" />
    <glyph glyph-name="uni20AE" unicode="&#x20ae;" 
d="M301 245l-32 -229q-3 -16 -20 -16h-43q-17 0 -14 16l25 179l-142 -84q-13 -7 -11 5l7 48q1 14 13 21l144 85l13 92l-142 -84q-14 -9 -12 5l7 48q1 15 13 21l144 85l32 218h-185q-19 0 -16 17l6 32q3 16 20 16h439q19 0 16 -17l-6 -32q-3 -16 -20 -16h-178l-24 -169
l144 85q13 7 11 -5l-6 -46q-3 -15 -13 -21l-146 -87l-13 -93l143 85q13 7 12 -5l-7 -46q-1 -15 -13 -21z" />
    <glyph glyph-name="uni20B1" unicode="&#x20b1;" 
d="M109 470l9 60h-52q-15 0 -12 14l4 29q1 14 16 14h52l16 117q3 16 19 16h111q73 0 124 -16t77 -45q14 -14 23.5 -32t13.5 -40h54q13 0 12 -14l-4 -29q-3 -14 -16 -14h-44q-2 -17 -4 -32.5t-6 -27.5h45q15 0 12 -14l-4 -29q-1 -14 -16 -14h-57q-11 -25 -26 -45t-34 -36
q-33 -28 -75.5 -42t-105.5 -14q-20 0 -44.5 3t-40.5 7l-38 -270q-2 -16 -19 -16h-39q-17 0 -15 16l56 397h-52q-13 0 -12 14l4 29q3 14 16 14h52zM427 470q5 14 7.5 30t2.5 30h-246l-9 -60h245zM244 336q46 0 89 15.5t71 61.5h-230l-10 -67q16 -5 39.5 -7.5t40.5 -2.5z
M209 659l-10 -72h232q-8 23 -24 37t-37 22t-45.5 10.5t-48.5 2.5h-67z" />
    <glyph glyph-name="won" unicode="&#x20a9;" horiz-adv-x="935" 
d="M106 462l-32 240q-3 18 17 18h44q11 0 14.5 -3t4.5 -13l28 -242h195l93 242q4 9 9.5 12.5t16.5 3.5h58q11 0 16 -3t6 -13l25 -242h194l94 242q4 10 10 13t17 3h38q19 0 12 -18l-99 -240h69q15 0 12 -14l-4 -30q-1 -14 -16 -14h-84l-40 -98h111q13 0 12 -14l-5 -30
q-1 -14 -16 -14h-126l-94 -232q-6 -16 -26 -16h-58q-11 0 -16 3t-6 13l-25 232h-190l-92 -230q-4 -9 -9.5 -13.5t-16.5 -4.5h-57q-11 0 -16 3t-7 13l-31 232h-121q-13 0 -12 14l5 30q1 14 16 14h104l-14 98h-79q-13 0 -12 14l4 30q3 14 16 14h63zM354 404h-166l12 -98h117z
M772 404h-165l10 -98h117zM548 306l-10 98h-112l-38 -98h160zM712 248h-89q5 -51 9 -96t7 -85zM227 69q14 38 31.5 85t35.5 94h-88zM514 630q-15 -42 -31.5 -83t-33.5 -85h83q-5 45 -10 86.5t-8 81.5z" />
    <glyph glyph-name="lira" unicode="&#x20a4;" 
d="M247 402l-10 -77h212q15 0 12 -14l-4 -29q-1 -14 -16 -14h-212l-3 -22q-5 -37 -13.5 -64t-20.5 -48t-28 -37t-37 -31h331q13 0 12 -15l-5 -37q-2 -9 -5.5 -11.5t-10.5 -2.5h-408q-13 0 -12 14l4 33q2 11 4.5 16t11.5 10q50 27 71.5 70.5t29.5 102.5l3 22h-77
q-13 0 -12 14l4 29q3 14 16 14h77l11 77h-77q-13 0 -12 14l4 29q1 14 16 14h77l6 43q16 117 69 175.5t161 58.5q39 0 73 -10t56 -23q8 -5 7.5 -8.5t-5.5 -11.5l-17 -29q-8 -14 -23 -6q-17 10 -42.5 17t-52.5 7q-36 0 -62 -11.5t-44 -33.5t-28.5 -52.5t-15.5 -69.5l-7 -46
h213q13 0 12 -14l-4 -29q-1 -14 -16 -14h-213z" />
    <glyph glyph-name="uni20B4" unicode="&#x20b4;" 
d="M168 325q25 21 51.5 39.5t53.5 37.5h-194q-13 0 -12 14l4 29q1 14 16 14h262q28 23 45.5 49.5t17.5 61.5q0 24 -10 41.5t-26.5 29.5t-39 17.5t-47.5 5.5q-32 0 -68 -9.5t-65 -23.5q-9 -5 -13 -3.5t-8 11.5l-10 25q-4 9 -2.5 13.5t8.5 8.5q34 19 80.5 31.5t94.5 12.5
q40 0 73.5 -10.5t57 -30t36.5 -47t13 -61.5t-12.5 -65.5t-38.5 -56.5h49q13 0 12 -14l-4 -29q-1 -14 -16 -14h-100q-27 -20 -55.5 -38.5t-56.5 -38.5h201q15 0 12 -14l-4 -29q-1 -14 -16 -14h-262q-25 -23 -39.5 -51.5t-14.5 -65.5q0 -24 10 -42t26.5 -30t38.5 -17.5
t47 -5.5q65 0 133 30q8 4 13 3.5t10 -10.5l8 -23q5 -9 3 -13.5t-9 -8.5q-35 -21 -79 -32.5t-92 -11.5q-86 0 -135 40.5t-49 110.5q0 34 13.5 67t37.5 60h-57q-13 0 -12 14l4 29q3 14 16 14h100z" />
    <glyph glyph-name="dong" unicode="&#x20ab;" 
d="M234 162q49 0 80.5 29.5t41.5 98.5l22 156q-17 14 -39 21.5t-45 7.5q-39 0 -67.5 -16.5t-48 -43.5t-29 -61.5t-9.5 -70.5q0 -57 23 -89t71 -32zM417 55q15 0 12 -16l-3 -24q-2 -9 -5 -12t-11 -3h-359q-8 0 -11 3t-1 12l3 24q2 9 5 12.5t11 3.5h359zM406 642l9 63
q1 15 18 15h38q9 0 12 -3.5t2 -11.5l-9 -63h36q8 0 10.5 -2.5t1.5 -10.5l-3 -24q-2 -9 -5.5 -12t-11.5 -3h-36l-53 -382q-4 -27 -0.5 -35.5t19.5 -8.5q8 0 10 -3t1 -11l-4 -28q-2 -9 -11 -12.5t-32 -3.5q-21 0 -36.5 14t-17.5 40q-23 -28 -53.5 -45t-68.5 -17
q-40 0 -69.5 13.5t-48.5 37.5t-28 57t-9 73q0 49 14.5 95.5t43 82.5t70 58t96.5 22q26 0 52 -7t44 -21l11 81h-139q-8 0 -10.5 3t-0.5 12l3 24q1 8 4.5 10.5t11.5 2.5h139z" />
    <glyph glyph-name="uni20BA" unicode="&#x20ba;" 
d="M241 268l-29 -201q82 6 142.5 49.5t101.5 114.5q7 14 21 8l31 -11q12 -4 4 -20q-26 -51 -62.5 -90t-80.5 -65.5t-93 -39.5t-98 -13h-35q-18 0 -15 16l30 214l-106 -51q-6 -3 -9.5 0.5t-2.5 9.5l6 40q1 8 3.5 10.5t9.5 5.5l108 51l13 91l-106 -51q-14 -7 -12 9l6 40
q1 8 3.5 11t9.5 6l108 51l36 251q3 16 20 16h43q17 0 14 -16l-30 -213l180 84q14 7 11 -11l-5 -36q-1 -7 -3 -10t-10 -7l-182 -86l-13 -91l180 84q13 6 11 -11l-5 -36q-1 -6 -3 -9.5t-10 -7.5z" />
    <glyph glyph-name="uni0E3F" unicode="&#xe3f;" 
d="M307 720l11 74q2 14 17 14h29q15 0 13 -14l-11 -77q67 -8 108 -47t41 -105q0 -30 -8 -58.5t-24 -54t-39 -45.5t-54 -32q53 -17 84 -52.5t31 -97.5q0 -94 -64 -153t-176 -70l-10 -76q-2 -14 -17 -14h-29q-15 0 -13 14l10 74h-150q-20 0 -17 17l97 687q2 8 5.5 12t13.5 4
h152zM426 221q0 48 -27 80t-86 39l-39 -275q77 8 114.5 49t37.5 107zM122 65h93l39 275h-92zM170 402h93l35 253h-93zM437 551q0 42 -20.5 69t-60.5 33l-34 -246q60 11 87.5 50.5t27.5 93.5z" />
    <glyph glyph-name="numbersign" unicode="#" 
d="M524 493h76q11 0 8 -14l-8 -30q-2 -8 -5 -11t-11 -3h-88l-72 -145h78q13 0 8 -14l-9 -30q-2 -8 -5 -11t-11 -3h-89l-73 -147q-3 -7 -6.5 -9.5t-12.5 -2.5h-34q-15 0 -8 14l71 145h-128l-73 -147q-3 -7 -6.5 -9.5t-12.5 -2.5h-34q-15 0 -8 14l71 145h-77q-8 0 -9.5 3.5
t0.5 10.5l9 30q3 8 5.5 11t10.5 3h89l72 145h-77q-13 0 -8 14l8 30q3 14 16 14h89l70 142q4 8 7 10t12 2h34q8 0 10.5 -3t-1.5 -11l-69 -140h128l70 142q3 8 6.5 10t12.5 2h34q8 0 11 -2.5t-2 -11.5zM361 290l72 145h-128l-72 -145h128z" />
    <glyph glyph-name="percent" unicode="%" horiz-adv-x="866" 
d="M258 675q-31 0 -52.5 -19t-35.5 -47.5t-20.5 -63t-6.5 -65.5q0 -101 73 -101q31 0 53 19t35.5 47.5t19.5 62.5t6 65q0 102 -72 102zM267 730q64 0 99.5 -37.5t35.5 -114.5q0 -46 -12 -91.5t-36 -82t-61 -59t-87 -22.5q-63 0 -99 38t-36 116q0 46 12 91t36 81t61 58.5
t87 22.5zM253 -7q-7 -11 -21 -11h-35q-17 0 -9 13l437 731q7 11 21 11h35q17 0 9 -13zM665 342q-31 0 -52.5 -19t-35.5 -47.5t-20.5 -63t-6.5 -65.5q0 -101 73 -101q31 0 53 19t35.5 47.5t19.5 62.5t6 65q0 102 -72 102zM674 397q64 0 99.5 -37.5t35.5 -114.5
q0 -46 -12 -91.5t-36 -82t-61 -59t-87 -22.5q-63 0 -99 38t-36 116q0 46 11 91t34.5 81t60.5 58.5t90 22.5z" />
    <glyph glyph-name="perthousand" unicode="&#x2030;" horiz-adv-x="1255" 
d="M258 675q-31 0 -52.5 -19t-35.5 -47.5t-20.5 -63t-6.5 -65.5q0 -101 73 -101q31 0 53 19t35.5 47.5t19.5 62.5t6 65q0 102 -72 102zM267 730q64 0 99.5 -37.5t35.5 -114.5q0 -46 -12 -91.5t-36 -82t-61 -59t-87 -22.5q-63 0 -99 38t-36 116q0 46 12 91t36 81t61 58.5
t87 22.5zM253 -7q-7 -11 -21 -11h-35q-17 0 -9 13l437 731q7 11 21 11h35q17 0 9 -13zM665 342q-31 0 -52.5 -19t-35.5 -47.5t-20.5 -63t-6.5 -65.5q0 -101 73 -101q31 0 53 19t35.5 47.5t19.5 62.5t6 65q0 102 -72 102zM674 397q64 0 99.5 -37.5t35.5 -114.5
q0 -46 -12 -91.5t-36 -82t-61 -59t-87 -22.5q-63 0 -99 38t-36 116q0 46 11 91t34.5 81t60.5 58.5t90 22.5zM1054 342q-31 0 -52.5 -19t-35.5 -47.5t-20.5 -63t-6.5 -65.5q0 -101 73 -101q31 0 53 19t35.5 47.5t19.5 62.5t6 65q0 102 -72 102zM1063 397q64 0 99.5 -37.5
t35.5 -114.5q0 -46 -12 -91.5t-36 -82t-61 -59t-87 -22.5q-63 0 -99 38t-36 116q0 46 11 91t34.5 81t60.5 58.5t90 22.5z" />
    <glyph glyph-name="plus" unicode="+" horiz-adv-x="563" 
d="M249 340h-216q-13 0 -12 14l5 31q1 14 16 14h216l31 226q2 14 16 14h31q15 0 12 -14l-31 -226h216q13 0 12 -14l-5 -31q-1 -14 -16 -14h-216l-31 -226q-3 -14 -16 -14h-31q-15 0 -12 14z" />
    <glyph glyph-name="minus" unicode="&#x2212;" horiz-adv-x="563" 
d="M33 340q-13 0 -12 14l5 31q1 14 16 14h491q13 0 12 -14l-5 -31q-1 -14 -16 -14h-491z" />
    <glyph glyph-name="multiply" unicode="&#xd7;" horiz-adv-x="563" 
d="M282 328l-174 -153q-12 -9 -20 0l-19 22q-8 9 3 20l174 152l-131 153q-8 11 3 20l25 22q11 9 20 0l130 -153l175 153q12 9 20 0l19 -22q8 -9 -3 -20l-175 -153l132 -152q8 -11 -3 -20l-25 -22q-11 -9 -20 0z" />
    <glyph glyph-name="less" unicode="&#x3c;" horiz-adv-x="563" 
d="M42 384q2 8 4 12t9 7l477 245q14 7 17 -6l12 -29q2 -8 -1 -12t-10 -8l-437 -223l374 -218q14 -8 5 -20l-17 -25q-8 -12 -19 -6l-409 246q-8 5 -7 19z" />
    <glyph glyph-name="divide" unicode="&#xf7;" horiz-adv-x="563" 
d="M33 340q-13 0 -12 14l5 31q1 14 16 14h491q13 0 12 -14l-5 -31q-1 -14 -16 -14h-491zM220 125q-15 0 -13 14l10 68q2 14 17 14h64q16 0 14 -14l-10 -68q-2 -14 -18 -14h-64zM275 514q-15 0 -13 14l9 68q3 14 17 14h64q17 0 14 -14l-9 -68q-2 -14 -18 -14h-64z" />
    <glyph glyph-name="equal" unicode="=" horiz-adv-x="563" 
d="M51 456q-15 0 -12 14l4 31q1 14 16 14h491q13 0 12 -14l-4 -31q-3 -14 -16 -14h-491zM18 225q-13 0 -12 14l4 31q3 14 16 14h491q15 0 12 -14l-4 -31q-1 -14 -16 -14h-491z" />
    <glyph glyph-name="logicalnot" unicode="&#xac;" horiz-adv-x="563" 
d="M521 241q-2 -14 -16 -14h-31q-14 0 -12 14l31 215h-446q-14 0 -13 14l5 31q1 14 16 14h491q13 0 12 -14z" />
    <glyph glyph-name="greater" unicode="&#x3e;" horiz-adv-x="563" 
d="M553 365q-2 -8 -4 -12t-9 -7l-477 -245q-14 -7 -17 6l-12 29q-2 8 1 12t10 8l437 223l-374 218q-14 8 -5 20l17 25q8 12 19 6l409 -246q8 -5 7 -19z" />
    <glyph glyph-name="notequal" unicode="&#x2260;" horiz-adv-x="563" 
d="M446 515h128q13 0 12 -14l-4 -31q-3 -14 -16 -14h-162l-123 -172h260q15 0 12 -14l-4 -31q-1 -14 -16 -14h-294l-57 -80q-5 -7 -9 -9t-12 -2h-38q-16 0 -6 14l55 77h-130q-13 0 -12 14l4 31q3 14 16 14h164l123 172h-262q-15 0 -12 14l4 31q1 14 16 14h296l37 52
q5 7 8.5 9t11.5 2h39q16 0 6 -14z" />
    <glyph glyph-name="approxequal" unicode="&#x2248;" horiz-adv-x="563" 
d="M426 465q32 0 50.5 17.5t32.5 53.5q2 6 5 8.5t13 0.5l26 -6q11 -2 12.5 -5.5t-0.5 -9.5q-20 -61 -59.5 -88t-84.5 -27q-36 0 -63 12.5t-50.5 27.5t-45.5 27.5t-47 12.5q-29 0 -50.5 -16.5t-33.5 -54.5q-2 -6 -5.5 -8.5t-12.5 -0.5l-26 6q-11 2 -12.5 5t0.5 10
q20 62 60 88.5t89 26.5q37 0 63.5 -12.5t49 -27.5t43.5 -27.5t46 -12.5zM393 229q32 0 50.5 17.5t32.5 53.5q2 6 5 8.5t13 0.5l26 -6q11 -2 12.5 -5.5t-0.5 -9.5q-20 -61 -59.5 -88t-84.5 -27q-36 0 -63 12.5t-50.5 27.5t-45.5 27.5t-47 12.5q-29 0 -50.5 -16.5t-33.5 -54.5
q-2 -6 -5.5 -8.5t-12.5 -0.5l-26 6q-11 2 -12.5 5t0.5 10q20 62 60 88.5t89 26.5q37 0 63.5 -12.5t49 -27.5t43.5 -27.5t46 -12.5z" />
    <glyph glyph-name="plusminus" unicode="&#xb1;" horiz-adv-x="563" 
d="M11 0q-14 0 -11 14l3 31q1 14 16 14h491q13 0 12 -14l-4 -31q-3 -14 -16 -14h-491zM284 408h-216q-13 0 -12 14l4 31q3 14 16 14h216l32 226q2 14 16 14h31q14 0 12 -14l-32 -226h216q15 0 12 -14l-4 -31q-1 -14 -16 -14h-216l-32 -226q-2 -14 -16 -14h-31q-14 0 -12 14z
" />
    <glyph glyph-name="lessequal" unicode="&#x2264;" horiz-adv-x="563" 
d="M10 0q-12 0 -11 14l4 31q1 14 16 14h491q13 0 12 -14l-5 -31q-1 -14 -16 -14h-491zM72 446q2 8 4 12t9 7l477 246q14 7 17 -6l11 -28q2 -8 -1 -12t-10 -8l-436 -220l374 -220q7 -4 8.5 -8t-3.5 -12l-18 -28q-7 -13 -19 -6l-408 246q-10 5 -7 19z" />
    <glyph glyph-name="greaterequal" unicode="&#x2265;" horiz-adv-x="563" 
d="M10 0q-12 0 -11 14l4 31q1 14 16 14h491q13 0 12 -14l-5 -31q-1 -14 -16 -14h-491zM563 428q-3 -14 -13 -19l-478 -246q-13 -7 -17 6l-10 28q-4 13 11 20l436 220l-374 220q-7 4 -8.5 8t3.5 12l17 28q9 13 19 6l409 -246q9 -5 7 -19z" />
    <glyph glyph-name="asciicircum" unicode="^" horiz-adv-x="564" 
d="M351 730q10 0 13.5 -3.5t8.5 -12.5l146 -363q3 -8 -0.5 -13t-11.5 -5h-40q-11 0 -14 2t-6 10l-120 313l-208 -313q-6 -8 -9.5 -10t-14.5 -2h-40q-8 0 -10 5t4 13l248 363q6 9 11 12.5t15 3.5h28z" />
    <glyph glyph-name="asciitilde" unicode="~" horiz-adv-x="564" 
d="M405 380q26 0 46.5 16.5t32.5 54.5q2 6 5.5 8.5t13.5 0.5l26 -6q10 -2 12 -5.5t0 -9.5q-21 -63 -59.5 -92.5t-87.5 -29.5q-33 0 -59 13.5t-49 30t-45.5 30t-47.5 13.5q-63 0 -86 -71q-2 -6 -5.5 -8.5t-13.5 -0.5l-26 6q-10 2 -12 5t0 10q23 66 62 94t88 28q35 0 62 -13.5
t51 -30t46 -30t46 -13.5z" />
    <glyph glyph-name="lozenge" unicode="&#x25ca;" horiz-adv-x="563" 
d="M251 82l212 277l-130 279h-1l-214 -281l132 -275h1zM280 9q-6 -9 -17 -9h-44q-8 0 -11.5 2t-6.5 7l-150 305q-3 8 -4.5 14.5t0.5 16.5l4 27q2 11 5 17.5t8 14.5l236 307q5 5 8.5 7t11.5 2h44q11 0 15 -9l150 -307q7 -13 4 -31l-4 -27q-2 -11 -5 -17.5t-8 -14.5z" />
    <glyph glyph-name="degree" unicode="&#xb0;" horiz-adv-x="348" 
d="M179 444q-57 0 -92 30.5t-35 87.5q0 34 12.5 65t35 53.5t54.5 36t70 13.5q57 0 91 -31t34 -89q0 -35 -12 -65t-34 -52.5t-53.5 -35.5t-70.5 -13zM186 503q45 0 68.5 30t23.5 74q0 29 -15.5 46.5t-46.5 17.5q-44 0 -69 -30t-25 -74q0 -64 64 -64z" />
    <glyph glyph-name="quotesingle" unicode="'" horiz-adv-x="234" 
d="M119 451q-15 0 -12 13l24 238q2 10 6.5 14t15.5 4h44q11 0 14.5 -4t1.5 -14l-41 -238q-3 -13 -16 -13h-37z" />
    <glyph glyph-name="quotedbl" unicode="&#x22;" horiz-adv-x="414" 
d="M119 451q-15 0 -12 13l24 238q2 10 6.5 14t15.5 4h44q11 0 14.5 -4t1.5 -14l-41 -238q-3 -13 -16 -13h-37zM299 451q-15 0 -12 13l24 238q2 10 6.5 14t15.5 4h44q11 0 14.5 -4t1.5 -14l-41 -238q-3 -13 -16 -13h-37z" />
    <glyph glyph-name="radical" unicode="&#x221a;" horiz-adv-x="630" 
d="M143 506h-74q-15 0 -12 15l4 30q1 15 16 15h111q14 0 18 -3t6 -14l83 -470l378 825q6 10 16 10h47q7 0 10.5 -1t-0.5 -9l-412 -894q-5 -10 -17 -10h-63q-8 0 -10 2t-4 7z" />
    <glyph glyph-name="currency" unicode="&#xa4;" horiz-adv-x="565" 
d="M487 407q0 -55 -17.5 -105.5t-56.5 -91.5l51 -118q5 -11 -8 -11h-52q-9 0 -12 2t-7 10l-34 74q-38 -16 -84 -16q-42 0 -70 15l-55 -73q-5 -8 -8.5 -10t-12.5 -2h-55q-15 0 -6 11l86 119q-11 19 -17.5 46t-6.5 56q0 54 19.5 108t54.5 88l-52 118q-6 11 9 11h53q9 0 12 -2
t6 -10l34 -74q36 16 83 16q41 0 71 -15l54 73q6 8 9.5 10t12.5 2h55q14 0 5 -11l-85 -118q12 -19 18 -46t6 -56zM279 214q36 0 62.5 17t43 44t24.5 60.5t8 66.5q0 43 -21.5 73t-66.5 30q-35 0 -61 -17t-43 -43.5t-25.5 -59.5t-8.5 -64q0 -46 20.5 -76.5t67.5 -30.5z" />
    <glyph glyph-name="infinity" unicode="&#x221e;" horiz-adv-x="806" 
d="M367 329q-26 41 -57.5 70t-78.5 29q-23 0 -44 -8t-37 -23t-25 -36t-9 -46q0 -38 26 -61t68 -23q45 0 83 28t74 70zM399 286q-47 -56 -95.5 -85t-106.5 -29q-30 0 -56.5 9t-46 26t-31 43t-11.5 59q0 35 13.5 67t38 56t58.5 38.5t75 14.5q58 0 99 -28t75 -86
q48 57 94.5 85.5t105.5 28.5q63 0 104.5 -35.5t41.5 -104.5q0 -36 -14 -67.5t-38.5 -55t-58.5 -36.5t-73 -13q-57 0 -97.5 28t-76.5 85zM444 330q29 -45 58 -72t74 -27q24 0 45.5 8t37 22.5t25 35t9.5 45.5q0 39 -26 62t-68 23q-46 0 -83 -27.5t-72 -69.5z" />
    <glyph glyph-name="uni00B5" unicode="&#xb5;" horiz-adv-x="566" 
d="M396 69q-31 -35 -74 -57t-90 -22q-42 0 -71 15t-46 39l-16 -118q-5 -42 -7.5 -78.5t-4.5 -65.5q-2 -15 -19 -15h-39q-17 0 -16 14q2 38 6.5 80.5t10.5 84.5l79 568q2 14 17 14h43q15 0 13 -14l-36 -255q-5 -32 -7.5 -57t-2.5 -48q0 -94 106 -94q38 0 67.5 11t52.5 36
q19 20 29.5 45.5t16.5 54.5t9.5 61t8.5 65l26 181q2 14 17 14h43q15 0 13 -14l-43 -302q-16 -113 -22 -198q-2 -14 -17 -14h-35q-15 0 -15 14q1 7 1 25.5t2 29.5z" />
    <glyph glyph-name="Ohm" unicode="&#x2126;" horiz-adv-x="726" 
d="M637 60q17 0 15 -16l-4 -28q-3 -16 -20 -16h-238q-16 0 -15 14l2 21q2 14 5 18.5t8 6.5q53 22 91.5 61t63 89.5t36.5 109t12 119.5q0 60 -13 102.5t-37 69.5t-56.5 40t-71.5 13q-65 0 -113.5 -33t-80 -86t-47 -119.5t-15.5 -132.5q0 -93 29.5 -149t85.5 -85q5 -2 7 -7.5
t0 -17.5l-3 -18q-3 -16 -15 -16h-238q-17 0 -14 16l4 28q2 16 19 16h145q-45 35 -72 89.5t-27 137.5q0 92 22.5 172.5t66 140.5t107 95t144.5 35q120 0 186 -74.5t66 -210.5q0 -62 -11.5 -120t-34.5 -108t-57.5 -90.5t-80.5 -66.5h149z" />
    <glyph glyph-name="glyph191" unicode="&#x2206;" horiz-adv-x="607" 
d="M517 120q4 -20 6 -32.5t3 -21.5t0.5 -15.5t-1.5 -14.5l-3 -20q-1 -16 -18 -16h-492q-15 0 -14 16l3 23q1 8 3 15t6 16t9.5 20.5t13.5 29.5l273 584q5 9 10 12.5t16 3.5h54q11 0 15.5 -3.5t6.5 -12.5zM85 66h357l-92 581z" />
    <glyph glyph-name="partialdiff" unicode="&#x2202;" horiz-adv-x="539" 
d="M215 -10q-92 0 -140 52t-48 140q0 50 15.5 97.5t46.5 85t75.5 60.5t103.5 23q42 0 80.5 -14t70.5 -37q3 49 -4 97t-26 85.5t-53 60.5t-85 23q-33 0 -60.5 -6t-48.5 -14q-11 -4 -14 -1t-5 10l-6 30q-2 10 -0.5 14t10.5 8q26 11 62.5 18.5t71.5 7.5q70 0 115.5 -25.5
t72.5 -69t38 -102.5t11 -126q0 -69 -14 -142.5t-46.5 -134.5t-87 -100.5t-135.5 -39.5zM222 57q83 0 129.5 70t63.5 202q-28 23 -65 38t-82 15q-42 0 -72.5 -16.5t-51 -43.5t-30.5 -62t-10 -72q0 -28 6.5 -52t20.5 -41.5t36.5 -27.5t54.5 -10z" />
    <glyph glyph-name="summation" unicode="&#x2211;" horiz-adv-x="555" 
d="M461 -101q18 0 15 -16l-5 -34q-3 -16 -19 -16h-486q-18 0 -15 16l4 27q2 12 7 19.5t17 20.5l352 372l-244 349q-8 13 -11.5 20.5t-3.5 16.5q0 4 1 13t3 19q3 14 19 14h474q18 0 15 -16l-5 -34q-3 -16 -19 -16h-394l221 -318q13 -19 15.5 -26.5t1.5 -13.5l-4 -21
q-3 -13 -22 -34l-326 -342h409z" />
    <glyph glyph-name="product" unicode="&#x220f;" horiz-adv-x="691" 
d="M510 -151q-3 -16 -19 -16h-43q-18 0 -15 16l113 805h-281l-113 -805q-3 -16 -19 -16h-43q-18 0 -15 16l113 805h-79q-17 0 -15 16l5 34q3 16 19 16h593q17 0 15 -16l-5 -34q-2 -16 -19 -16h-79z" />
    <glyph glyph-name="integral" unicode="&#x222b;" horiz-adv-x="355" 
d="M24 -82q40 0 64 18.5t37 49t17 69.5t4 79q0 37 -3 76.5t-7 79t-7 78.5t-3 76q0 59 8.5 111t30 91t59.5 61.5t97 22.5q20 0 35 -2.5t26 -6.5q9 -3 5 -16l-10 -34q-3 -10 -6 -12t-9 0q-20 6 -40 6q-41 0 -64.5 -19.5t-36 -50.5t-16 -70t-3.5 -79q0 -39 3.5 -76t7.5 -74.5
t7.5 -75.5t3.5 -77q0 -57 -9 -109t-31.5 -92.5t-62 -64.5t-100.5 -24q-17 0 -33 2.5t-27 6.5q-9 3 -5 16l9 34q3 10 6 12t9 0q10 -3 22 -4.5t22 -1.5z" />
    <glyph glyph-name="litre" unicode="&#x2113;" horiz-adv-x="227" 
d="M120 142q-6 -47 -6 -58q0 -16 7 -22t26 -6q14 0 13 -13l-3 -22q-1 -8 -3 -11t-8 -5q-13 -5 -39 -5q-32 0 -49.5 19.5t-17.5 48.5q0 14 2.5 39.5t10.5 78.5l47 330q9 64 14 106.5t7.5 69t3.5 40.5t1 20q2 14 15 14h45q13 0 13 -11q-1 -23 -7.5 -86.5t-20.5 -165.5z" />
    <glyph glyph-name="estimated" unicode="&#x212e;" horiz-adv-x="922" 
d="M462 -10q-85 0 -160 29t-131 79.5t-88.5 117.5t-32.5 144t32.5 144.5t88.5 117.5t131 79t160 29t159.5 -29t130 -79t88 -117.5t32.5 -144.5v-8h-666q-5 0 -5 -6v-202q0 -12 9 -24q48 -48 113 -78t140 -30q80 0 148 32.5t116 89.5h60q-57 -66 -141 -105t-184 -39zM716 371
q5 0 5 6v203q0 13 -10 25q-48 48 -112 75.5t-136 27.5q-75 0 -139 -29t-113 -77q-10 -10 -10 -26v-199q0 -6 5 -6h510z" />
    <glyph glyph-name="numero" unicode="&#x2116;" horiz-adv-x="1061" 
d="M1047 514q0 -43 -11 -88t-35 -82t-62 -61t-92 -24q-66 0 -99 42t-33 114q0 44 11.5 89t36 81.5t62 59.5t90.5 23q61 0 96.5 -39t35.5 -115zM859 318q33 0 55.5 18.5t37 46.5t21 60.5t6.5 60.5q2 51 -16.5 78t-58.5 27q-33 0 -56 -18.5t-37.5 -46.5t-21 -60.5t-6.5 -59.5
q0 -51 18.5 -78.5t57.5 -27.5zM189 605l-83 -589q-2 -9 -5.5 -12.5t-13.5 -3.5h-35q-19 0 -16 16l96 685q2 10 7 14.5t17 4.5h42q11 0 17 -3.5t11 -15.5l266 -588l82 591q2 9 5.5 12.5t13.5 3.5h35q19 0 16 -16l-97 -685q-2 -10 -6.5 -14.5t-16.5 -4.5h-43q-11 0 -16.5 4
t-10.5 15z" />
    <glyph glyph-name="ordfeminine" unicode="&#xaa;" horiz-adv-x="404" 
d="M296 358q-19 -28 -50 -44t-67 -16q-57 0 -93.5 38.5t-36.5 113.5q0 40 13 80.5t37 72t59 51.5t80 20q35 0 59.5 -12.5t38.5 -29.5l11 24q3 7 6 9t11 2h27q7 0 10 -2t1 -11q-2 -7 -4.5 -20t-5.5 -28.5t-5.5 -31.5t-4.5 -29l-13 -90q-6 -42 -9 -72t-5 -66q0 -12 -15 -12
h-33q-11 0 -11 11v42zM323 575q-11 19 -33 30t-50 11q-30 0 -52.5 -13.5t-38.5 -36t-24 -52t-8 -61.5q0 -45 20.5 -71.5t62.5 -26.5q20 0 37 8.5t31 21.5q17 17 27 41t15 62z" />
    <glyph glyph-name="ordmasculine" unicode="&#xba;" horiz-adv-x="400" 
d="M202 356q31 0 56 13.5t42 35.5t26 51t9 61q0 50 -24 74.5t-64 24.5q-31 0 -55.5 -14t-42 -36.5t-27 -51t-9.5 -58.5q-2 -51 23 -75.5t66 -24.5zM195 298q-69 0 -109.5 39t-40.5 113q0 42 14.5 82.5t42 72t66.5 50.5t89 19q69 0 107.5 -37.5t38.5 -110.5q0 -45 -14 -86.5
t-41 -73t-65.5 -50t-87.5 -18.5z" />
    <glyph glyph-name="onesuperior" unicode="&#xb9;" horiz-adv-x="294" 
d="M78 401q-10 0 -9 10l4 30q2 10 12 10h78l39 281l-84 -47q-12 -6 -17 4l-10 22q-5 11 6 17l102 59q9 5 15.5 7t17.5 2h28q8 0 10 -3.5t1 -8.5l-47 -333h73q10 0 8 -10l-4 -30q-1 -10 -11 -10h-212z" />
    <glyph glyph-name="twosuperior" unicode="&#xb2;" horiz-adv-x="305" 
d="M54 401q-11 0 -9 12l3 17q6 32 21 56.5t35 45t43 37t45 32.5q30 22 52 44.5t22 53.5q0 23 -15.5 35.5t-43.5 12.5q-20 0 -45 -7.5t-42 -18.5q-8 -5 -12 -3t-6 7l-8 24q-5 11 6 17q26 15 57 24.5t66 9.5q47 0 78 -24t31 -69q0 -26 -9 -46.5t-23.5 -37.5t-33 -31.5
t-37.5 -28.5q-33 -24 -64.5 -49t-48.5 -63h177q9 0 8 -10l-4 -30q-1 -10 -11 -10h-232z" />
    <glyph glyph-name="threesuperior" unicode="&#xb3;" horiz-adv-x="315" 
d="M135 609q2 8 4.5 14t13.5 17l99 106h-147q-9 0 -8 10l4 30q1 10 11 10h207q7 0 9.5 -1.5t1.5 -9.5l-2 -12q-2 -11 -7.5 -20.5t-25.5 -30.5l-85 -90q46 -3 72.5 -28t26.5 -67q0 -33 -12.5 -59t-33.5 -44t-48.5 -27.5t-57.5 -9.5q-38 0 -66.5 9.5t-48.5 20.5q-5 3 -4 8
t4 10l11 21q7 12 17 7q16 -9 40 -16.5t47 -7.5q35 0 62.5 21.5t27.5 62.5q0 22 -13 35q-10 11 -29 14.5t-46 3.5h-16q-11 0 -10 10z" />
    <glyph glyph-name="fraction" unicode="&#x2044;" horiz-adv-x="338" 
d="M-13 -7q-7 -11 -21 -11h-35q-17 0 -9 13l437 731q7 11 21 11h35q17 0 9 -13z" />
    <glyph glyph-name="onehalf" unicode="&#xbd;" horiz-adv-x="885" 
d="M99 336q-10 0 -9 10l4 28q1 10 11 10h80l40 281l-86 -47q-10 -6 -16 4l-10 20q-6 11 5 17l105 58q8 5 15 7t19 2h27q8 0 9.5 -4t0.5 -9l-46 -329h54q10 0 9 -10l-4 -28q-1 -10 -11 -10h-197zM512 0q-10 0 -8 12l2 16q4 35 22.5 62t43.5 48.5t52.5 39.5t50.5 36t38.5 37
t15.5 43q0 26 -18.5 37.5t-41.5 11.5t-46.5 -6.5t-40.5 -15.5q-13 -6 -17 4l-9 24q-4 11 7 17q23 13 53 22t65 9q48 0 80.5 -24.5t32.5 -72.5q0 -32 -14 -55.5t-35 -43t-47 -36.5t-50 -34t-43.5 -36t-27.5 -43h180q9 0 8 -10l-4 -32q-1 -10 -12 -10h-237zM253 -7
q-7 -11 -21 -11h-35q-17 0 -9 13l437 731q7 11 21 11h35q17 0 9 -13z" />
    <glyph glyph-name="onequarter" unicode="&#xbc;" horiz-adv-x="885" 
d="M723 92l-11 -80q-1 -12 -19 -12h-25q-17 0 -16 12l11 80h-167q-18 0 -17 14l2 14q2 11 6 19.5t15 25.5l138 219q5 7 8.5 8.5t11.5 1.5h31q9 0 13.5 -2.5t-0.5 -9.5l-158 -242h124l13 86q1 12 19 12h25q17 0 16 -12l-13 -86h38q10 0 9 -10l-4 -28q-1 -10 -11 -10h-39z
M99 336q-10 0 -9 10l4 28q1 10 11 10h80l40 281l-86 -47q-10 -6 -16 4l-10 20q-6 11 5 17l105 58q8 5 15 7t19 2h27q8 0 9.5 -4t0.5 -9l-46 -329h54q10 0 9 -10l-4 -28q-1 -10 -11 -10h-197zM253 -7q-7 -11 -21 -11h-35q-17 0 -9 13l437 731q7 11 21 11h35q17 0 9 -13z" />
    <glyph glyph-name="threequarters" unicode="&#xbe;" horiz-adv-x="885" 
d="M723 92l-11 -80q-1 -12 -19 -12h-25q-17 0 -16 12l11 80h-167q-18 0 -17 14l2 14q2 11 6 19.5t15 25.5l138 219q5 7 8.5 8.5t11.5 1.5h31q9 0 13.5 -2.5t-0.5 -9.5l-158 -242h124l13 86q1 12 19 12h25q17 0 16 -12l-13 -86h38q10 0 9 -10l-4 -28q-1 -10 -11 -10h-39z
M142 678q-9 0 -8 10l4 32q2 10 12 10h198q7 0 9.5 -1.5t0.5 -9.5l-2 -15q-1 -8 -7.5 -17t-20.5 -26l-77 -93q51 -2 75.5 -28t24.5 -68q0 -33 -11 -59.5t-31 -44.5t-47 -28t-60 -10q-35 0 -63 8t-46 19q-9 5 -3 19l9 21q5 12 17 7q17 -8 40 -15t50 -7q39 0 62 21.5t23 54.5
q0 39 -22 51.5t-61 12.5h-22q-13 0 -12 11l1 12q1 8 4.5 13.5t13.5 17.5l84 102h-135zM253 -7q-7 -11 -21 -11h-35q-17 0 -9 13l437 731q7 11 21 11h35q17 0 9 -13z" />
    <glyph glyph-name="Agrave" unicode="&#xc0;" horiz-adv-x="621" 
d="M436 188h-296l-78 -170q-5 -11 -11 -14.5t-17 -3.5h-42q-19 0 -10 18l328 685q8 17 23 17h56q18 0 21 -17l142 -685q4 -18 -11 -18h-51q-19 0 -22 18zM170 256h254l-71 389zM362 773q-11 0 -15 8l-71 119q-7 13 6 13h66q8 0 11 -1.5t6 -8.5l48 -120q3 -10 -8 -10h-43z
" />
    <glyph glyph-name="Aacute" unicode="&#xc1;" horiz-adv-x="621" 
d="M436 188h-296l-78 -170q-5 -11 -11 -14.5t-17 -3.5h-42q-19 0 -10 18l328 685q8 17 23 17h56q18 0 21 -17l142 -685q4 -18 -11 -18h-51q-19 0 -22 18zM170 256h254l-71 389zM329 773q-11 0 -4 10l83 120q5 7 8 8.5t11 1.5h67q5 0 6.5 -3.5t-4.5 -9.5l-103 -119
q-7 -8 -17 -8h-47z" />
    <glyph glyph-name="Acircumflex" unicode="&#xc2;" horiz-adv-x="621" 
d="M436 188h-296l-78 -170q-5 -11 -11 -14.5t-17 -3.5h-42q-19 0 -10 18l328 685q8 17 23 17h56q18 0 21 -17l142 -685q4 -18 -11 -18h-51q-19 0 -22 18zM170 256h254l-71 389zM519 807q5 -6 -3 -16l-18 -20q-10 -10 -18 -1l-96 94l-129 -95q-10 -8 -18 1l-18 23q-7 9 1 16
l105 95q8 7 13 9.5t14 2.5h67q9 0 13 -2.5t10 -9.5z" />
    <glyph glyph-name="Atilde" unicode="&#xc3;" horiz-adv-x="621" 
d="M436 188h-296l-78 -170q-5 -11 -11 -14.5t-17 -3.5h-42q-19 0 -10 18l328 685q8 17 23 17h56q18 0 21 -17l142 -685q4 -18 -11 -18h-51q-19 0 -22 18zM170 256h254l-71 389zM519 844q-20 -20 -42 -32t-46 -12q-19 0 -32.5 5t-26 11.5t-25.5 11.5t-31 5q-20 0 -34 -9.5
t-24 -18.5q-8 -7 -14 0l-23 33q-2 5 -0.5 6t7.5 7q14 16 38.5 30t52.5 14q19 0 33.5 -5t27.5 -11t26.5 -11t29.5 -5q18 0 29 8t22 19q8 8 14 0l20 -28q7 -8 -2 -18z" />
    <glyph glyph-name="Adieresis" unicode="&#xc4;" horiz-adv-x="621" 
d="M436 188h-296l-78 -170q-5 -11 -11 -14.5t-17 -3.5h-42q-19 0 -10 18l328 685q8 17 23 17h56q18 0 21 -17l142 -685q4 -18 -11 -18h-51q-19 0 -22 18zM170 256h254l-71 389zM247 784q-14 0 -12 13l9 66q3 13 16 13h61q17 0 14 -13l-9 -66q-2 -13 -18 -13h-61zM435 784
q-15 0 -13 13l9 66q3 13 17 13h61q16 0 13 -13l-9 -66q-2 -13 -17 -13h-61z" />
    <glyph glyph-name="Amacron" unicode="&#x100;" horiz-adv-x="621" 
d="M436 188h-296l-78 -170q-5 -11 -11 -14.5t-17 -3.5h-42q-19 0 -10 18l328 685q8 17 23 17h56q18 0 21 -17l142 -685q4 -18 -11 -18h-51q-19 0 -22 18zM170 256h254l-71 389zM512 877q13 0 12 -14l-5 -37q-3 -14 -16 -14h-267q-15 0 -12 14l5 37q1 14 16 14h267z" />
    <glyph glyph-name="Abreve" unicode="&#x102;" horiz-adv-x="621" 
d="M436 188h-296l-78 -170q-5 -11 -11 -14.5t-17 -3.5h-42q-19 0 -10 18l328 685q8 17 23 17h56q18 0 21 -17l142 -685q4 -18 -11 -18h-51q-19 0 -22 18zM170 256h254l-71 389zM366 788q-57 0 -92.5 23t-35.5 75v4.5t1 7.5q1 10 14 10h41q10 0 10 -12q0 -57 67 -57
q33 0 56 14.5t31 42.5q3 12 14 12h42q11 0 10 -11q-12 -60 -53.5 -84.5t-104.5 -24.5z" />
    <glyph glyph-name="Acaron" unicode="&#x1cd;" horiz-adv-x="621" 
d="M436 188h-296l-78 -170q-5 -11 -11 -14.5t-17 -3.5h-42q-19 0 -10 18l328 685q8 17 23 17h56q18 0 21 -17l142 -685q4 -18 -11 -18h-51q-19 0 -22 18zM170 256h254l-71 389zM427 789q-8 -7 -13 -9.5t-14 -2.5h-68q-9 0 -13.5 3t-9.5 9l-80 99q-2 4 -2 7.5t5 8.5l23 21
q10 9 19 1l94 -97l130 97q9 8 17 -1l17 -21q6 -9 -1 -16z" />
    <glyph glyph-name="Aring" unicode="&#xc5;" horiz-adv-x="621" 
d="M436 188h-296l-78 -170q-5 -11 -11 -14.5t-17 -3.5h-42q-19 0 -10 18l328 685q8 17 23 17h56q18 0 21 -17l142 -685q4 -18 -11 -18h-51q-19 0 -22 18zM170 256h254l-71 389zM362 772q-35 0 -56 22.5t-21 53.5q0 18 8 34.5t22 29t31.5 19.5t37.5 7q32 0 54.5 -21.5
t22.5 -52.5q0 -19 -8 -35.5t-21.5 -29t-31.5 -20t-38 -7.5zM368 812q20 0 34 14.5t14 34.5q0 16 -10.5 26.5t-27.5 10.5q-18 0 -33 -13t-15 -36q0 -17 10.5 -27t27.5 -10z" />
    <glyph glyph-name="Aringacute" unicode="&#x1fa;" horiz-adv-x="621" 
d="M436 188h-296l-78 -170q-5 -11 -11 -14.5t-17 -3.5h-42q-19 0 -10 18l328 685q8 17 23 17h56q18 0 21 -17l142 -685q4 -18 -11 -18h-51q-19 0 -22 18zM170 256h254l-71 389zM363 748q-35 0 -56 22.5t-21 53.5q0 18 8 34.5t22 29t31.5 19.5t37.5 7q32 0 54.5 -21.5
t22.5 -52.5q0 -19 -8 -35.5t-21.5 -29t-31.5 -20t-38 -7.5zM369 788q20 0 34 14.5t14 34.5q0 16 -10.5 26.5t-27.5 10.5q-18 0 -33 -13t-15 -36q0 -17 10.5 -27t27.5 -10zM351 939q-11 0 -4 10l83 120q5 7 8 8.5t11 1.5h67q5 0 6.5 -3.5t-4.5 -9.5l-103 -119q-7 -8 -17 -8
h-47z" />
    <glyph glyph-name="Aogonek" unicode="&#x104;" horiz-adv-x="621" 
d="M448 -223q-50 0 -72.5 23.5t-22.5 55.5q0 42 28.5 82.5t87.5 72.5l-33 177h-296l-78 -170q-5 -11 -11 -14.5t-17 -3.5h-42q-19 0 -10 18l328 685q8 17 23 17h56q18 0 21 -17l142 -685q2 -8 -1 -11.5t-10 -6.5q-61 -24 -88 -58t-27 -66q0 -23 14 -32t33 -9q16 0 41 5
q12 3 12 -8v-30q0 -7 -1.5 -10t-9.5 -5q-14 -5 -31.5 -7.5t-35.5 -2.5zM170 256h254l-71 389z" />
    <glyph glyph-name="AE" unicode="&#xc6;" horiz-adv-x="880" 
d="M867 720q19 0 16 -17l-6 -32q-3 -16 -22 -16h-295l-37 -258h251q19 0 16 -17l-6 -32q-3 -16 -22 -16h-248l-37 -267h302q11 0 14.5 -4.5t1.5 -12.5l-6 -32q-3 -16 -22 -16h-357q-20 0 -17 17l25 180h-240l-126 -184q-9 -13 -27 -13h-46q-19 0 -9 15l486 693q5 7 12.5 9.5
t26.5 2.5h372zM223 261h204l52 370z" />
    <glyph glyph-name="AEacute" unicode="&#x1fc;" horiz-adv-x="880" 
d="M867 720q19 0 16 -17l-6 -32q-3 -16 -22 -16h-295l-37 -258h251q19 0 16 -17l-6 -32q-3 -16 -22 -16h-248l-37 -267h302q11 0 14.5 -4.5t1.5 -12.5l-6 -32q-3 -16 -22 -16h-357q-20 0 -17 17l25 180h-240l-126 -184q-9 -13 -27 -13h-46q-19 0 -9 15l486 693q5 7 12.5 9.5
t26.5 2.5h372zM223 261h204l52 370zM619 773q-11 0 -4 10l83 120q5 7 8 8.5t11 1.5h67q5 0 6.5 -3.5t-4.5 -9.5l-103 -119q-7 -8 -17 -8h-47z" />
    <glyph glyph-name="Cacute" unicode="&#x106;" horiz-adv-x="555" 
d="M391 664q-72 0 -122.5 -36.5t-82.5 -93t-47 -125.5t-15 -133q0 -50 10.5 -90.5t33.5 -69t58.5 -44t85.5 -15.5q35 0 70.5 8.5t66.5 22.5q12 6 16 -7l9 -30q4 -15 -6 -20q-41 -21 -86 -31t-95 -10q-62 0 -107.5 20t-75.5 57t-45 89t-15 116q0 77 20 158t63 148
t109.5 109.5t158.5 42.5q47 0 88 -12t70 -32q12 -7 5 -22l-13 -28q-5 -9 -11.5 -10t-14.5 4q-57 34 -128 34zM355 773q-11 0 -4 10l83 120q5 7 8 8.5t11 1.5h67q5 0 6.5 -3.5t-4.5 -9.5l-103 -119q-7 -8 -17 -8h-47z" />
    <glyph glyph-name="Ccedilla" unicode="&#xc7;" horiz-adv-x="555" 
d="M391 664q-72 0 -122.5 -36.5t-82.5 -93t-47 -125.5t-15 -133q0 -50 10.5 -90.5t33.5 -69t58.5 -44t85.5 -15.5q35 0 70.5 8.5t66.5 22.5q12 6 16 -7l9 -30q4 -15 -6 -20q-74 -38 -168 -41l-11 -43q5 1 14 1.5t16 0.5q33 0 57.5 -18.5t24.5 -54.5q0 -47 -34.5 -76
t-91.5 -29q-23 0 -42.5 4t-34.5 11q-11 5 -6 16l10 26q5 13 16 8t27.5 -9.5t31.5 -4.5q22 0 39 10t17 32q0 17 -13.5 24.5t-43.5 7.5q-11 0 -23 -0.5t-22 -1.5q-13 0 -10 11l23 88q-102 14 -151 87.5t-49 191.5q0 77 20 158t63 148t109.5 109.5t158.5 42.5q47 0 88 -12
t70 -32q12 -7 5 -22l-13 -28q-5 -9 -11.5 -10t-14.5 4q-57 34 -128 34z" />
    <glyph glyph-name="Ccircumflex" unicode="&#x108;" horiz-adv-x="555" 
d="M391 664q-72 0 -122.5 -36.5t-82.5 -93t-47 -125.5t-15 -133q0 -50 10.5 -90.5t33.5 -69t58.5 -44t85.5 -15.5q35 0 70.5 8.5t66.5 22.5q12 6 16 -7l9 -30q4 -15 -6 -20q-41 -21 -86 -31t-95 -10q-62 0 -107.5 20t-75.5 57t-45 89t-15 116q0 77 20 158t63 148
t109.5 109.5t158.5 42.5q47 0 88 -12t70 -32q12 -7 5 -22l-13 -28q-5 -9 -11.5 -10t-14.5 4q-57 34 -128 34zM559 807q5 -6 -3 -16l-18 -20q-10 -10 -18 -1l-96 94l-129 -95q-10 -8 -18 1l-18 23q-7 9 1 16l105 95q8 7 13 9.5t14 2.5h67q9 0 13 -2.5t10 -9.5z" />
    <glyph glyph-name="Ccaron" unicode="&#x10c;" horiz-adv-x="555" 
d="M391 664q-72 0 -122.5 -36.5t-82.5 -93t-47 -125.5t-15 -133q0 -50 10.5 -90.5t33.5 -69t58.5 -44t85.5 -15.5q35 0 70.5 8.5t66.5 22.5q12 6 16 -7l9 -30q4 -15 -6 -20q-41 -21 -86 -31t-95 -10q-62 0 -107.5 20t-75.5 57t-45 89t-15 116q0 77 20 158t63 148
t109.5 109.5t158.5 42.5q47 0 88 -12t70 -32q12 -7 5 -22l-13 -28q-5 -9 -11.5 -10t-14.5 4q-57 34 -128 34zM468 789q-8 -7 -13 -9.5t-14 -2.5h-68q-9 0 -13.5 3t-9.5 9l-80 99q-2 4 -2 7.5t5 8.5l23 21q10 9 19 1l94 -97l130 97q9 8 17 -1l17 -21q6 -9 -1 -16z" />
    <glyph glyph-name="Cdotaccent" unicode="&#x10a;" horiz-adv-x="555" 
d="M391 664q-72 0 -122.5 -36.5t-82.5 -93t-47 -125.5t-15 -133q0 -50 10.5 -90.5t33.5 -69t58.5 -44t85.5 -15.5q35 0 70.5 8.5t66.5 22.5q12 6 16 -7l9 -30q4 -15 -6 -20q-41 -21 -86 -31t-95 -10q-62 0 -107.5 20t-75.5 57t-45 89t-15 116q0 77 20 158t63 148
t109.5 109.5t158.5 42.5q47 0 88 -12t70 -32q12 -7 5 -22l-13 -28q-5 -9 -11.5 -10t-14.5 4q-57 34 -128 34zM373 795q-16 0 -13 13l9 66q2 13 17 13h61q15 0 13 -13l-9 -66q-3 -13 -17 -13h-61z" />
    <glyph glyph-name="Dcaron" unicode="&#x10e;" horiz-adv-x="636" 
d="M120 65h86q69 0 116.5 13t87.5 47q31 27 52 62t34.5 75t19.5 83.5t6 85.5q0 54 -12 95.5t-39.5 70t-73 43.5t-111.5 15h-83zM296 720q152 0 229 -67t77 -212q0 -49 -7.5 -98.5t-23.5 -97t-42.5 -90t-63.5 -76.5q-50 -44 -113.5 -61.5t-151.5 -17.5h-147q-20 0 -17 17
l97 687q2 8 5.5 12t13.5 4h144zM444 789q-8 -7 -13 -9.5t-14 -2.5h-68q-9 0 -13.5 3t-9.5 9l-80 99q-2 4 -2 7.5t5 8.5l23 21q10 9 19 1l94 -97l130 97q9 8 17 -1l17 -21q6 -9 -1 -16z" />
    <glyph glyph-name="Dcroat" unicode="&#x110;" horiz-adv-x="654" 
d="M314 720q152 0 229 -67t77 -212q0 -49 -7.5 -98.5t-23.5 -97t-42.5 -90t-63.5 -76.5q-50 -44 -113.5 -61.5t-151.5 -17.5h-147q-20 0 -17 17l45 318h-50q-15 0 -12 14l5 33q1 14 16 14h49l44 308q2 8 5.5 12t13.5 4h144zM184 396h187q13 0 12 -14l-5 -33q-3 -14 -16 -14
h-186l-38 -270h86q69 0 116.5 13t87.5 47q31 27 52 62t34.5 75t19.5 83.5t6 85.5q0 54 -12 95.5t-39.5 70t-73 43.5t-111.5 15h-83z" />
    <glyph glyph-name="Eth" unicode="&#xd0;" horiz-adv-x="654" 
d="M314 720q152 0 229 -67t77 -212q0 -49 -7.5 -98.5t-23.5 -97t-42.5 -90t-63.5 -76.5q-50 -44 -113.5 -61.5t-151.5 -17.5h-147q-20 0 -17 17l45 318h-50q-15 0 -12 14l5 33q1 14 16 14h49l44 308q2 8 5.5 12t13.5 4h144zM184 396h187q13 0 12 -14l-5 -33q-3 -14 -16 -14
h-186l-38 -270h86q69 0 116.5 13t87.5 47q31 27 52 62t34.5 75t19.5 83.5t6 85.5q0 54 -12 95.5t-39.5 70t-73 43.5t-111.5 15h-83z" />
    <glyph glyph-name="Egrave" unicode="&#xc8;" horiz-adv-x="523" 
d="M422 65q11 0 14.5 -4.5t1.5 -12.5l-6 -32q-3 -16 -22 -16h-357q-20 0 -17 17l97 687q2 8 5.5 12t13.5 4h358q19 0 16 -17l-6 -32q-3 -16 -22 -16h-295l-37 -258h251q19 0 16 -17l-6 -32q-3 -16 -22 -16h-248l-37 -267h302zM342 773q-11 0 -15 8l-71 119q-7 13 6 13h66
q8 0 11 -1.5t6 -8.5l48 -120q3 -10 -8 -10h-43z" />
    <glyph glyph-name="Eacute" unicode="&#xc9;" horiz-adv-x="523" 
d="M422 65q11 0 14.5 -4.5t1.5 -12.5l-6 -32q-3 -16 -22 -16h-357q-20 0 -17 17l97 687q2 8 5.5 12t13.5 4h358q19 0 16 -17l-6 -32q-3 -16 -22 -16h-295l-37 -258h251q19 0 16 -17l-6 -32q-3 -16 -22 -16h-248l-37 -267h302zM305 773q-11 0 -4 10l83 120q5 7 8 8.5t11 1.5
h67q5 0 6.5 -3.5t-4.5 -9.5l-103 -119q-7 -8 -17 -8h-47z" />
    <glyph glyph-name="Ecircumflex" unicode="&#xca;" horiz-adv-x="523" 
d="M422 65q11 0 14.5 -4.5t1.5 -12.5l-6 -32q-3 -16 -22 -16h-357q-20 0 -17 17l97 687q2 8 5.5 12t13.5 4h358q19 0 16 -17l-6 -32q-3 -16 -22 -16h-295l-37 -258h251q19 0 16 -17l-6 -32q-3 -16 -22 -16h-248l-37 -267h302zM503 807q5 -6 -3 -16l-18 -20q-10 -10 -18 -1
l-96 94l-129 -95q-10 -8 -18 1l-18 23q-7 9 1 16l105 95q8 7 13 9.5t14 2.5h67q9 0 13 -2.5t10 -9.5z" />
    <glyph glyph-name="Ecaron" unicode="&#x11a;" horiz-adv-x="523" 
d="M422 65q11 0 14.5 -4.5t1.5 -12.5l-6 -32q-3 -16 -22 -16h-357q-20 0 -17 17l97 687q2 8 5.5 12t13.5 4h358q19 0 16 -17l-6 -32q-3 -16 -22 -16h-295l-37 -258h251q19 0 16 -17l-6 -32q-3 -16 -22 -16h-248l-37 -267h302zM406 789q-8 -7 -13 -9.5t-14 -2.5h-68
q-9 0 -13.5 3t-9.5 9l-80 99q-2 4 -2 7.5t5 8.5l23 21q10 9 19 1l94 -97l130 97q9 8 17 -1l17 -21q6 -9 -1 -16z" />
    <glyph glyph-name="Edieresis" unicode="&#xcb;" horiz-adv-x="523" 
d="M422 65q11 0 14.5 -4.5t1.5 -12.5l-6 -32q-3 -16 -22 -16h-357q-20 0 -17 17l97 687q2 8 5.5 12t13.5 4h358q19 0 16 -17l-6 -32q-3 -16 -22 -16h-295l-37 -258h251q19 0 16 -17l-6 -32q-3 -16 -22 -16h-248l-37 -267h302zM213 784q-14 0 -12 13l9 66q3 13 16 13h61
q17 0 14 -13l-9 -66q-2 -13 -18 -13h-61zM401 784q-15 0 -13 13l9 66q3 13 17 13h61q16 0 13 -13l-9 -66q-2 -13 -17 -13h-61z" />
    <glyph glyph-name="Emacron" unicode="&#x112;" horiz-adv-x="523" 
d="M422 65q11 0 14.5 -4.5t1.5 -12.5l-6 -32q-3 -16 -22 -16h-357q-20 0 -17 17l97 687q2 8 5.5 12t13.5 4h358q19 0 16 -17l-6 -32q-3 -16 -22 -16h-295l-37 -258h251q19 0 16 -17l-6 -32q-3 -16 -22 -16h-248l-37 -267h302zM489 877q13 0 12 -14l-5 -37q-3 -14 -16 -14
h-267q-15 0 -12 14l5 37q1 14 16 14h267z" />
    <glyph glyph-name="Ebreve" unicode="&#x114;" horiz-adv-x="523" 
d="M422 65q11 0 14.5 -4.5t1.5 -12.5l-6 -32q-3 -16 -22 -16h-357q-20 0 -17 17l97 687q2 8 5.5 12t13.5 4h358q19 0 16 -17l-6 -32q-3 -16 -22 -16h-295l-37 -258h251q19 0 16 -17l-6 -32q-3 -16 -22 -16h-248l-37 -267h302zM342 788q-57 0 -92.5 23t-35.5 75v4.5t1 7.5
q1 10 14 10h41q10 0 10 -12q0 -57 67 -57q33 0 56 14.5t31 42.5q3 12 14 12h42q11 0 10 -11q-12 -60 -53.5 -84.5t-104.5 -24.5z" />
    <glyph glyph-name="Edotaccent" unicode="&#x116;" horiz-adv-x="523" 
d="M422 65q11 0 14.5 -4.5t1.5 -12.5l-6 -32q-3 -16 -22 -16h-357q-20 0 -17 17l97 687q2 8 5.5 12t13.5 4h358q19 0 16 -17l-6 -32q-3 -16 -22 -16h-295l-37 -258h251q19 0 16 -17l-6 -32q-3 -16 -22 -16h-248l-37 -267h302zM317 795q-16 0 -13 13l9 66q2 13 17 13h61
q15 0 13 -13l-9 -66q-3 -13 -17 -13h-61z" />
    <glyph glyph-name="Eogonek" unicode="&#x118;" horiz-adv-x="523" 
d="M422 65q11 0 14.5 -4.5t1.5 -12.5l-6 -32q-2 -8 -7.5 -10t-14.5 -6q-52 -22 -78.5 -58t-26.5 -66q0 -23 14 -32t33 -9q16 0 41 5q12 3 12 -8v-30q0 -7 -1.5 -10t-9.5 -5q-14 -5 -31.5 -7.5t-35.5 -2.5q-50 0 -72.5 23.5t-22.5 55.5q0 42 31.5 80.5t76.5 63.5h-287
q-20 0 -17 17l97 687q2 8 5.5 12t13.5 4h358q19 0 16 -17l-6 -32q-3 -16 -22 -16h-295l-37 -258h251q19 0 16 -17l-6 -32q-3 -16 -22 -16h-248l-37 -267h302z" />
    <glyph glyph-name="Gcircumflex" unicode="&#x11c;" horiz-adv-x="626" 
d="M342 320q-19 0 -16 17l5 31q3 16 21 16h202q12 0 16 -5t2 -15l-45 -309q-2 -10 -5.5 -15t-12.5 -9q-40 -18 -90 -29.5t-104 -11.5q-71 0 -122 20t-84 57.5t-49 90t-16 117.5q0 84 21 165.5t64.5 146t111.5 104t163 39.5q57 0 103.5 -15t77.5 -37q11 -8 4 -22l-14 -28
q-5 -8 -10.5 -8.5t-10.5 2.5q-32 20 -72.5 31t-85.5 11q-74 0 -125.5 -35t-84 -90.5t-47.5 -124t-15 -135.5q0 -51 11.5 -92t35.5 -70t62 -45t91 -16q34 0 69.5 6.5t62.5 17.5l34 240h-148zM564 807q5 -6 -3 -16l-18 -20q-10 -10 -18 -1l-96 94l-129 -95q-10 -8 -18 1
l-18 23q-7 9 1 16l105 95q8 7 13 9.5t14 2.5h67q9 0 13 -2.5t10 -9.5z" />
    <glyph glyph-name="Gbreve" unicode="&#x11e;" horiz-adv-x="626" 
d="M342 320q-19 0 -16 17l5 31q3 16 21 16h202q12 0 16 -5t2 -15l-45 -309q-2 -10 -5.5 -15t-12.5 -9q-40 -18 -90 -29.5t-104 -11.5q-71 0 -122 20t-84 57.5t-49 90t-16 117.5q0 84 21 165.5t64.5 146t111.5 104t163 39.5q57 0 103.5 -15t77.5 -37q11 -8 4 -22l-14 -28
q-5 -8 -10.5 -8.5t-10.5 2.5q-32 20 -72.5 31t-85.5 11q-74 0 -125.5 -35t-84 -90.5t-47.5 -124t-15 -135.5q0 -51 11.5 -92t35.5 -70t62 -45t91 -16q34 0 69.5 6.5t62.5 17.5l34 240h-148zM406 788q-57 0 -92.5 23t-35.5 75v4.5t1 7.5q1 10 14 10h41q10 0 10 -12
q0 -57 67 -57q33 0 56 14.5t31 42.5q3 12 14 12h42q11 0 10 -11q-12 -60 -53.5 -84.5t-104.5 -24.5z" />
    <glyph glyph-name="Gdotaccent" unicode="&#x120;" horiz-adv-x="626" 
d="M342 320q-19 0 -16 17l5 31q3 16 21 16h202q12 0 16 -5t2 -15l-45 -309q-2 -10 -5.5 -15t-12.5 -9q-40 -18 -90 -29.5t-104 -11.5q-71 0 -122 20t-84 57.5t-49 90t-16 117.5q0 84 21 165.5t64.5 146t111.5 104t163 39.5q57 0 103.5 -15t77.5 -37q11 -8 4 -22l-14 -28
q-5 -8 -10.5 -8.5t-10.5 2.5q-32 20 -72.5 31t-85.5 11q-74 0 -125.5 -35t-84 -90.5t-47.5 -124t-15 -135.5q0 -51 11.5 -92t35.5 -70t62 -45t91 -16q34 0 69.5 6.5t62.5 17.5l34 240h-148zM380 795q-16 0 -13 13l9 66q2 13 17 13h61q15 0 13 -13l-9 -66q-3 -13 -17 -13h-61
z" />
    <glyph glyph-name="Gcommaaccent" unicode="&#x122;" horiz-adv-x="626" 
d="M342 320q-19 0 -16 17l5 31q3 16 21 16h202q12 0 16 -5t2 -15l-45 -309q-2 -10 -5.5 -15t-12.5 -9q-40 -18 -90 -29.5t-104 -11.5q-71 0 -122 20t-84 57.5t-49 90t-16 117.5q0 84 21 165.5t64.5 146t111.5 104t163 39.5q57 0 103.5 -15t77.5 -37q11 -8 4 -22l-14 -28
q-5 -8 -10.5 -8.5t-10.5 2.5q-32 20 -72.5 31t-85.5 11q-74 0 -125.5 -35t-84 -90.5t-47.5 -124t-15 -135.5q0 -51 11.5 -92t35.5 -70t62 -45t91 -16q34 0 69.5 6.5t62.5 17.5l34 240h-148zM248 -278q-16 0 -10 14l39 112l-14 7q-9 5 -12 8.5t-1 13.5l7 55q3 14 17 14h67
q15 0 14 -14l-4 -33q-2 -12 -4.5 -22t-6.5 -21.5t-10 -25.5t-15 -33l-28 -63q-5 -12 -18 -12h-21v0z" />
    <glyph glyph-name="Hcircumflex" unicode="&#x124;" horiz-adv-x="645" 
d="M522 16q-3 -16 -20 -16h-43q-17 0 -14 16l45 316h-333l-44 -316q-3 -16 -20 -16h-43q-17 0 -14 16l97 688q3 16 20 16h43q17 0 14 -16l-44 -308h333l43 308q2 10 7 13t13 3h43q17 0 14 -16zM537 807q5 -6 -3 -16l-18 -20q-10 -10 -18 -1l-96 94l-129 -95q-10 -8 -18 1
l-18 23q-7 9 1 16l105 95q8 7 13 9.5t14 2.5h67q9 0 13 -2.5t10 -9.5z" />
    <glyph glyph-name="Hbar" unicode="&#x126;" horiz-adv-x="645" 
d="M603 591h53q15 0 12 -14l-4 -29q-1 -14 -16 -14h-53l-73 -518q-3 -16 -20 -16h-43q-17 0 -14 16l45 316h-333l-44 -316q-3 -16 -20 -16h-43q-17 0 -14 16l73 518h-55q-13 0 -12 14l4 29q3 14 16 14h55l16 113q3 16 20 16h43q17 0 14 -16l-17 -113h333l16 113q2 10 7 13
t13 3h43q17 0 14 -16zM499 396l19 138h-333l-19 -138h333z" />
    <glyph glyph-name="Igrave" unicode="&#xcc;" horiz-adv-x="248" 
d="M119 16q-3 -16 -20 -16h-43q-17 0 -14 16l97 688q3 16 20 16h43q17 0 14 -16zM187 773q-11 0 -15 8l-71 119q-7 13 6 13h66q8 0 11 -1.5t6 -8.5l48 -120q3 -10 -8 -10h-43z" />
    <glyph glyph-name="Iacute" unicode="&#xcd;" horiz-adv-x="248" 
d="M119 16q-3 -16 -20 -16h-43q-17 0 -14 16l97 688q3 16 20 16h43q17 0 14 -16zM138 773q-11 0 -4 10l83 120q5 7 8 8.5t11 1.5h67q5 0 6.5 -3.5t-4.5 -9.5l-103 -119q-7 -8 -17 -8h-47z" />
    <glyph glyph-name="Icircumflex" unicode="&#xce;" horiz-adv-x="248" 
d="M119 16q-3 -16 -20 -16h-43q-17 0 -14 16l97 688q3 16 20 16h43q17 0 14 -16zM340 807q5 -6 -3 -16l-18 -20q-10 -10 -18 -1l-96 94l-129 -95q-10 -8 -18 1l-18 23q-7 9 1 16l105 95q8 7 13 9.5t14 2.5h67q9 0 13 -2.5t10 -9.5z" />
    <glyph glyph-name="Itilde" unicode="&#x128;" horiz-adv-x="248" 
d="M119 16q-3 -16 -20 -16h-43q-17 0 -14 16l97 688q3 16 20 16h43q17 0 14 -16zM331 844q-20 -20 -42 -32t-46 -12q-19 0 -32.5 5t-26 11.5t-25.5 11.5t-31 5q-20 0 -34 -9.5t-24 -18.5q-8 -7 -14 0l-23 33q-2 5 -0.5 6t7.5 7q14 16 38.5 30t52.5 14q19 0 33.5 -5t27.5 -11
t26.5 -11t29.5 -5q18 0 29 8t22 19q8 8 14 0l20 -28q7 -8 -2 -18z" />
    <glyph glyph-name="Idieresis" unicode="&#xcf;" horiz-adv-x="248" 
d="M119 16q-3 -16 -20 -16h-43q-17 0 -14 16l97 688q3 16 20 16h43q17 0 14 -16zM62 784q-14 0 -12 13l9 66q3 13 16 13h61q17 0 14 -13l-9 -66q-2 -13 -18 -13h-61zM250 784q-15 0 -13 13l9 66q3 13 17 13h61q16 0 13 -13l-9 -66q-2 -13 -17 -13h-61z" />
    <glyph glyph-name="Imacron" unicode="&#x12a;" horiz-adv-x="248" 
d="M119 16q-3 -16 -20 -16h-43q-17 0 -14 16l97 688q3 16 20 16h43q17 0 14 -16zM330 877q13 0 12 -14l-5 -37q-3 -14 -16 -14h-267q-15 0 -12 14l5 37q1 14 16 14h267z" />
    <glyph glyph-name="Ibreve" unicode="&#x12c;" horiz-adv-x="248" 
d="M119 16q-3 -16 -20 -16h-43q-17 0 -14 16l97 688q3 16 20 16h43q17 0 14 -16zM185 788q-57 0 -92.5 23t-35.5 75v4.5t1 7.5q1 10 14 10h41q10 0 10 -12q0 -57 67 -57q33 0 56 14.5t31 42.5q3 12 14 12h42q11 0 10 -11q-12 -60 -53.5 -84.5t-104.5 -24.5z" />
    <glyph glyph-name="Idotaccent" unicode="&#x130;" horiz-adv-x="248" 
d="M119 16q-3 -16 -20 -16h-43q-17 0 -14 16l97 688q3 16 20 16h43q17 0 14 -16zM158 795q-16 0 -13 13l9 66q2 13 17 13h61q15 0 13 -13l-9 -66q-3 -13 -17 -13h-61z" />
    <glyph glyph-name="Iogonek" unicode="&#x12e;" horiz-adv-x="248" 
d="M119 15q-1 -8 -5.5 -12t-9.5 -7q-49 -31 -67.5 -59.5t-18.5 -60.5q0 -23 14 -32t33 -9q16 0 41 5q12 3 12 -8v-30q0 -7 -1.5 -10t-9.5 -5q-14 -5 -31.5 -7.5t-35.5 -2.5q-50 0 -72.5 23.5t-22.5 55.5q0 42 24.5 79.5t72.5 71.5l97 697q3 16 20 16h43q17 0 14 -16z" />
    <glyph glyph-name="IJ" unicode="&#x132;" horiz-adv-x="678" 
d="M119 16q-3 -16 -20 -16h-43q-17 0 -14 16l97 688q3 16 20 16h43q17 0 14 -16zM647 720q18 0 15 -17l-70 -501q-30 -212 -212 -212q-42 0 -83.5 12.5t-67.5 32.5q-8 7 -1 19l15 28q7 12 20 5q26 -14 57.5 -23t60.5 -9q64 0 94 37t41 118l62 445h-188q-19 0 -16 17l6 32
q3 16 20 16h247z" />
    <glyph glyph-name="Jcircumflex" unicode="&#x134;" horiz-adv-x="430" 
d="M399 720q18 0 15 -17l-70 -501q-30 -212 -212 -212q-42 0 -83.5 12.5t-67.5 32.5q-8 7 -1 19l15 28q7 12 20 5q26 -14 57.5 -23t60.5 -9q64 0 94 37t41 118l62 445h-188q-19 0 -16 17l6 32q3 16 20 16h247zM463 807q5 -6 -3 -16l-18 -20q-10 -10 -18 -1l-96 94l-129 -95
q-10 -8 -18 1l-18 23q-7 9 1 16l105 95q8 7 13 9.5t14 2.5h67q9 0 13 -2.5t10 -9.5z" />
    <glyph glyph-name="Kcommaaccent" unicode="&#x136;" horiz-adv-x="565" 
d="M497 705q8 10 14 12.5t17 2.5h40q13 0 15.5 -6t-4.5 -14l-280 -332l192 -350q4 -7 1.5 -12.5t-11.5 -5.5h-48q-11 0 -16 4t-10 12l-159 298q-5 11 -11 14t-20 3h-60l-44 -315q-2 -16 -19 -16h-43q-18 0 -15 16l97 688q3 16 19 16h43q11 0 14 -3.5t1 -12.5l-43 -306h49
q14 0 21.5 3t16.5 14zM184 -278q-16 0 -10 14l39 112l-14 7q-9 5 -12 8.5t-1 13.5l7 55q3 14 17 14h67q15 0 14 -14l-4 -33q-2 -12 -4.5 -22t-6.5 -21.5t-10 -25.5t-15 -33l-28 -63q-5 -12 -18 -12h-21v0z" />
    <glyph glyph-name="Lacute" unicode="&#x139;" horiz-adv-x="501" 
d="M422 65q11 0 14.5 -4.5t1.5 -12.5l-6 -32q-3 -16 -22 -16h-357q-20 0 -17 17l97 687q2 10 6.5 13t12.5 3h43q11 0 14 -3.5t1 -12.5l-90 -639h302zM144 773q-11 0 -4 10l83 120q5 7 8 8.5t11 1.5h67q5 0 6.5 -3.5t-4.5 -9.5l-103 -119q-7 -8 -17 -8h-47z" />
    <glyph glyph-name="Lcaron" unicode="&#x13d;" horiz-adv-x="501" 
d="M422 65q11 0 14.5 -4.5t1.5 -12.5l-6 -32q-3 -16 -22 -16h-357q-20 0 -17 17l97 687q2 10 6.5 13t12.5 3h43q11 0 14 -3.5t1 -12.5l-90 -639h302zM289 507q-16 0 -10 14l39 112l-14 7q-9 5 -12 8.5t-1 13.5l7 55q3 14 17 14h67q15 0 14 -14l-4 -33q-2 -12 -4.5 -22
t-6.5 -21.5t-10 -25.5t-15 -33l-28 -63q-5 -12 -18 -12h-21v0z" />
    <glyph glyph-name="Lcommaaccent" unicode="&#x13b;" horiz-adv-x="501" 
d="M422 65q11 0 14.5 -4.5t1.5 -12.5l-6 -32q-3 -16 -22 -16h-357q-20 0 -17 17l97 687q2 10 6.5 13t12.5 3h43q11 0 14 -3.5t1 -12.5l-90 -639h302zM168 -278q-16 0 -10 14l39 112l-14 7q-9 5 -12 8.5t-1 13.5l7 55q3 14 17 14h67q15 0 14 -14l-4 -33q-2 -12 -4.5 -22
t-6.5 -21.5t-10 -25.5t-15 -33l-28 -63q-5 -12 -18 -12h-21v0z" />
    <glyph glyph-name="Lslash" unicode="&#x141;" horiz-adv-x="491" 
d="M422 65q11 0 14.5 -4.5t1.5 -12.5l-6 -32q-3 -16 -22 -16h-357q-20 0 -17 17l36 256l-62 -43q-12 -8 -12 10q0 23 3 33t9 15l71 49l52 367q2 10 6.5 13t12.5 3h43q11 0 14 -3.5t1 -12.5l-44 -307l131 90q9 6 9 -9q0 -29 -4.5 -39t-9.5 -14l-135 -93l-37 -267h302z" />
    <glyph glyph-name="Ldot" unicode="&#x13f;" horiz-adv-x="501" 
d="M422 65q11 0 14.5 -4.5t1.5 -12.5l-6 -32q-3 -16 -22 -16h-357q-20 0 -17 17l97 687q2 10 6.5 13t12.5 3h43q11 0 14 -3.5t1 -12.5l-90 -639h302zM333 325q-15 0 -13 13l10 66q2 13 16 13h61q16 0 14 -13l-10 -66q-2 -13 -17 -13h-61z" />
    <glyph glyph-name="Nacute" unicode="&#x143;" horiz-adv-x="670" 
d="M189 605l-83 -589q-2 -9 -5.5 -12.5t-13.5 -3.5h-35q-19 0 -16 16l96 685q2 10 7 14.5t17 4.5h42q11 0 17 -3.5t11 -15.5l266 -588l82 591q2 9 5.5 12.5t13.5 3.5h35q19 0 16 -16l-97 -685q-2 -10 -6.5 -14.5t-16.5 -4.5h-43q-11 0 -16.5 4t-10.5 15zM358 773
q-11 0 -4 10l83 120q5 7 8 8.5t11 1.5h67q5 0 6.5 -3.5t-4.5 -9.5l-103 -119q-7 -8 -17 -8h-47z" />
    <glyph glyph-name="Ncaron" unicode="&#x147;" horiz-adv-x="670" 
d="M189 605l-83 -589q-2 -9 -5.5 -12.5t-13.5 -3.5h-35q-19 0 -16 16l96 685q2 10 7 14.5t17 4.5h42q11 0 17 -3.5t11 -15.5l266 -588l82 591q2 9 5.5 12.5t13.5 3.5h35q19 0 16 -16l-97 -685q-2 -10 -6.5 -14.5t-16.5 -4.5h-43q-11 0 -16.5 4t-10.5 15zM469 789
q-8 -7 -13 -9.5t-14 -2.5h-68q-9 0 -13.5 3t-9.5 9l-80 99q-2 4 -2 7.5t5 8.5l23 21q10 9 19 1l94 -97l130 97q9 8 17 -1l17 -21q6 -9 -1 -16z" />
    <glyph glyph-name="Ntilde" unicode="&#xd1;" horiz-adv-x="670" 
d="M189 605l-83 -589q-2 -9 -5.5 -12.5t-13.5 -3.5h-35q-19 0 -16 16l96 685q2 10 7 14.5t17 4.5h42q11 0 17 -3.5t11 -15.5l266 -588l82 591q2 9 5.5 12.5t13.5 3.5h35q19 0 16 -16l-97 -685q-2 -10 -6.5 -14.5t-16.5 -4.5h-43q-11 0 -16.5 4t-10.5 15zM552 842
q-20 -20 -42 -32t-46 -12q-19 0 -32.5 5t-26 11.5t-25.5 11.5t-31 5q-20 0 -34 -9.5t-24 -18.5q-8 -7 -14 0l-23 33q-2 5 -0.5 6t7.5 7q14 16 38.5 30t52.5 14q19 0 33.5 -5t27.5 -11t26.5 -11t29.5 -5q18 0 29 8t22 19q8 8 14 0l20 -28q7 -8 -2 -18z" />
    <glyph glyph-name="Ncommaaccent" unicode="&#x145;" horiz-adv-x="670" 
d="M189 605l-83 -589q-2 -9 -5.5 -12.5t-13.5 -3.5h-35q-19 0 -16 16l96 685q2 10 7 14.5t17 4.5h42q11 0 17 -3.5t11 -15.5l266 -588l82 591q2 9 5.5 12.5t13.5 3.5h35q19 0 16 -16l-97 -685q-2 -10 -6.5 -14.5t-16.5 -4.5h-43q-11 0 -16.5 4t-10.5 15zM234 -278
q-16 0 -10 14l39 112l-14 7q-9 5 -12 8.5t-1 13.5l7 55q3 14 17 14h67q15 0 14 -14l-4 -33q-2 -12 -4.5 -22t-6.5 -21.5t-10 -25.5t-15 -33l-28 -63q-5 -12 -18 -12h-21v0z" />
    <glyph glyph-name="Eng" unicode="&#x14a;" horiz-adv-x="669" 
d="M344 -128q46 0 78 25.5t49 88.5l-282 619l-83 -589q-2 -9 -5.5 -12.5t-13.5 -3.5h-35q-19 0 -16 16l96 685q2 10 7 14.5t17 4.5h42q11 0 17 -3.5t11 -15.5l266 -591l82 594q2 9 5.5 12.5t13.5 3.5h35q19 0 16 -16l-94 -657q-34 -238 -209 -238q-17 0 -35 4t-29 9
q-4 2 -4 7t5 19l4 10q5 14 7.5 19t7.5 3q11 -3 23 -5.5t24 -2.5z" />
    <glyph glyph-name="Ograve" unicode="&#xd2;" horiz-adv-x="682" 
d="M390 664q-68 0 -118.5 -35t-83.5 -90.5t-49.5 -124.5t-16.5 -137q0 -112 45.5 -166.5t133.5 -54.5q68 0 118.5 34.5t83.5 89.5t49 123.5t16 135.5q0 112 -45 168.5t-133 56.5zM402 730q57 0 102.5 -17.5t77.5 -53t49 -87.5t17 -121q0 -87 -23 -170t-68 -147.5t-112 -104
t-156 -39.5q-56 0 -102 18t-78 53.5t-49.5 88.5t-17.5 123q0 87 23 169t68 146t112.5 103t156.5 39zM424 773q-11 0 -15 8l-71 119q-7 13 6 13h66q8 0 11 -1.5t6 -8.5l48 -120q3 -10 -8 -10h-43z" />
    <glyph glyph-name="Oacute" unicode="&#xd3;" horiz-adv-x="682" 
d="M390 664q-68 0 -118.5 -35t-83.5 -90.5t-49.5 -124.5t-16.5 -137q0 -112 45.5 -166.5t133.5 -54.5q68 0 118.5 34.5t83.5 89.5t49 123.5t16 135.5q0 112 -45 168.5t-133 56.5zM402 730q57 0 102.5 -17.5t77.5 -53t49 -87.5t17 -121q0 -87 -23 -170t-68 -147.5t-112 -104
t-156 -39.5q-56 0 -102 18t-78 53.5t-49.5 88.5t-17.5 123q0 87 23 169t68 146t112.5 103t156.5 39zM360 773q-11 0 -4 10l83 120q5 7 8 8.5t11 1.5h67q5 0 6.5 -3.5t-4.5 -9.5l-103 -119q-7 -8 -17 -8h-47z" />
    <glyph glyph-name="Ocircumflex" unicode="&#xd4;" horiz-adv-x="682" 
d="M390 664q-68 0 -118.5 -35t-83.5 -90.5t-49.5 -124.5t-16.5 -137q0 -112 45.5 -166.5t133.5 -54.5q68 0 118.5 34.5t83.5 89.5t49 123.5t16 135.5q0 112 -45 168.5t-133 56.5zM402 730q57 0 102.5 -17.5t77.5 -53t49 -87.5t17 -121q0 -87 -23 -170t-68 -147.5t-112 -104
t-156 -39.5q-56 0 -102 18t-78 53.5t-49.5 88.5t-17.5 123q0 87 23 169t68 146t112.5 103t156.5 39zM568 807q5 -6 -3 -16l-18 -20q-10 -10 -18 -1l-96 94l-129 -95q-10 -8 -18 1l-18 23q-7 9 1 16l105 95q8 7 13 9.5t14 2.5h67q9 0 13 -2.5t10 -9.5z" />
    <glyph glyph-name="Otilde" unicode="&#xd5;" horiz-adv-x="682" 
d="M390 664q-68 0 -118.5 -35t-83.5 -90.5t-49.5 -124.5t-16.5 -137q0 -112 45.5 -166.5t133.5 -54.5q68 0 118.5 34.5t83.5 89.5t49 123.5t16 135.5q0 112 -45 168.5t-133 56.5zM402 730q57 0 102.5 -17.5t77.5 -53t49 -87.5t17 -121q0 -87 -23 -170t-68 -147.5t-112 -104
t-156 -39.5q-56 0 -102 18t-78 53.5t-49.5 88.5t-17.5 123q0 87 23 169t68 146t112.5 103t156.5 39zM570 842q-20 -20 -42 -32t-46 -12q-19 0 -32.5 5t-26 11.5t-25.5 11.5t-31 5q-20 0 -34 -9.5t-24 -18.5q-8 -7 -14 0l-23 33q-2 5 -0.5 6t7.5 7q14 16 38.5 30t52.5 14
q19 0 33.5 -5t27.5 -11t26.5 -11t29.5 -5q18 0 29 8t22 19q8 8 14 0l20 -28q7 -8 -2 -18z" />
    <glyph glyph-name="Odieresis" unicode="&#xd6;" horiz-adv-x="682" 
d="M390 664q-68 0 -118.5 -35t-83.5 -90.5t-49.5 -124.5t-16.5 -137q0 -112 45.5 -166.5t133.5 -54.5q68 0 118.5 34.5t83.5 89.5t49 123.5t16 135.5q0 112 -45 168.5t-133 56.5zM402 730q57 0 102.5 -17.5t77.5 -53t49 -87.5t17 -121q0 -87 -23 -170t-68 -147.5t-112 -104
t-156 -39.5q-56 0 -102 18t-78 53.5t-49.5 88.5t-17.5 123q0 87 23 169t68 146t112.5 103t156.5 39zM285 786q-14 0 -12 13l9 66q3 13 16 13h61q17 0 14 -13l-9 -66q-2 -13 -18 -13h-61zM473 786q-15 0 -13 13l9 66q3 13 17 13h61q16 0 13 -13l-9 -66q-2 -13 -17 -13h-61z
" />
    <glyph glyph-name="Omacron" unicode="&#x14c;" horiz-adv-x="682" 
d="M390 664q-68 0 -118.5 -35t-83.5 -90.5t-49.5 -124.5t-16.5 -137q0 -112 45.5 -166.5t133.5 -54.5q68 0 118.5 34.5t83.5 89.5t49 123.5t16 135.5q0 112 -45 168.5t-133 56.5zM402 730q57 0 102.5 -17.5t77.5 -53t49 -87.5t17 -121q0 -87 -23 -170t-68 -147.5t-112 -104
t-156 -39.5q-56 0 -102 18t-78 53.5t-49.5 88.5t-17.5 123q0 87 23 169t68 146t112.5 103t156.5 39zM558 877q13 0 12 -14l-5 -37q-3 -14 -16 -14h-267q-15 0 -12 14l5 37q1 14 16 14h267z" />
    <glyph glyph-name="Obreve" unicode="&#x14e;" horiz-adv-x="682" 
d="M390 664q-68 0 -118.5 -35t-83.5 -90.5t-49.5 -124.5t-16.5 -137q0 -112 45.5 -166.5t133.5 -54.5q68 0 118.5 34.5t83.5 89.5t49 123.5t16 135.5q0 112 -45 168.5t-133 56.5zM402 730q57 0 102.5 -17.5t77.5 -53t49 -87.5t17 -121q0 -87 -23 -170t-68 -147.5t-112 -104
t-156 -39.5q-56 0 -102 18t-78 53.5t-49.5 88.5t-17.5 123q0 87 23 169t68 146t112.5 103t156.5 39zM417 788q-57 0 -92.5 23t-35.5 75v4.5t1 7.5q1 10 14 10h41q10 0 10 -12q0 -57 67 -57q33 0 56 14.5t31 42.5q3 12 14 12h42q11 0 10 -11q-12 -60 -53.5 -84.5
t-104.5 -24.5z" />
    <glyph glyph-name="Ohungarumlaut" unicode="&#x150;" horiz-adv-x="682" 
d="M390 664q-68 0 -118.5 -35t-83.5 -90.5t-49.5 -124.5t-16.5 -137q0 -112 45.5 -166.5t133.5 -54.5q68 0 118.5 34.5t83.5 89.5t49 123.5t16 135.5q0 112 -45 168.5t-133 56.5zM402 730q57 0 102.5 -17.5t77.5 -53t49 -87.5t17 -121q0 -87 -23 -170t-68 -147.5t-112 -104
t-156 -39.5q-56 0 -102 18t-78 53.5t-49.5 88.5t-17.5 123q0 87 23 169t68 146t112.5 103t156.5 39zM291 772q-13 0 -6 12l74 119q5 7 8.5 8.5t10.5 1.5h57q6 0 7 -4t-3 -9l-93 -119q-5 -5 -7.5 -7t-10.5 -2h-37zM447 772q-13 0 -6 12l74 119q5 7 8.5 8.5t10.5 1.5h57
q6 0 7 -4t-3 -9l-93 -119q-5 -5 -7.5 -7t-10.5 -2h-37z" />
    <glyph glyph-name="Oslash" unicode="&#xd8;" horiz-adv-x="683" 
d="M403 730q102 0 164 -56l69 82q4 5 10 4.5t17 -10.5l14 -12q10 -8 11.5 -13.5t-1.5 -9.5l-78 -92q40 -68 40 -172q0 -87 -23 -170t-68 -147.5t-112 -104t-156 -39.5q-103 0 -166 57l-69 -82q-4 -5 -9.5 -4.5t-16.5 9.5l-14 12q-19 16 -11 25l78 93q-19 33 -29 76t-10 97
q0 87 23 169t68 146t112.5 103t156.5 39zM569 439q0 67 -17 116l-379 -450q45 -49 129 -49q68 0 118.5 34.5t83.5 89.5t49 123.5t16 135.5zM391 664q-68 0 -118.5 -35t-83.5 -90.5t-49.5 -124.5t-16.5 -137q0 -65 15 -111l379 449q-46 49 -126 49z" />
    <glyph glyph-name="Oslashacute" unicode="&#x1fe;" horiz-adv-x="683" 
d="M403 730q102 0 164 -56l69 82q4 5 10 4.5t17 -10.5l14 -12q10 -8 11.5 -13.5t-1.5 -9.5l-78 -92q40 -68 40 -172q0 -87 -23 -170t-68 -147.5t-112 -104t-156 -39.5q-103 0 -166 57l-69 -82q-4 -5 -9.5 -4.5t-16.5 9.5l-14 12q-19 16 -11 25l78 93q-19 33 -29 76t-10 97
q0 87 23 169t68 146t112.5 103t156.5 39zM569 439q0 67 -17 116l-379 -450q45 -49 129 -49q68 0 118.5 34.5t83.5 89.5t49 123.5t16 135.5zM391 664q-68 0 -118.5 -35t-83.5 -90.5t-49.5 -124.5t-16.5 -137q0 -65 15 -111l379 449q-46 49 -126 49zM352 773q-11 0 -4 10
l83 120q5 7 8 8.5t11 1.5h67q5 0 6.5 -3.5t-4.5 -9.5l-103 -119q-7 -8 -17 -8h-47z" />
    <glyph glyph-name="OE" unicode="&#x152;" horiz-adv-x="916" 
d="M315 53q26 0 58.5 2.5t62.5 7.5l83 591q-26 5 -56.5 8.5t-59.5 3.5q-73 0 -126 -33t-87.5 -88t-51 -125t-16.5 -145q0 -115 48 -168.5t145 -53.5zM903 720q19 0 16 -17l-6 -32q-3 -16 -22 -16h-295l-37 -258h251q19 0 16 -17l-6 -32q-3 -16 -22 -16h-248l-37 -267h302
q11 0 14.5 -4.5t1.5 -12.5l-6 -32q-3 -16 -22 -16h-344q-15 0 -35.5 -1.5t-41.5 -3.5t-41 -3.5t-35 -1.5q-68 0 -117.5 20t-82 56.5t-48.5 88.5t-16 116q0 86 22 168.5t67 147t113.5 104t161.5 39.5q38 0 75.5 -5t63.5 -5h358z" />
    <glyph glyph-name="Thorn" unicode="&#xde;" horiz-adv-x="526" 
d="M190 563q21 3 51.5 5t62.5 2q93 -3 149 -44.5t56 -127.5q0 -49 -17.5 -90.5t-51.5 -72t-83.5 -48t-112.5 -17.5q-27 0 -56 2.5t-52 7.5l-23 -164q-3 -16 -20 -16h-43q-17 0 -14 16l97 688q3 16 20 16h43q17 0 14 -16zM279 507q-27 0 -52 -2t-46 -6l-36 -257
q21 -5 48 -6.5t55 -1.5q83 0 132 39t49 120q0 34 -12 56t-32.5 35t-47.5 18t-58 5z" />
    <glyph glyph-name="Racute" unicode="&#x154;" horiz-adv-x="548" 
d="M162 363h104q41 0 75 11t59 33t38.5 54.5t13.5 76.5q0 37 -11 60.5t-32.5 36t-52 17t-69.5 4.5h-84zM153 302l-40 -286q-3 -16 -20 -16h-43q-17 0 -14 16l97 688q2 9 5.5 12.5t13.5 3.5h136q121 0 182.5 -39t61.5 -133q0 -38 -9.5 -75t-31.5 -68.5t-57.5 -56t-87.5 -36.5
l118 -290q9 -22 -13 -22h-38q-14 0 -18.5 3t-8.5 11l-106 271q-4 10 -10 13.5t-19 3.5h-98zM281 773q-11 0 -4 10l83 120q5 7 8 8.5t11 1.5h67q5 0 6.5 -3.5t-4.5 -9.5l-103 -119q-7 -8 -17 -8h-47z" />
    <glyph glyph-name="Rcaron" unicode="&#x158;" horiz-adv-x="548" 
d="M162 363h104q41 0 75 11t59 33t38.5 54.5t13.5 76.5q0 37 -11 60.5t-32.5 36t-52 17t-69.5 4.5h-84zM153 302l-40 -286q-3 -16 -20 -16h-43q-17 0 -14 16l97 688q2 9 5.5 12.5t13.5 3.5h136q121 0 182.5 -39t61.5 -133q0 -38 -9.5 -75t-31.5 -68.5t-57.5 -56t-87.5 -36.5
l118 -290q9 -22 -13 -22h-38q-14 0 -18.5 3t-8.5 11l-106 271q-4 10 -10 13.5t-19 3.5h-98zM394 789q-8 -7 -13 -9.5t-14 -2.5h-68q-9 0 -13.5 3t-9.5 9l-80 99q-2 4 -2 7.5t5 8.5l23 21q10 9 19 1l94 -97l130 97q9 8 17 -1l17 -21q6 -9 -1 -16z" />
    <glyph glyph-name="Rcommaaccent" unicode="&#x156;" horiz-adv-x="548" 
d="M162 363h104q41 0 75 11t59 33t38.5 54.5t13.5 76.5q0 37 -11 60.5t-32.5 36t-52 17t-69.5 4.5h-84zM153 302l-40 -286q-3 -16 -20 -16h-43q-17 0 -14 16l97 688q2 9 5.5 12.5t13.5 3.5h136q121 0 182.5 -39t61.5 -133q0 -38 -9.5 -75t-31.5 -68.5t-57.5 -56t-87.5 -36.5
l118 -290q9 -22 -13 -22h-38q-14 0 -18.5 3t-8.5 11l-106 271q-4 10 -10 13.5t-19 3.5h-98zM180 -278q-16 0 -10 14l39 112l-14 7q-9 5 -12 8.5t-1 13.5l7 55q3 14 17 14h67q15 0 14 -14l-4 -33q-2 -12 -4.5 -22t-6.5 -21.5t-10 -25.5t-15 -33l-28 -63q-5 -12 -18 -12h-21v0
z" />
    <glyph glyph-name="Sacute" unicode="&#x15a;" horiz-adv-x="505" 
d="M10 46q-5 4 -6.5 10t3.5 14l17 29q8 14 23 4q14 -9 32.5 -18t38 -15.5t39.5 -10.5t38 -4q75 0 123.5 37t48.5 106q0 35 -20.5 60.5t-50.5 46.5t-66 40.5t-66 44.5t-50.5 58t-20.5 80q0 42 16.5 79t47 64.5t73 43t93.5 15.5q23 0 45.5 -4t42.5 -10.5t36.5 -14.5t26.5 -16
q5 -4 7 -10t-2 -12l-18 -29q-8 -13 -22 -4q-23 15 -53.5 25t-68.5 10q-30 0 -56.5 -8.5t-46.5 -25t-31.5 -41t-11.5 -55.5q0 -35 20.5 -59.5t50.5 -44.5t66 -39t66 -44t50.5 -58.5t20.5 -82.5q0 -50 -18.5 -90t-52 -68t-79.5 -43.5t-101 -15.5q-58 0 -107.5 17t-76.5 39z
M283 773q-11 0 -4 10l83 120q5 7 8 8.5t11 1.5h67q5 0 6.5 -3.5t-4.5 -9.5l-103 -119q-7 -8 -17 -8h-47z" />
    <glyph glyph-name="Scircumflex" unicode="&#x15c;" horiz-adv-x="505" 
d="M10 46q-5 4 -6.5 10t3.5 14l17 29q8 14 23 4q14 -9 32.5 -18t38 -15.5t39.5 -10.5t38 -4q75 0 123.5 37t48.5 106q0 35 -20.5 60.5t-50.5 46.5t-66 40.5t-66 44.5t-50.5 58t-20.5 80q0 42 16.5 79t47 64.5t73 43t93.5 15.5q23 0 45.5 -4t42.5 -10.5t36.5 -14.5t26.5 -16
q5 -4 7 -10t-2 -12l-18 -29q-8 -13 -22 -4q-23 15 -53.5 25t-68.5 10q-30 0 -56.5 -8.5t-46.5 -25t-31.5 -41t-11.5 -55.5q0 -35 20.5 -59.5t50.5 -44.5t66 -39t66 -44t50.5 -58.5t20.5 -82.5q0 -50 -18.5 -90t-52 -68t-79.5 -43.5t-101 -15.5q-58 0 -107.5 17t-76.5 39z
M488 807q5 -6 -3 -16l-18 -20q-10 -10 -18 -1l-96 94l-129 -95q-10 -8 -18 1l-18 23q-7 9 1 16l105 95q8 7 13 9.5t14 2.5h67q9 0 13 -2.5t10 -9.5z" />
    <glyph glyph-name="Scaron" unicode="&#x160;" horiz-adv-x="505" 
d="M10 46q-5 4 -6.5 10t3.5 14l17 29q8 14 23 4q14 -9 32.5 -18t38 -15.5t39.5 -10.5t38 -4q75 0 123.5 37t48.5 106q0 35 -20.5 60.5t-50.5 46.5t-66 40.5t-66 44.5t-50.5 58t-20.5 80q0 42 16.5 79t47 64.5t73 43t93.5 15.5q23 0 45.5 -4t42.5 -10.5t36.5 -14.5t26.5 -16
q5 -4 7 -10t-2 -12l-18 -29q-8 -13 -22 -4q-23 15 -53.5 25t-68.5 10q-30 0 -56.5 -8.5t-46.5 -25t-31.5 -41t-11.5 -55.5q0 -35 20.5 -59.5t50.5 -44.5t66 -39t66 -44t50.5 -58.5t20.5 -82.5q0 -50 -18.5 -90t-52 -68t-79.5 -43.5t-101 -15.5q-58 0 -107.5 17t-76.5 39z
M388 781q-8 -7 -13 -9.5t-14 -2.5h-68q-9 0 -13.5 3t-9.5 9l-80 99q-2 4 -2 7.5t5 8.5l23 21q10 9 19 1l94 -97l130 97q9 8 17 -1l17 -21q6 -9 -1 -16z" />
    <glyph glyph-name="Scedilla" unicode="&#x15e;" horiz-adv-x="505" 
d="M198 -229q-23 0 -42.5 4t-34.5 11q-11 5 -6 16l10 26q5 13 16 8t27.5 -9.5t31.5 -4.5q22 0 39 10t17 32q0 17 -13.5 24.5t-43.5 7.5q-11 0 -23 -0.5t-22 -1.5q-13 0 -10 11l23 86q-51 5 -92.5 20t-64.5 35q-5 4 -6.5 10t3.5 14l17 29q8 14 23 4q14 -9 32.5 -18t38 -15.5
t39.5 -10.5t38 -4q75 0 123.5 37t48.5 106q0 35 -20.5 60.5t-50.5 46.5t-66 40.5t-66 44.5t-50.5 58t-20.5 80q0 42 16.5 79t47 64.5t73 43t93.5 15.5q23 0 45.5 -4t42.5 -10.5t36.5 -14.5t26.5 -16q5 -4 7 -10t-2 -12l-18 -29q-8 -13 -22 -4q-23 15 -53.5 25t-68.5 10
q-30 0 -56.5 -8.5t-46.5 -25t-31.5 -41t-11.5 -55.5q0 -35 20 -59.5t50.5 -44.5t66 -39t66 -43.5t50.5 -56.5t20 -79q0 -48 -16.5 -87.5t-45.5 -68t-69.5 -45t-89.5 -20.5l-11 -45q5 1 14 1.5t16 0.5q33 0 57.5 -18.5t24.5 -54.5q0 -47 -34.5 -76t-91.5 -29z" />
    <glyph glyph-name="Scommaaccent" unicode="&#x218;" horiz-adv-x="505" 
d="M10 46q-5 4 -6.5 10t3.5 14l17 29q8 14 23 4q14 -9 32.5 -18t38 -15.5t39.5 -10.5t38 -4q75 0 123.5 37t48.5 106q0 35 -20.5 60.5t-50.5 46.5t-66 40.5t-66 44.5t-50.5 58t-20.5 80q0 42 16.5 79t47 64.5t73 43t93.5 15.5q23 0 45.5 -4t42.5 -10.5t36.5 -14.5t26.5 -16
q5 -4 7 -10t-2 -12l-18 -29q-8 -13 -22 -4q-23 15 -53.5 25t-68.5 10q-30 0 -56.5 -8.5t-46.5 -25t-31.5 -41t-11.5 -55.5q0 -35 20.5 -59.5t50.5 -44.5t66 -39t66 -44t50.5 -58.5t20.5 -82.5q0 -50 -18.5 -90t-52 -68t-79.5 -43.5t-101 -15.5q-58 0 -107.5 17t-76.5 39z
M144 -278q-16 0 -10 14l39 112l-14 7q-9 5 -12 8.5t-1 13.5l7 55q3 14 17 14h67q15 0 14 -14l-4 -33q-2 -12 -4.5 -22t-6.5 -21.5t-10 -25.5t-15 -33l-28 -63q-5 -12 -18 -12h-21v0z" />
    <glyph glyph-name="Tcaron" unicode="&#x164;" horiz-adv-x="505" 
d="M339 655l-90 -639q-3 -16 -20 -16h-43q-17 0 -14 16l91 639h-185q-19 0 -16 17l6 32q3 16 20 16h439q19 0 16 -17l-6 -32q-3 -16 -20 -16h-178zM379 789q-8 -7 -13 -9.5t-14 -2.5h-68q-9 0 -13.5 3t-9.5 9l-80 99q-2 4 -2 7.5t5 8.5l23 21q10 9 19 1l94 -97l130 97
q9 8 17 -1l17 -21q6 -9 -1 -16z" />
    <glyph glyph-name="Tcommaaccent" unicode="&#x162;" horiz-adv-x="505" 
d="M339 655l-90 -639q-3 -16 -20 -16h-43q-17 0 -14 16l91 639h-185q-19 0 -16 17l6 32q3 16 20 16h439q19 0 16 -17l-6 -32q-3 -16 -20 -16h-178zM139 -278q-16 0 -10 14l39 112l-14 7q-9 5 -12 8.5t-1 13.5l7 55q3 14 17 14h67q15 0 14 -14l-4 -33q-2 -12 -4.5 -22
t-6.5 -21.5t-10 -25.5t-15 -33l-28 -63q-5 -12 -18 -12h-21v0z" />
    <glyph glyph-name="uni021A" unicode="&#x21a;" horiz-adv-x="505" 
d="M339 655l-90 -639q-3 -16 -20 -16h-43q-17 0 -14 16l91 639h-185q-19 0 -16 17l6 32q3 16 20 16h439q19 0 16 -17l-6 -32q-3 -16 -20 -16h-178zM139 -278q-16 0 -10 14l39 112l-14 7q-9 5 -12 8.5t-1 13.5l7 55q3 14 17 14h67q15 0 14 -14l-4 -33q-2 -12 -4.5 -22
t-6.5 -21.5t-10 -25.5t-15 -33l-28 -63q-5 -12 -18 -12h-21v0z" />
    <glyph glyph-name="Tbar" unicode="&#x166;" horiz-adv-x="505" 
d="M339 655l-37 -261h116q13 0 12 -14l-5 -31q-3 -14 -16 -14h-115l-45 -319q-3 -16 -20 -16h-43q-17 0 -14 16l45 319h-114q-13 0 -12 14l5 31q3 14 16 14h114l37 261h-185q-19 0 -16 17l6 32q3 16 20 16h439q19 0 16 -17l-6 -32q-3 -16 -20 -16h-178z" />
    <glyph glyph-name="Ugrave" unicode="&#xd9;" horiz-adv-x="659" 
d="M580 272q-21 -149 -96 -215.5t-198 -66.5q-111 0 -169 50.5t-58 151.5q0 18 2 36t4 37l61 439q3 16 20 16h43q17 0 14 -16l-60 -430q-2 -17 -4 -33.5t-2 -30.5q0 -81 39.5 -118t117.5 -37q88 0 140 51t69 167l61 431q3 16 20 16h43q17 0 14 -16zM382 773q-11 0 -15 8
l-71 119q-7 13 6 13h66q8 0 11 -1.5t6 -8.5l48 -120q3 -10 -8 -10h-43z" />
    <glyph glyph-name="Uacute" unicode="&#xda;" horiz-adv-x="659" 
d="M580 272q-21 -149 -96 -215.5t-198 -66.5q-111 0 -169 50.5t-58 151.5q0 18 2 36t4 37l61 439q3 16 20 16h43q17 0 14 -16l-60 -430q-2 -17 -4 -33.5t-2 -30.5q0 -81 39.5 -118t117.5 -37q88 0 140 51t69 167l61 431q3 16 20 16h43q17 0 14 -16zM340 773q-11 0 -4 10
l83 120q5 7 8 8.5t11 1.5h67q5 0 6.5 -3.5t-4.5 -9.5l-103 -119q-7 -8 -17 -8h-47z" />
    <glyph glyph-name="Ucircumflex" unicode="&#xdb;" horiz-adv-x="659" 
d="M580 272q-21 -149 -96 -215.5t-198 -66.5q-111 0 -169 50.5t-58 151.5q0 18 2 36t4 37l61 439q3 16 20 16h43q17 0 14 -16l-60 -430q-2 -17 -4 -33.5t-2 -30.5q0 -81 39.5 -118t117.5 -37q88 0 140 51t69 167l61 431q3 16 20 16h43q17 0 14 -16zM548 807q5 -6 -3 -16
l-18 -20q-10 -10 -18 -1l-96 94l-129 -95q-10 -8 -18 1l-18 23q-7 9 1 16l105 95q8 7 13 9.5t14 2.5h67q9 0 13 -2.5t10 -9.5z" />
    <glyph glyph-name="Utilde" unicode="&#x168;" horiz-adv-x="659" 
d="M580 272q-21 -149 -96 -215.5t-198 -66.5q-111 0 -169 50.5t-58 151.5q0 18 2 36t4 37l61 439q3 16 20 16h43q17 0 14 -16l-60 -430q-2 -17 -4 -33.5t-2 -30.5q0 -81 39.5 -118t117.5 -37q88 0 140 51t69 167l61 431q3 16 20 16h43q17 0 14 -16zM544 844q-20 -20 -42 -32
t-46 -12q-19 0 -32.5 5t-26 11.5t-25.5 11.5t-31 5q-20 0 -34 -9.5t-24 -18.5q-8 -7 -14 0l-23 33q-2 5 -0.5 6t7.5 7q14 16 38.5 30t52.5 14q19 0 33.5 -5t27.5 -11t26.5 -11t29.5 -5q18 0 29 8t22 19q8 8 14 0l20 -28q7 -8 -2 -18z" />
    <glyph glyph-name="Udieresis" unicode="&#xdc;" horiz-adv-x="659" 
d="M580 272q-21 -149 -96 -215.5t-198 -66.5q-111 0 -169 50.5t-58 151.5q0 18 2 36t4 37l61 439q3 16 20 16h43q17 0 14 -16l-60 -430q-2 -17 -4 -33.5t-2 -30.5q0 -81 39.5 -118t117.5 -37q88 0 140 51t69 167l61 431q3 16 20 16h43q17 0 14 -16zM264 784q-14 0 -12 13
l9 66q3 13 16 13h61q17 0 14 -13l-9 -66q-2 -13 -18 -13h-61zM452 784q-15 0 -13 13l9 66q3 13 17 13h61q16 0 13 -13l-9 -66q-2 -13 -17 -13h-61z" />
    <glyph glyph-name="Umacron" unicode="&#x16a;" horiz-adv-x="659" 
d="M580 272q-21 -149 -96 -215.5t-198 -66.5q-111 0 -169 50.5t-58 151.5q0 18 2 36t4 37l61 439q3 16 20 16h43q17 0 14 -16l-60 -430q-2 -17 -4 -33.5t-2 -30.5q0 -81 39.5 -118t117.5 -37q88 0 140 51t69 167l61 431q3 16 20 16h43q17 0 14 -16zM542 877q13 0 12 -14
l-5 -37q-3 -14 -16 -14h-267q-15 0 -12 14l5 37q1 14 16 14h267z" />
    <glyph glyph-name="Ubreve" unicode="&#x16c;" horiz-adv-x="659" 
d="M580 272q-21 -149 -96 -215.5t-198 -66.5q-111 0 -169 50.5t-58 151.5q0 18 2 36t4 37l61 439q3 16 20 16h43q17 0 14 -16l-60 -430q-2 -17 -4 -33.5t-2 -30.5q0 -81 39.5 -118t117.5 -37q88 0 140 51t69 167l61 431q3 16 20 16h43q17 0 14 -16zM392 788q-57 0 -92.5 23
t-35.5 75v4.5t1 7.5q1 10 14 10h41q10 0 10 -12q0 -57 67 -57q33 0 56 14.5t31 42.5q3 12 14 12h42q11 0 10 -11q-12 -60 -53.5 -84.5t-104.5 -24.5z" />
    <glyph glyph-name="Uring" unicode="&#x16e;" horiz-adv-x="659" 
d="M580 272q-21 -149 -96 -215.5t-198 -66.5q-111 0 -169 50.5t-58 151.5q0 18 2 36t4 37l61 439q3 16 20 16h43q17 0 14 -16l-60 -430q-2 -17 -4 -33.5t-2 -30.5q0 -81 39.5 -118t117.5 -37q88 0 140 51t69 167l61 431q3 16 20 16h43q17 0 14 -16zM393 772q-35 0 -56 22.5
t-21 53.5q0 18 8 34.5t22 29t31.5 19.5t37.5 7q32 0 54.5 -21.5t22.5 -52.5q0 -19 -8 -35.5t-21.5 -29t-31.5 -20t-38 -7.5zM399 812q20 0 34 14.5t14 34.5q0 16 -10.5 26.5t-27.5 10.5q-18 0 -33 -13t-15 -36q0 -17 10.5 -27t27.5 -10z" />
    <glyph glyph-name="Uhungarumlaut" unicode="&#x170;" horiz-adv-x="659" 
d="M580 272q-21 -149 -96 -215.5t-198 -66.5q-111 0 -169 50.5t-58 151.5q0 18 2 36t4 37l61 439q3 16 20 16h43q17 0 14 -16l-60 -430q-2 -17 -4 -33.5t-2 -30.5q0 -81 39.5 -118t117.5 -37q88 0 140 51t69 167l61 431q3 16 20 16h43q17 0 14 -16zM276 772q-13 0 -6 12
l74 119q5 7 8.5 8.5t10.5 1.5h57q6 0 7 -4t-3 -9l-93 -119q-5 -5 -7.5 -7t-10.5 -2h-37zM432 772q-13 0 -6 12l74 119q5 7 8.5 8.5t10.5 1.5h57q6 0 7 -4t-3 -9l-93 -119q-5 -5 -7.5 -7t-10.5 -2h-37z" />
    <glyph glyph-name="Uogonek" unicode="&#x172;" horiz-adv-x="660" 
d="M326 -223q-50 0 -72.5 23.5t-22.5 55.5q0 40 27.5 74.5t69.5 61.5q-8 -1 -21 -1.5t-21 -0.5q-111 0 -169 50.5t-58 151.5q0 18 2 36t4 37l61 439q3 16 20 16h43q17 0 14 -16l-60 -430q-2 -17 -4 -33.5t-2 -30.5q0 -81 39.5 -118t117.5 -37q88 0 140 51t69 167l61 431
q3 16 20 16h43q17 0 14 -16l-61 -432q-14 -99 -52 -160t-99 -93q-68 -35 -96.5 -73t-28.5 -70q0 -23 14 -32t33 -9q16 0 41 5q12 3 12 -8v-30q0 -7 -1.5 -10t-9.5 -5q-14 -5 -31.5 -7.5t-35.5 -2.5z" />
    <glyph glyph-name="Wgrave" unicode="&#x1e80;" horiz-adv-x="935" 
d="M889 704q4 10 10 13t17 3h38q19 0 12 -18l-280 -686q-6 -16 -26 -16h-58q-11 0 -15.5 3t-6.5 13l-37 343q-8 73 -16 141.5t-14 125.5q-11 -29 -23.5 -61.5t-26 -67t-27.5 -69.5t-26 -68l-137 -342q-6 -18 -26 -18h-57q-11 0 -16 3t-7 13l-93 686q-3 18 17 18h44
q11 0 14.5 -3t4.5 -13l41 -354l32 -281q11 31 25 68.5t29 76t29 75.5t26 67l134 348q4 9 9.5 12.5t16.5 3.5h58q11 0 16 -3t6 -13l37 -354q8 -80 14.5 -151.5t11.5 -131.5q23 56 53.5 131t59.5 153zM514 776q-11 0 -15 8l-71 119q-7 13 6 13h66q8 0 11 -1.5t6 -8.5l48 -120
q3 -10 -8 -10h-43z" />
    <glyph glyph-name="Wacute" unicode="&#x1e82;" horiz-adv-x="935" 
d="M889 704q4 10 10 13t17 3h38q19 0 12 -18l-280 -686q-6 -16 -26 -16h-58q-11 0 -15.5 3t-6.5 13l-37 343q-8 73 -16 141.5t-14 125.5q-11 -29 -23.5 -61.5t-26 -67t-27.5 -69.5t-26 -68l-137 -342q-6 -18 -26 -18h-57q-11 0 -16 3t-7 13l-93 686q-3 18 17 18h44
q11 0 14.5 -3t4.5 -13l41 -354l32 -281q11 31 25 68.5t29 76t29 75.5t26 67l134 348q4 9 9.5 12.5t16.5 3.5h58q11 0 16 -3t6 -13l37 -354q8 -80 14.5 -151.5t11.5 -131.5q23 56 53.5 131t59.5 153zM466 776q-11 0 -4 10l83 120q5 7 8 8.5t11 1.5h67q5 0 6.5 -3.5t-4.5 -9.5
l-103 -119q-7 -8 -17 -8h-47z" />
    <glyph glyph-name="Wcircumflex" unicode="&#x174;" horiz-adv-x="935" 
d="M889 704q4 10 10 13t17 3h38q19 0 12 -18l-280 -686q-6 -16 -26 -16h-58q-11 0 -15.5 3t-6.5 13l-37 343q-8 73 -16 141.5t-14 125.5q-11 -29 -23.5 -61.5t-26 -67t-27.5 -69.5t-26 -68l-137 -342q-6 -18 -26 -18h-57q-11 0 -16 3t-7 13l-93 686q-3 18 17 18h44
q11 0 14.5 -3t4.5 -13l41 -354l32 -281q11 31 25 68.5t29 76t29 75.5t26 67l134 348q4 9 9.5 12.5t16.5 3.5h58q11 0 16 -3t6 -13l37 -354q8 -80 14.5 -151.5t11.5 -131.5q23 56 53.5 131t59.5 153zM677 814q5 -6 -3 -16l-18 -20q-10 -10 -18 -1l-96 94l-129 -95
q-10 -8 -18 1l-18 23q-7 9 1 16l105 95q8 7 13 9.5t14 2.5h67q9 0 13 -2.5t10 -9.5z" />
    <glyph glyph-name="Wdieresis" unicode="&#x1e84;" horiz-adv-x="935" 
d="M889 704q4 10 10 13t17 3h38q19 0 12 -18l-280 -686q-6 -16 -26 -16h-58q-11 0 -15.5 3t-6.5 13l-37 343q-8 73 -16 141.5t-14 125.5q-11 -29 -23.5 -61.5t-26 -67t-27.5 -69.5t-26 -68l-137 -342q-6 -18 -26 -18h-57q-11 0 -16 3t-7 13l-93 686q-3 18 17 18h44
q11 0 14.5 -3t4.5 -13l41 -354l32 -281q11 31 25 68.5t29 76t29 75.5t26 67l134 348q4 9 9.5 12.5t16.5 3.5h58q11 0 16 -3t6 -13l37 -354q8 -80 14.5 -151.5t11.5 -131.5q23 56 53.5 131t59.5 153zM400 796q-14 0 -12 13l9 66q3 13 16 13h61q17 0 14 -13l-9 -66
q-2 -13 -18 -13h-61zM588 796q-15 0 -13 13l9 66q3 13 17 13h61q16 0 13 -13l-9 -66q-2 -13 -17 -13h-61z" />
    <glyph glyph-name="Ygrave" unicode="&#x1ef2;" horiz-adv-x="520" 
d="M548 720q8 0 10.5 -4t-2.5 -12l-267 -426l-37 -262q-3 -16 -20 -16h-44q-16 0 -13 16l38 262l-146 427q-2 7 1.5 11t10.5 4h47q11 0 15 -2t7 -10l58 -178q21 -64 34 -107.5t21 -74.5q23 41 49 86t58 96l109 176q5 8 9.5 11t13.5 3h48zM307 776q-11 0 -15 8l-71 119
q-7 13 6 13h66q8 0 11 -1.5t6 -8.5l48 -120q3 -10 -8 -10h-43z" />
    <glyph glyph-name="Yacute" unicode="&#xdd;" horiz-adv-x="520" 
d="M548 720q8 0 10.5 -4t-2.5 -12l-267 -426l-37 -262q-3 -16 -20 -16h-44q-16 0 -13 16l38 262l-146 427q-2 7 1.5 11t10.5 4h47q11 0 15 -2t7 -10l58 -178q21 -64 34 -107.5t21 -74.5q23 41 49 86t58 96l109 176q5 8 9.5 11t13.5 3h48zM276 776q-11 0 -4 10l83 120
q5 7 8 8.5t11 1.5h67q5 0 6.5 -3.5t-4.5 -9.5l-103 -119q-7 -8 -17 -8h-47z" />
    <glyph glyph-name="Ycircumflex" unicode="&#x176;" horiz-adv-x="520" 
d="M548 720q8 0 10.5 -4t-2.5 -12l-267 -426l-37 -262q-3 -16 -20 -16h-44q-16 0 -13 16l38 262l-146 427q-2 7 1.5 11t10.5 4h47q11 0 15 -2t7 -10l58 -178q21 -64 34 -107.5t21 -74.5q23 41 49 86t58 96l109 176q5 8 9.5 11t13.5 3h48zM474 814q5 -6 -3 -16l-18 -20
q-10 -10 -18 -1l-96 94l-129 -95q-10 -8 -18 1l-18 23q-7 9 1 16l105 95q8 7 13 9.5t14 2.5h67q9 0 13 -2.5t10 -9.5z" />
    <glyph glyph-name="Ydieresis" unicode="&#x178;" horiz-adv-x="520" 
d="M548 720q8 0 10.5 -4t-2.5 -12l-267 -426l-37 -262q-3 -16 -20 -16h-44q-16 0 -13 16l38 262l-146 427q-2 7 1.5 11t10.5 4h47q11 0 15 -2t7 -10l58 -178q21 -64 34 -107.5t21 -74.5q23 41 49 86t58 96l109 176q5 8 9.5 11t13.5 3h48zM192 784q-14 0 -12 13l9 66
q3 13 16 13h61q17 0 14 -13l-9 -66q-2 -13 -18 -13h-61zM380 784q-15 0 -13 13l9 66q3 13 17 13h61q16 0 13 -13l-9 -66q-2 -13 -17 -13h-61z" />
    <glyph glyph-name="Zacute" unicode="&#x179;" horiz-adv-x="531" 
d="M439 65q19 0 16 -17l-6 -32q-3 -16 -20 -16h-410q-23 0 -20 22l4 27q2 12 7 21.5t13 20.5l418 564h-320q-19 0 -16 17l6 32q3 16 20 16h389q21 0 18 -19l-3 -25q-2 -12 -8.5 -22t-17.5 -25l-417 -564h347zM290 773q-11 0 -4 10l83 120q5 7 8 8.5t11 1.5h67q5 0 6.5 -3.5
t-4.5 -9.5l-103 -119q-7 -8 -17 -8h-47z" />
    <glyph glyph-name="Zcaron" unicode="&#x17d;" horiz-adv-x="531" 
d="M439 65q19 0 16 -17l-6 -32q-3 -16 -20 -16h-410q-23 0 -20 22l4 27q2 12 7 21.5t13 20.5l418 564h-320q-19 0 -16 17l6 32q3 16 20 16h389q21 0 18 -19l-3 -25q-2 -12 -8.5 -22t-17.5 -25l-417 -564h347zM397 780q-8 -7 -13 -9.5t-14 -2.5h-68q-9 0 -13.5 3t-9.5 9
l-80 99q-2 4 -2 7.5t5 8.5l23 21q10 9 19 1l94 -97l130 97q9 8 17 -1l17 -21q6 -9 -1 -16z" />
    <glyph glyph-name="Zdotaccent" unicode="&#x17b;" horiz-adv-x="531" 
d="M439 65q19 0 16 -17l-6 -32q-3 -16 -20 -16h-410q-23 0 -20 22l4 27q2 12 7 21.5t13 20.5l418 564h-320q-19 0 -16 17l6 32q3 16 20 16h389q21 0 18 -19l-3 -25q-2 -12 -8.5 -22t-17.5 -25l-417 -564h347zM306 795q-16 0 -13 13l9 66q2 13 17 13h61q15 0 13 -13l-9 -66
q-3 -13 -17 -13h-61z" />
    <glyph glyph-name="agrave" unicode="&#xe0;" horiz-adv-x="550" 
d="M471 223q-8 -60 -11 -111.5t-3 -96.5q0 -5 -1 -10t-19 -5h-27q-11 0 -14.5 3t-5.5 11q-1 5 -1.5 14.5t-0.5 20.5t0.5 22t0.5 19q-21 -41 -65.5 -70.5t-98.5 -29.5q-49 0 -84.5 16.5t-58 45.5t-33 67.5t-10.5 83.5q0 61 17 121t50 107.5t82 77t114 29.5q53 0 85 -19.5
t52 -50.5l11 44q4 16 18 16h31q10 0 14.5 -3t2.5 -14q-4 -23 -11.5 -62t-13.5 -82zM423 398q-20 35 -50.5 54t-72.5 19q-47 0 -82 -24.5t-57.5 -63t-33.5 -84.5t-11 -89q0 -32 6 -60t20.5 -49t37 -33t55.5 -12q64 0 107 51q25 29 39.5 66t22.5 94zM330 584q-11 0 -15 8
l-72 120q-7 13 6 13h64q8 0 11 -1.5t6 -8.5l47 -121q3 -10 -8 -10h-39z" />
    <glyph glyph-name="aacute" unicode="&#xe1;" horiz-adv-x="550" 
d="M471 223q-8 -60 -11 -111.5t-3 -96.5q0 -5 -1 -10t-19 -5h-27q-11 0 -14.5 3t-5.5 11q-1 5 -1.5 14.5t-0.5 20.5t0.5 22t0.5 19q-21 -41 -65.5 -70.5t-98.5 -29.5q-49 0 -84.5 16.5t-58 45.5t-33 67.5t-10.5 83.5q0 61 17 121t50 107.5t82 77t114 29.5q53 0 85 -19.5
t52 -50.5l11 44q4 16 18 16h31q10 0 14.5 -3t2.5 -14q-4 -23 -11.5 -62t-13.5 -82zM423 398q-20 35 -50.5 54t-72.5 19q-47 0 -82 -24.5t-57.5 -63t-33.5 -84.5t-11 -89q0 -32 6 -60t20.5 -49t37 -33t55.5 -12q64 0 107 51q25 29 39.5 66t22.5 94zM273 584q-11 0 -4 10
l81 121q5 7 8 8.5t11 1.5h65q6 0 8 -3.5t-4 -9.5l-101 -120q-7 -8 -17 -8h-47z" />
    <glyph glyph-name="acircumflex" unicode="&#xe2;" horiz-adv-x="550" 
d="M471 223q-8 -60 -11 -111.5t-3 -96.5q0 -5 -1 -10t-19 -5h-27q-11 0 -14.5 3t-5.5 11q-1 5 -1.5 14.5t-0.5 20.5t0.5 22t0.5 19q-21 -41 -65.5 -70.5t-98.5 -29.5q-49 0 -84.5 16.5t-58 45.5t-33 67.5t-10.5 83.5q0 61 17 121t50 107.5t82 77t114 29.5q53 0 85 -19.5
t52 -50.5l11 44q4 16 18 16h31q10 0 14.5 -3t2.5 -14q-4 -23 -11.5 -62t-13.5 -82zM423 398q-20 35 -50.5 54t-72.5 19q-47 0 -82 -24.5t-57.5 -63t-33.5 -84.5t-11 -89q0 -32 6 -60t20.5 -49t37 -33t55.5 -12q64 0 107 51q25 29 39.5 66t22.5 94zM474 623q5 -6 -3 -16
l-18 -20q-10 -10 -18 -1l-96 94l-129 -95q-10 -8 -18 1l-18 23q-7 9 1 16l105 95q8 7 13 9.5t14 2.5h67q9 0 13 -2.5t10 -9.5z" />
    <glyph glyph-name="atilde" unicode="&#xe3;" horiz-adv-x="550" 
d="M471 223q-8 -60 -11 -111.5t-3 -96.5q0 -5 -1 -10t-19 -5h-27q-11 0 -14.5 3t-5.5 11q-1 5 -1.5 14.5t-0.5 20.5t0.5 22t0.5 19q-21 -41 -65.5 -70.5t-98.5 -29.5q-49 0 -84.5 16.5t-58 45.5t-33 67.5t-10.5 83.5q0 61 17 121t50 107.5t82 77t114 29.5q53 0 85 -19.5
t52 -50.5l11 44q4 16 18 16h31q10 0 14.5 -3t2.5 -14q-4 -23 -11.5 -62t-13.5 -82zM423 398q-20 35 -50.5 54t-72.5 19q-47 0 -82 -24.5t-57.5 -63t-33.5 -84.5t-11 -89q0 -32 6 -60t20.5 -49t37 -33t55.5 -12q64 0 107 51q25 29 39.5 66t22.5 94zM491 656
q-14 -16 -38 -29.5t-49 -13.5q-19 0 -32.5 5t-26.5 11t-26 11t-31 5t-31.5 -8.5t-24.5 -19.5q-8 -8 -14 0l-23 29q-2 5 -0.5 8t6.5 10q11 14 37 29t54 15q19 0 32.5 -5t26 -11t26 -11t31.5 -5q16 0 29 8.5t22 16.5q5 4 10 5t9 -5l17 -24q6 -9 -4 -21z" />
    <glyph glyph-name="adieresis" unicode="&#xe4;" horiz-adv-x="550" 
d="M471 223q-8 -60 -11 -111.5t-3 -96.5q0 -5 -1 -10t-19 -5h-27q-11 0 -14.5 3t-5.5 11q-1 5 -1.5 14.5t-0.5 20.5t0.5 22t0.5 19q-21 -41 -65.5 -70.5t-98.5 -29.5q-49 0 -84.5 16.5t-58 45.5t-33 67.5t-10.5 83.5q0 61 17 121t50 107.5t82 77t114 29.5q53 0 85 -19.5
t52 -50.5l11 44q4 16 18 16h31q10 0 14.5 -3t2.5 -14q-4 -23 -11.5 -62t-13.5 -82zM423 398q-20 35 -50.5 54t-72.5 19q-47 0 -82 -24.5t-57.5 -63t-33.5 -84.5t-11 -89q0 -32 6 -60t20.5 -49t37 -33t55.5 -12q64 0 107 51q25 29 39.5 66t22.5 94zM195 600q-14 0 -12 13
l10 66q2 13 15 13h61q17 0 15 -13l-10 -66q-2 -13 -18 -13h-61zM383 600q-15 0 -13 13l10 66q2 13 16 13h61q16 0 14 -13l-10 -66q-2 -13 -17 -13h-61z" />
    <glyph glyph-name="amacron" unicode="&#x101;" horiz-adv-x="550" 
d="M471 223q-8 -60 -11 -111.5t-3 -96.5q0 -5 -1 -10t-19 -5h-27q-11 0 -14.5 3t-5.5 11q-1 5 -1.5 14.5t-0.5 20.5t0.5 22t0.5 19q-21 -41 -65.5 -70.5t-98.5 -29.5q-49 0 -84.5 16.5t-58 45.5t-33 67.5t-10.5 83.5q0 61 17 121t50 107.5t82 77t114 29.5q53 0 85 -19.5
t52 -50.5l11 44q4 16 18 16h31q10 0 14.5 -3t2.5 -14q-4 -23 -11.5 -62t-13.5 -82zM423 398q-20 35 -50.5 54t-72.5 19q-47 0 -82 -24.5t-57.5 -63t-33.5 -84.5t-11 -89q0 -32 6 -60t20.5 -49t37 -33t55.5 -12q64 0 107 51q25 29 39.5 66t22.5 94zM479 689q15 0 12 -14
l-5 -37q-1 -14 -16 -14h-267q-13 0 -12 14l5 37q3 14 16 14h267z" />
    <glyph glyph-name="abreve" unicode="&#x103;" horiz-adv-x="550" 
d="M471 223q-8 -60 -11 -111.5t-3 -96.5q0 -5 -1 -10t-19 -5h-27q-11 0 -14.5 3t-5.5 11q-1 5 -1.5 14.5t-0.5 20.5t0.5 22t0.5 19q-21 -41 -65.5 -70.5t-98.5 -29.5q-49 0 -84.5 16.5t-58 45.5t-33 67.5t-10.5 83.5q0 61 17 121t50 107.5t82 77t114 29.5q53 0 85 -19.5
t52 -50.5l11 44q4 16 18 16h31q10 0 14.5 -3t2.5 -14q-4 -23 -11.5 -62t-13.5 -82zM423 398q-20 35 -50.5 54t-72.5 19q-47 0 -82 -24.5t-57.5 -63t-33.5 -84.5t-11 -89q0 -32 6 -60t20.5 -49t37 -33t55.5 -12q64 0 107 51q25 29 39.5 66t22.5 94zM326 593q-56 0 -92.5 22.5
t-36.5 71.5v6.5t1 8.5q1 11 13 11h41q11 0 11 -12q0 -57 68 -57q33 0 56 15.5t29 41.5q3 12 13 12h42q14 0 11 -11q-14 -58 -55.5 -83.5t-100.5 -25.5z" />
    <glyph glyph-name="acaron" unicode="&#x1ce;" horiz-adv-x="550" 
d="M471 223q-8 -60 -11 -111.5t-3 -96.5q0 -5 -1 -10t-19 -5h-27q-11 0 -14.5 3t-5.5 11q-1 5 -1.5 14.5t-0.5 20.5t0.5 22t0.5 19q-21 -41 -65.5 -70.5t-98.5 -29.5q-49 0 -84.5 16.5t-58 45.5t-33 67.5t-10.5 83.5q0 61 17 121t50 107.5t82 77t114 29.5q53 0 85 -19.5
t52 -50.5l11 44q4 16 18 16h31q10 0 14.5 -3t2.5 -14q-4 -23 -11.5 -62t-13.5 -82zM423 398q-20 35 -50.5 54t-72.5 19q-47 0 -82 -24.5t-57.5 -63t-33.5 -84.5t-11 -89q0 -32 6 -60t20.5 -49t37 -33t55.5 -12q64 0 107 51q25 29 39.5 66t22.5 94zM381 592q-8 -7 -13 -9.5
t-14 -2.5h-67q-9 0 -13.5 2.5t-9.5 9.5l-82 97q-5 8 3 16l23 21q10 10 19 1l98 -95l126 95q9 8 17 -1l17 -21q5 -5 4 -8.5t-5 -7.5z" />
    <glyph glyph-name="aring" unicode="&#xe5;" horiz-adv-x="550" 
d="M471 223q-8 -60 -11 -111.5t-3 -96.5q0 -5 -1 -10t-19 -5h-27q-11 0 -14.5 3t-5.5 11q-1 5 -1.5 14.5t-0.5 20.5t0.5 22t0.5 19q-21 -41 -65.5 -70.5t-98.5 -29.5q-49 0 -84.5 16.5t-58 45.5t-33 67.5t-10.5 83.5q0 61 17 121t50 107.5t82 77t114 29.5q53 0 85 -19.5
t52 -50.5l11 44q4 16 18 16h31q10 0 14.5 -3t2.5 -14q-4 -23 -11.5 -62t-13.5 -82zM423 398q-20 35 -50.5 54t-72.5 19q-47 0 -82 -24.5t-57.5 -63t-33.5 -84.5t-11 -89q0 -32 6 -60t20.5 -49t37 -33t55.5 -12q64 0 107 51q25 29 39.5 66t22.5 94zM320 583q-31 0 -53.5 20.5
t-22.5 53.5q0 18 8 35t22 29.5t31.5 20t37.5 7.5q32 0 54.5 -20.5t22.5 -52.5q0 -19 -8.5 -36t-22 -29.5t-32 -20t-37.5 -7.5zM326 623q16 0 32 13t16 35q0 16 -9.5 27t-26.5 11q-20 0 -35 -13.5t-15 -35.5q0 -17 11 -27t27 -10z" />
    <glyph glyph-name="aringacute" unicode="&#x1fb;" horiz-adv-x="550" 
d="M471 223q-8 -60 -11 -111.5t-3 -96.5q0 -5 -1 -10t-19 -5h-27q-11 0 -14.5 3t-5.5 11q-1 5 -1.5 14.5t-0.5 20.5t0.5 22t0.5 19q-21 -41 -65.5 -70.5t-98.5 -29.5q-49 0 -84.5 16.5t-58 45.5t-33 67.5t-10.5 83.5q0 61 17 121t50 107.5t82 77t114 29.5q53 0 85 -19.5
t52 -50.5l11 44q4 16 18 16h31q10 0 14.5 -3t2.5 -14q-4 -23 -11.5 -62t-13.5 -82zM423 398q-20 35 -50.5 54t-72.5 19q-47 0 -82 -24.5t-57.5 -63t-33.5 -84.5t-11 -89q0 -32 6 -60t20.5 -49t37 -33t55.5 -12q64 0 107 51q25 29 39.5 66t22.5 94zM318 573q-31 0 -53.5 20.5
t-22.5 53.5q0 18 8 35t22 29.5t31.5 20t37.5 7.5q32 0 54.5 -20.5t22.5 -52.5q0 -19 -8.5 -36t-22 -29.5t-32 -20t-37.5 -7.5zM324 613q16 0 32 13t16 35q0 16 -9.5 27t-26.5 11q-20 0 -35 -13.5t-15 -35.5q0 -17 11 -27t27 -10zM294 771q-11 0 -4 10l81 121q5 7 8 8.5
t11 1.5h65q6 0 8 -3.5t-4 -9.5l-101 -120q-7 -8 -17 -8h-47z" />
    <glyph glyph-name="aogonek" unicode="&#x105;" horiz-adv-x="550" 
d="M379 -223q-50 0 -72.5 23.5t-22.5 55.5q0 41 27.5 79t76.5 73q-2 14 -2.5 37.5t0.5 38.5q-23 -39 -65 -66.5t-96 -27.5q-49 0 -84.5 16.5t-58 45.5t-33 67.5t-10.5 83.5q0 61 17 121t50 107.5t82 77t114 29.5q53 0 85 -19.5t52 -50.5l11 44q4 16 18 16h31q10 0 14.5 -3
t2.5 -14q-4 -23 -11.5 -62t-13.5 -82l-20 -144q-8 -60 -11 -110.5t-3 -97.5q0 -6 -2 -9t-7 -6q-44 -29 -67.5 -60.5t-23.5 -63.5q0 -23 14 -32t33 -9q16 0 41 5q12 3 12 -8v-30q0 -7 -1.5 -10t-9.5 -5q-14 -5 -31.5 -7.5t-35.5 -2.5zM423 398q-20 35 -50.5 54t-72.5 19
q-47 0 -82 -24.5t-57.5 -63t-33.5 -84.5t-11 -89q0 -32 6 -60t20.5 -49t37 -33t55.5 -12q64 0 107 51q25 29 39.5 66t22.5 94z" />
    <glyph glyph-name="ae" unicode="&#xe6;" horiz-adv-x="881" 
d="M751 88q8 4 12 2.5t7 -10.5l9 -31q4 -13 -8 -19q-76 -40 -167 -40q-158 0 -199 112q-33 -51 -89 -81.5t-123 -30.5q-46 0 -78.5 11t-53.5 30t-30.5 44.5t-9.5 53.5q0 85 61.5 128t170.5 43q47 0 88 -6t61 -11q5 26 6.5 46.5t1.5 31.5q0 44 -18 70q-14 20 -39.5 29.5
t-64.5 9.5q-38 0 -75.5 -8.5t-75.5 -24.5q-13 -5 -17.5 -5t-6.5 8l-11 37q-3 12 13 19q50 22 96.5 32t90.5 10q61 0 106.5 -22.5t61.5 -68.5q34 42 82 66.5t111 24.5q47 0 81 -15.5t56.5 -43.5t33 -65.5t10.5 -82.5q0 -16 -1.5 -34.5t-3.5 -32.5q-5 -25 -29 -25h-342
q-1 -8 -1.5 -16.5t-0.5 -16.5q0 -78 39 -113t113 -35q35 0 69 8t64 22zM201 56q46 0 79 14t56 37.5t36.5 53.5t19.5 62q-35 8 -72 11.5t-72 3.5q-28 0 -55 -5t-48 -16.5t-34 -31.5t-13 -50q0 -36 26 -57.5t77 -21.5zM768 299q1 8 1.5 16.5t0.5 18.5q0 27 -6.5 52t-20.5 43.5
t-36 29.5t-54 11q-59 0 -105.5 -40t-69.5 -131h290z" />
    <glyph glyph-name="aeacute" unicode="&#x1fd;" horiz-adv-x="881" 
d="M751 88q8 4 12 2.5t7 -10.5l9 -31q4 -13 -8 -19q-76 -40 -167 -40q-158 0 -199 112q-33 -51 -89 -81.5t-123 -30.5q-46 0 -78.5 11t-53.5 30t-30.5 44.5t-9.5 53.5q0 85 61.5 128t170.5 43q47 0 88 -6t61 -11q5 26 6.5 46.5t1.5 31.5q0 44 -18 70q-14 20 -39.5 29.5
t-64.5 9.5q-38 0 -75.5 -8.5t-75.5 -24.5q-13 -5 -17.5 -5t-6.5 8l-11 37q-3 12 13 19q50 22 96.5 32t90.5 10q61 0 106.5 -22.5t61.5 -68.5q34 42 82 66.5t111 24.5q47 0 81 -15.5t56.5 -43.5t33 -65.5t10.5 -82.5q0 -16 -1.5 -34.5t-3.5 -32.5q-5 -25 -29 -25h-342
q-1 -8 -1.5 -16.5t-0.5 -16.5q0 -78 39 -113t113 -35q35 0 69 8t64 22zM201 56q46 0 79 14t56 37.5t36.5 53.5t19.5 62q-35 8 -72 11.5t-72 3.5q-28 0 -55 -5t-48 -16.5t-34 -31.5t-13 -50q0 -36 26 -57.5t77 -21.5zM768 299q1 8 1.5 16.5t0.5 18.5q0 27 -6.5 52t-20.5 43.5
t-36 29.5t-54 11q-59 0 -105.5 -40t-69.5 -131h290zM439 584q-11 0 -4 10l81 121q5 7 8 8.5t11 1.5h65q6 0 8 -3.5t-4 -9.5l-101 -120q-7 -8 -17 -8h-47z" />
    <glyph glyph-name="cacute" unicode="&#x107;" horiz-adv-x="473" 
d="M405 47q4 -13 -8 -19q-34 -17 -76 -27.5t-84 -10.5q-51 0 -88.5 17t-62 46.5t-36 69.5t-11.5 86q0 60 17.5 118.5t52 105.5t86.5 76t121 29q45 0 82.5 -12.5t68.5 -32.5q3 -2 5 -6.5t-3 -12.5l-21 -33q-8 -12 -19 -5q-28 17 -58 25.5t-60 8.5q-49 0 -85.5 -23t-61 -60
t-36.5 -83t-12 -92q0 -33 7.5 -61t23.5 -49t41.5 -33t62.5 -12q34 0 68 8.5t58 20.5q8 4 12 2.5t7 -10.5zM277 584q-11 0 -4 10l81 121q5 7 8 8.5t11 1.5h65q6 0 8 -3.5t-4 -9.5l-101 -120q-7 -8 -17 -8h-47z" />
    <glyph glyph-name="ccedilla" unicode="&#xe7;" horiz-adv-x="473" 
d="M405 47q4 -13 -8 -19q-33 -17 -73.5 -27t-81.5 -11l-11 -43q5 1 14 1.5t16 0.5q33 0 57.5 -18.5t24.5 -54.5q0 -47 -34.5 -76t-91.5 -29q-23 0 -42.5 4t-34.5 11q-11 5 -6 16l10 26q5 13 16 8t27.5 -9.5t31.5 -4.5q22 0 39 10t17 32q0 17 -13.5 24.5t-43.5 7.5
q-11 0 -23 -0.5t-22 -1.5q-13 0 -10 11l24 89v1q-38 8 -66 27.5t-46 47.5t-27 63.5t-9 75.5q0 60 17.5 118.5t52 105.5t86.5 76t121 29q45 0 82.5 -12.5t68.5 -32.5q3 -2 5 -6.5t-3 -12.5l-21 -33q-8 -12 -19 -5q-28 17 -58 25.5t-60 8.5q-49 0 -85.5 -23t-61 -60t-36.5 -83
t-12 -92q0 -33 7.5 -61t23.5 -49t41.5 -33t62.5 -12q34 0 68 8.5t58 20.5q8 4 12 2.5t7 -10.5z" />
    <glyph glyph-name="ccircumflex" unicode="&#x109;" horiz-adv-x="473" 
d="M405 47q4 -13 -8 -19q-34 -17 -76 -27.5t-84 -10.5q-51 0 -88.5 17t-62 46.5t-36 69.5t-11.5 86q0 60 17.5 118.5t52 105.5t86.5 76t121 29q45 0 82.5 -12.5t68.5 -32.5q3 -2 5 -6.5t-3 -12.5l-21 -33q-8 -12 -19 -5q-28 17 -58 25.5t-60 8.5q-49 0 -85.5 -23t-61 -60
t-36.5 -83t-12 -92q0 -33 7.5 -61t23.5 -49t41.5 -33t62.5 -12q34 0 68 8.5t58 20.5q8 4 12 2.5t7 -10.5zM483 623q5 -6 -3 -16l-18 -20q-10 -10 -18 -1l-96 94l-129 -95q-10 -8 -18 1l-18 23q-7 9 1 16l105 95q8 7 13 9.5t14 2.5h67q9 0 13 -2.5t10 -9.5z" />
    <glyph glyph-name="ccaron" unicode="&#x10d;" horiz-adv-x="473" 
d="M405 47q4 -13 -8 -19q-34 -17 -76 -27.5t-84 -10.5q-51 0 -88.5 17t-62 46.5t-36 69.5t-11.5 86q0 60 17.5 118.5t52 105.5t86.5 76t121 29q45 0 82.5 -12.5t68.5 -32.5q3 -2 5 -6.5t-3 -12.5l-21 -33q-8 -12 -19 -5q-28 17 -58 25.5t-60 8.5q-49 0 -85.5 -23t-61 -60
t-36.5 -83t-12 -92q0 -33 7.5 -61t23.5 -49t41.5 -33t62.5 -12q34 0 68 8.5t58 20.5q8 4 12 2.5t7 -10.5zM388 592q-8 -7 -13 -9.5t-14 -2.5h-67q-9 0 -13.5 2.5t-9.5 9.5l-82 97q-5 8 3 16l23 21q10 10 19 1l98 -95l126 95q9 8 17 -1l17 -21q5 -5 4 -8.5t-5 -7.5z" />
    <glyph glyph-name="cdotaccent" unicode="&#x10b;" horiz-adv-x="473" 
d="M405 47q4 -13 -8 -19q-34 -17 -76 -27.5t-84 -10.5q-51 0 -88.5 17t-62 46.5t-36 69.5t-11.5 86q0 60 17.5 118.5t52 105.5t86.5 76t121 29q45 0 82.5 -12.5t68.5 -32.5q3 -2 5 -6.5t-3 -12.5l-21 -33q-8 -12 -19 -5q-28 17 -58 25.5t-60 8.5q-49 0 -85.5 -23t-61 -60
t-36.5 -83t-12 -92q0 -33 7.5 -61t23.5 -49t41.5 -33t62.5 -12q34 0 68 8.5t58 20.5q8 4 12 2.5t7 -10.5zM298 615q-15 0 -13 13l10 66q2 13 16 13h61q16 0 14 -13l-10 -66q-2 -13 -17 -13h-61z" />
    <glyph glyph-name="dcaron" unicode="&#x10f;" horiz-adv-x="638" 
d="M427 427q-21 20 -50 31.5t-64 11.5q-49 0 -86 -23t-61.5 -60.5t-37 -84.5t-12.5 -95q0 -77 33.5 -114t92.5 -37q32 0 56.5 11.5t43.5 31.5q24 26 37.5 60t21.5 85zM460 147q-3 -20 -5 -36t-2 -25q0 -14 7.5 -21.5t28.5 -7.5q6 0 9.5 -4t1.5 -14l-4 -21q-3 -13 -15 -16
q-5 -2 -15 -3t-19 -1q-18 0 -30 6.5t-19 17.5t-10.5 25.5t-3.5 30.5q-17 -34 -57 -61t-103 -27q-89 0 -137 58t-48 154q0 60 17 120t51.5 108t86.5 78t121 30q36 0 68.5 -11t53.5 -29l35 252q3 16 20 16h37q19 0 16 -16zM603 505q-16 0 -10 14l39 112l-14 7q-9 5 -12 8.5
t-1 13.5l7 55q3 14 17 14h67q15 0 14 -14l-4 -33q-2 -12 -4.5 -22t-6.5 -21.5t-10 -25.5t-15 -33l-28 -63q-5 -12 -18 -12h-21v0z" />
    <glyph glyph-name="dcroat" unicode="&#x111;" horiz-adv-x="570" 
d="M534 672h56q15 0 12 -15l-4 -27q-2 -9 -5.5 -11.5t-11.5 -2.5h-55l-66 -469q-3 -20 -5 -36t-2 -25q0 -29 32 -29q6 0 9.5 -4t1.5 -14l-4 -21q-3 -13 -15 -16q-5 -2 -12.5 -3t-17.5 -1q-31 0 -46.5 21t-16.5 59q-17 -34 -57 -61t-103 -27q-89 0 -137 58t-48 154
q0 60 17 120t51.5 108t86.5 78t121 30q36 0 68.5 -11t53.5 -29l16 118h-154q-15 0 -12 15l4 27q2 9 5.5 11.5t11.5 2.5h153l11 78q3 16 20 16h37q19 0 16 -16zM427 427q-21 20 -50 31.5t-64 11.5q-49 0 -86 -23t-61.5 -60.5t-37 -84.5t-12.5 -95q0 -77 33.5 -114t92.5 -37
q32 0 56.5 11.5t43.5 31.5q24 26 37.5 60t21.5 85z" />
    <glyph glyph-name="eth" unicode="&#xf0;" horiz-adv-x="545" 
d="M180 766q35 -12 66.5 -25t59.5 -28l119 61q14 8 19 -4l12 -26q3 -7 1.5 -12t-10.5 -10l-85 -44q78 -56 116.5 -134t40.5 -187q0 -60 -15 -124.5t-48 -118.5t-86 -89t-129 -35q-39 0 -75.5 14t-64.5 42t-45 69.5t-17 96.5q0 56 18 110.5t51.5 97t82.5 68.5t111 26
q33 0 66.5 -14.5t59.5 -41.5q-16 60 -50 105t-85 80l-136 -70q-13 -7 -19 5l-13 26q-6 12 7 19l104 54q-20 11 -42.5 19.5t-45.5 16.5q-4 2 -6 5.5t3 13.5l17 27q5 8 9 8.5t9 -1.5zM442 352q0 9 -0.5 18t-1.5 18q-32 29 -68 45t-75 16q-44 0 -78 -21t-57 -54.5t-34.5 -75.5
t-11.5 -83q0 -71 36 -113.5t101 -42.5q54 0 90.5 31t58 76t31 96t9.5 90z" />
    <glyph glyph-name="egrave" unicode="&#xe8;" horiz-adv-x="531" 
d="M401 88q8 4 12 2.5t7 -10.5l9 -31q4 -13 -8 -19q-76 -40 -174 -40q-103 0 -155.5 57t-52.5 155q0 61 17 121t51.5 108t85.5 77.5t120 29.5q47 0 81 -15.5t56.5 -43.5t33 -65.5t10.5 -82.5q0 -16 -1.5 -34.5t-3.5 -32.5q-5 -25 -29 -25h-342q-1 -8 -1.5 -16.5t-0.5 -16.5
q0 -78 39 -113t113 -35q35 0 69 8t64 22zM418 299q1 8 1.5 16.5t0.5 18.5q0 27 -6.5 52t-20.5 43.5t-36 29.5t-54 11q-59 0 -105.5 -40t-69.5 -131h290zM314 584q-11 0 -15 8l-72 120q-7 13 6 13h64q8 0 11 -1.5t6 -8.5l47 -121q3 -10 -8 -10h-39z" />
    <glyph glyph-name="eacute" unicode="&#xe9;" horiz-adv-x="531" 
d="M401 88q8 4 12 2.5t7 -10.5l9 -31q4 -13 -8 -19q-76 -40 -174 -40q-103 0 -155.5 57t-52.5 155q0 61 17 121t51.5 108t85.5 77.5t120 29.5q47 0 81 -15.5t56.5 -43.5t33 -65.5t10.5 -82.5q0 -16 -1.5 -34.5t-3.5 -32.5q-5 -25 -29 -25h-342q-1 -8 -1.5 -16.5t-0.5 -16.5
q0 -78 39 -113t113 -35q35 0 69 8t64 22zM418 299q1 8 1.5 16.5t0.5 18.5q0 27 -6.5 52t-20.5 43.5t-36 29.5t-54 11q-59 0 -105.5 -40t-69.5 -131h290zM269 584q-11 0 -4 10l81 121q5 7 8 8.5t11 1.5h65q6 0 8 -3.5t-4 -9.5l-101 -120q-7 -8 -17 -8h-47z" />
    <glyph glyph-name="ecircumflex" unicode="&#xea;" horiz-adv-x="531" 
d="M401 88q8 4 12 2.5t7 -10.5l9 -31q4 -13 -8 -19q-76 -40 -174 -40q-103 0 -155.5 57t-52.5 155q0 61 17 121t51.5 108t85.5 77.5t120 29.5q47 0 81 -15.5t56.5 -43.5t33 -65.5t10.5 -82.5q0 -16 -1.5 -34.5t-3.5 -32.5q-5 -25 -29 -25h-342q-1 -8 -1.5 -16.5t-0.5 -16.5
q0 -78 39 -113t113 -35q35 0 69 8t64 22zM418 299q1 8 1.5 16.5t0.5 18.5q0 27 -6.5 52t-20.5 43.5t-36 29.5t-54 11q-59 0 -105.5 -40t-69.5 -131h290zM468 623q5 -6 -3 -16l-18 -20q-10 -10 -18 -1l-96 94l-129 -95q-10 -8 -18 1l-18 23q-7 9 1 16l105 95q8 7 13 9.5
t14 2.5h67q9 0 13 -2.5t10 -9.5z" />
    <glyph glyph-name="ecaron" unicode="&#x11b;" horiz-adv-x="531" 
d="M401 88q8 4 12 2.5t7 -10.5l9 -31q4 -13 -8 -19q-76 -40 -174 -40q-103 0 -155.5 57t-52.5 155q0 61 17 121t51.5 108t85.5 77.5t120 29.5q47 0 81 -15.5t56.5 -43.5t33 -65.5t10.5 -82.5q0 -16 -1.5 -34.5t-3.5 -32.5q-5 -25 -29 -25h-342q-1 -8 -1.5 -16.5t-0.5 -16.5
q0 -78 39 -113t113 -35q35 0 69 8t64 22zM418 299q1 8 1.5 16.5t0.5 18.5q0 27 -6.5 52t-20.5 43.5t-36 29.5t-54 11q-59 0 -105.5 -40t-69.5 -131h290zM379 592q-8 -7 -13 -9.5t-14 -2.5h-67q-9 0 -13.5 2.5t-9.5 9.5l-82 97q-5 8 3 16l23 21q10 10 19 1l98 -95l126 95
q9 8 17 -1l17 -21q5 -5 4 -8.5t-5 -7.5z" />
    <glyph glyph-name="edieresis" unicode="&#xeb;" horiz-adv-x="531" 
d="M401 88q8 4 12 2.5t7 -10.5l9 -31q4 -13 -8 -19q-76 -40 -174 -40q-103 0 -155.5 57t-52.5 155q0 61 17 121t51.5 108t85.5 77.5t120 29.5q47 0 81 -15.5t56.5 -43.5t33 -65.5t10.5 -82.5q0 -16 -1.5 -34.5t-3.5 -32.5q-5 -25 -29 -25h-342q-1 -8 -1.5 -16.5t-0.5 -16.5
q0 -78 39 -113t113 -35q35 0 69 8t64 22zM418 299q1 8 1.5 16.5t0.5 18.5q0 27 -6.5 52t-20.5 43.5t-36 29.5t-54 11q-59 0 -105.5 -40t-69.5 -131h290zM193 600q-14 0 -12 13l10 66q2 13 15 13h61q17 0 15 -13l-10 -66q-2 -13 -18 -13h-61zM381 600q-15 0 -13 13l10 66
q2 13 16 13h61q16 0 14 -13l-10 -66q-2 -13 -17 -13h-61z" />
    <glyph glyph-name="emacron" unicode="&#x113;" horiz-adv-x="531" 
d="M401 88q8 4 12 2.5t7 -10.5l9 -31q4 -13 -8 -19q-76 -40 -174 -40q-103 0 -155.5 57t-52.5 155q0 61 17 121t51.5 108t85.5 77.5t120 29.5q47 0 81 -15.5t56.5 -43.5t33 -65.5t10.5 -82.5q0 -16 -1.5 -34.5t-3.5 -32.5q-5 -25 -29 -25h-342q-1 -8 -1.5 -16.5t-0.5 -16.5
q0 -78 39 -113t113 -35q35 0 69 8t64 22zM418 299q1 8 1.5 16.5t0.5 18.5q0 27 -6.5 52t-20.5 43.5t-36 29.5t-54 11q-59 0 -105.5 -40t-69.5 -131h290zM468 689q15 0 12 -14l-5 -37q-1 -14 -16 -14h-267q-13 0 -12 14l5 37q3 14 16 14h267z" />
    <glyph glyph-name="ebreve" unicode="&#x115;" horiz-adv-x="531" 
d="M401 88q8 4 12 2.5t7 -10.5l9 -31q4 -13 -8 -19q-76 -40 -174 -40q-103 0 -155.5 57t-52.5 155q0 61 17 121t51.5 108t85.5 77.5t120 29.5q47 0 81 -15.5t56.5 -43.5t33 -65.5t10.5 -82.5q0 -16 -1.5 -34.5t-3.5 -32.5q-5 -25 -29 -25h-342q-1 -8 -1.5 -16.5t-0.5 -16.5
q0 -78 39 -113t113 -35q35 0 69 8t64 22zM418 299q1 8 1.5 16.5t0.5 18.5q0 27 -6.5 52t-20.5 43.5t-36 29.5t-54 11q-59 0 -105.5 -40t-69.5 -131h290zM320 593q-56 0 -92.5 22.5t-36.5 71.5v6.5t1 8.5q1 11 13 11h41q11 0 11 -12q0 -57 68 -57q33 0 56 15.5t29 41.5
q3 12 13 12h42q14 0 11 -11q-14 -58 -55.5 -83.5t-100.5 -25.5z" />
    <glyph glyph-name="edotaccent" unicode="&#x117;" horiz-adv-x="531" 
d="M401 88q8 4 12 2.5t7 -10.5l9 -31q4 -13 -8 -19q-76 -40 -174 -40q-103 0 -155.5 57t-52.5 155q0 61 17 121t51.5 108t85.5 77.5t120 29.5q47 0 81 -15.5t56.5 -43.5t33 -65.5t10.5 -82.5q0 -16 -1.5 -34.5t-3.5 -32.5q-5 -25 -29 -25h-342q-1 -8 -1.5 -16.5t-0.5 -16.5
q0 -78 39 -113t113 -35q35 0 69 8t64 22zM418 299q1 8 1.5 16.5t0.5 18.5q0 27 -6.5 52t-20.5 43.5t-36 29.5t-54 11q-59 0 -105.5 -40t-69.5 -131h290zM291 615q-15 0 -13 13l10 66q2 13 16 13h61q16 0 14 -13l-10 -66q-2 -13 -17 -13h-61z" />
    <glyph glyph-name="eogonek" unicode="&#x119;" horiz-adv-x="531" 
d="M401 88q8 4 12 2.5t7 -10.5l9 -31q2 -8 -0.5 -12t-7.5 -7q-65 -39 -94 -76.5t-29 -72.5q0 -26 14 -36t33 -10q16 0 41 5q12 3 12 -8v-30q0 -7 -1.5 -10t-9.5 -5q-14 -5 -31.5 -7.5t-35.5 -2.5q-50 0 -72.5 23.5t-22.5 55.5q0 42 25.5 76.5t68.5 63.5q-35 -6 -72 -6
q-103 0 -155.5 57t-52.5 155q0 61 17 121t51.5 108t85.5 77.5t120 29.5q47 0 81 -15.5t56.5 -43.5t33 -65.5t10.5 -82.5q0 -16 -1.5 -34.5t-3.5 -32.5q-5 -25 -29 -25h-342q-1 -8 -1.5 -16.5t-0.5 -16.5q0 -78 39 -113t113 -35q35 0 69 8t64 22zM418 299q1 8 1.5 16.5
t0.5 18.5q0 27 -6.5 52t-20.5 43.5t-36 29.5t-54 11q-59 0 -105.5 -40t-69.5 -131h290z" />
    <glyph glyph-name="gcircumflex" unicode="&#x11d;" horiz-adv-x="550" 
d="M455 517q4 11 17 11h26q17 0 16 -15q-3 -30 -7.5 -67t-9.5 -72l-49 -369q-17 -124 -79.5 -190.5t-176.5 -66.5q-42 0 -79.5 7.5t-63.5 19.5q-12 5 -6 20l14 33q3 8 7.5 8.5t12.5 -2.5q21 -9 51.5 -15.5t63.5 -6.5q81 0 124.5 45.5t57.5 141.5l13 85q-14 -21 -33 -36.5
t-41.5 -26t-46.5 -16t-47 -5.5q-89 0 -132.5 57t-43.5 151q0 64 18 124t52 105.5t83.5 73t112.5 27.5q46 0 78.5 -19.5t54.5 -46.5zM426 402q-18 32 -49 50.5t-76 18.5q-46 0 -80 -23t-56.5 -59.5t-33.5 -83t-11 -94.5q0 -70 30 -107t90 -37q37 0 66 15t50 39t33.5 54.5
t16.5 61.5zM470 623q5 -6 -3 -16l-18 -20q-10 -10 -18 -1l-96 94l-129 -95q-10 -8 -18 1l-18 23q-7 9 1 16l105 95q8 7 13 9.5t14 2.5h67q9 0 13 -2.5t10 -9.5z" />
    <glyph glyph-name="gbreve" unicode="&#x11f;" horiz-adv-x="550" 
d="M455 517q4 11 17 11h26q17 0 16 -15q-3 -30 -7.5 -67t-9.5 -72l-49 -369q-17 -124 -79.5 -190.5t-176.5 -66.5q-42 0 -79.5 7.5t-63.5 19.5q-12 5 -6 20l14 33q3 8 7.5 8.5t12.5 -2.5q21 -9 51.5 -15.5t63.5 -6.5q81 0 124.5 45.5t57.5 141.5l13 85q-14 -21 -33 -36.5
t-41.5 -26t-46.5 -16t-47 -5.5q-89 0 -132.5 57t-43.5 151q0 64 18 124t52 105.5t83.5 73t112.5 27.5q46 0 78.5 -19.5t54.5 -46.5zM426 402q-18 32 -49 50.5t-76 18.5q-46 0 -80 -23t-56.5 -59.5t-33.5 -83t-11 -94.5q0 -70 30 -107t90 -37q37 0 66 15t50 39t33.5 54.5
t16.5 61.5zM326 593q-56 0 -92.5 22.5t-36.5 71.5v6.5t1 8.5q1 11 13 11h41q11 0 11 -12q0 -57 68 -57q33 0 56 15.5t29 41.5q3 12 13 12h42q14 0 11 -11q-14 -58 -55.5 -83.5t-100.5 -25.5z" />
    <glyph glyph-name="gdotaccent" unicode="&#x121;" horiz-adv-x="550" 
d="M455 517q4 11 17 11h26q17 0 16 -15q-3 -30 -7.5 -67t-9.5 -72l-49 -369q-17 -124 -79.5 -190.5t-176.5 -66.5q-42 0 -79.5 7.5t-63.5 19.5q-12 5 -6 20l14 33q3 8 7.5 8.5t12.5 -2.5q21 -9 51.5 -15.5t63.5 -6.5q81 0 124.5 45.5t57.5 141.5l13 85q-14 -21 -33 -36.5
t-41.5 -26t-46.5 -16t-47 -5.5q-89 0 -132.5 57t-43.5 151q0 64 18 124t52 105.5t83.5 73t112.5 27.5q46 0 78.5 -19.5t54.5 -46.5zM426 402q-18 32 -49 50.5t-76 18.5q-46 0 -80 -23t-56.5 -59.5t-33.5 -83t-11 -94.5q0 -70 30 -107t90 -37q37 0 66 15t50 39t33.5 54.5
t16.5 61.5zM298 615q-15 0 -13 13l10 66q2 13 16 13h61q16 0 14 -13l-10 -66q-2 -13 -17 -13h-61z" />
    <glyph glyph-name="gcommaaccent" unicode="&#x123;" horiz-adv-x="550" 
d="M455 517q4 11 17 11h26q17 0 16 -15q-3 -30 -7.5 -67t-9.5 -72l-49 -369q-17 -124 -79.5 -190.5t-176.5 -66.5q-42 0 -79.5 7.5t-63.5 19.5q-12 5 -6 20l14 33q3 8 7.5 8.5t12.5 -2.5q21 -9 51.5 -15.5t63.5 -6.5q81 0 124.5 45.5t57.5 141.5l13 85q-14 -21 -33 -36.5
t-41.5 -26t-46.5 -16t-47 -5.5q-89 0 -132.5 57t-43.5 151q0 64 18 124t52 105.5t83.5 73t112.5 27.5q46 0 78.5 -19.5t54.5 -46.5zM426 402q-18 32 -49 50.5t-76 18.5q-46 0 -80 -23t-56.5 -59.5t-33.5 -83t-11 -94.5q0 -70 30 -107t90 -37q37 0 66 15t50 39t33.5 54.5
t16.5 61.5zM389.977 819.95q15.999 0 9.99902 -13.999l-38.998 -111.993l14 -7q8.99902 -5 11.999 -8.49902q3 -3.5 1 -13.5l-7 -54.9961q-3 -13.999 -16.999 -13.999h-66.9961q-14.999 0 -13.999 13.999l4 32.998q2 11.999 4.5 21.998q2.5 10 6.49902 21.499
q4 11.499 10 25.499q5.99902 13.999 14.999 32.9971l27.998 62.9971q5 11.999 17.999 11.999h20.999v0z" />
    <glyph glyph-name="hcircumflex" unicode="&#x125;" horiz-adv-x="566" 
d="M464 16q-3 -16 -20 -16h-37q-19 0 -16 16l36 257q5 30 7 52.5t2 40.5q0 54 -28.5 77.5t-87.5 23.5q-73 0 -121 -45q-14 -13 -22.5 -30t-15 -42t-11.5 -59.5t-12 -82.5l-27 -192q-3 -16 -20 -16h-37q-19 0 -16 16l103 734q3 16 20 16h37q19 0 16 -16l-40 -287
q32 36 77 55.5t98 19.5q75 0 118 -37.5t43 -118.5q0 -14 -1.5 -33t-3.5 -34zM328 794q5 -6 -3 -16l-18 -20q-10 -10 -18 -1l-96 94l-129 -95q-10 -8 -18 1l-18 23q-7 9 1 16l105 95q8 7 13 9.5t14 2.5h67q9 0 13 -2.5t10 -9.5z" />
    <glyph glyph-name="hbar" unicode="&#x127;" horiz-adv-x="566" 
d="M464 16q-3 -16 -20 -16h-37q-19 0 -16 16l36 257q5 30 7 52.5t2 40.5q0 54 -28.5 77.5t-87.5 23.5q-73 0 -121 -45q-14 -13 -22.5 -30t-15 -42t-11.5 -59.5t-12 -82.5l-27 -192q-3 -16 -20 -16h-37q-19 0 -16 16l84 600h-55q-15 0 -12 15l4 27q2 9 5.5 11.5t11.5 2.5h54
l11 78q3 16 20 16h37q19 0 16 -16l-11 -78h159q15 0 12 -15l-4 -27q-2 -9 -5.5 -11.5t-11.5 -2.5h-158l-21 -153q32 36 77 55.5t98 19.5q75 0 118 -37.5t43 -118.5q0 -14 -1.5 -33t-3.5 -34z" />
    <glyph glyph-name="dotlessi" unicode="&#x131;" horiz-adv-x="224" 
d="M54 0q-15 0 -13 14l70 500q2 14 17 14h43q15 0 13 -14l-70 -500q-2 -14 -17 -14h-43z" />
    <glyph glyph-name="igrave" unicode="&#xec;" horiz-adv-x="224" 
d="M146 584q-11 0 -15 8l-72 120q-7 13 6 13h64q8 0 11 -1.5t6 -8.5l47 -121q3 -10 -8 -10h-39zM54 0q-15 0 -13 14l70 500q2 14 17 14h43q15 0 13 -14l-70 -500q-2 -14 -17 -14h-43z" />
    <glyph glyph-name="iacute" unicode="&#xed;" horiz-adv-x="224" 
d="M119 584q-11 0 -4 10l81 121q5 7 8 8.5t11 1.5h65q6 0 8 -3.5t-4 -9.5l-101 -120q-7 -8 -17 -8h-47zM54 0q-15 0 -13 14l70 500q2 14 17 14h43q15 0 13 -14l-70 -500q-2 -14 -17 -14h-43z" />
    <glyph glyph-name="icircumflex" unicode="&#xee;" horiz-adv-x="224" 
d="M54 0q-15 0 -13 14l70 500q2 14 17 14h43q15 0 13 -14l-70 -500q-2 -14 -17 -14h-43zM306 623q5 -6 -3 -16l-18 -20q-10 -10 -18 -1l-96 94l-129 -95q-10 -8 -18 1l-18 23q-7 9 1 16l105 95q8 7 13 9.5t14 2.5h67q9 0 13 -2.5t10 -9.5z" />
    <glyph glyph-name="itilde" unicode="&#x129;" horiz-adv-x="224" 
d="M309 656q-14 -16 -38 -29.5t-49 -13.5q-19 0 -32.5 5t-26.5 11t-26 11t-31 5t-31.5 -8.5t-24.5 -19.5q-8 -8 -14 0l-23 29q-2 5 -0.5 8t6.5 10q11 14 37 29t54 15q19 0 32.5 -5t26 -11t26 -11t31.5 -5q16 0 29 8.5t22 16.5q5 4 10 5t9 -5l17 -24q6 -9 -4 -21zM54 0
q-15 0 -13 14l70 500q2 14 17 14h43q15 0 13 -14l-70 -500q-2 -14 -17 -14h-43z" />
    <glyph glyph-name="idieresis" unicode="&#xef;" horiz-adv-x="224" 
d="M32 600q-14 0 -12 13l10 66q2 13 15 13h61q17 0 15 -13l-10 -66q-2 -13 -18 -13h-61zM220 600q-15 0 -13 13l10 66q2 13 16 13h61q16 0 14 -13l-10 -66q-2 -13 -17 -13h-61zM54 0q-15 0 -13 14l70 500q2 14 17 14h43q15 0 13 -14l-70 -500q-2 -14 -17 -14h-43z" />
    <glyph glyph-name="imacron" unicode="&#x12b;" horiz-adv-x="224" 
d="M300 689q15 0 12 -14l-5 -37q-1 -14 -16 -14h-267q-13 0 -12 14l5 37q3 14 16 14h267zM54 0q-15 0 -13 14l70 500q2 14 17 14h43q15 0 13 -14l-70 -500q-2 -14 -17 -14h-43z" />
    <glyph glyph-name="ibreve" unicode="&#x12d;" horiz-adv-x="224" 
d="M156 593q-56 0 -92.5 22.5t-36.5 71.5v6.5t1 8.5q1 11 13 11h41q11 0 11 -12q0 -57 68 -57q33 0 56 15.5t29 41.5q3 12 13 12h42q14 0 11 -11q-14 -58 -55.5 -83.5t-100.5 -25.5zM54 0q-15 0 -13 14l70 500q2 14 17 14h43q15 0 13 -14l-70 -500q-2 -14 -17 -14h-43z" />
    <glyph glyph-name="idotaccent" horiz-adv-x="224" 
d="M54 0q-15 0 -13 14l70 500q2 14 17 14h43q15 0 13 -14l-70 -500q-2 -14 -17 -14h-43zM130 638q-15 0 -13 14l10 71q2 14 17 14h68q16 0 14 -14l-10 -71q-2 -14 -18 -14h-68z" />
    <glyph glyph-name="iogonek" unicode="&#x12f;" horiz-adv-x="224" 
d="M33 -223q-50 0 -72.5 23.5t-22.5 55.5q0 42 29.5 79.5t71.5 66.5l72 512q2 14 17 14h43q15 0 13 -14l-69 -494q-2 -9 -4.5 -13t-7.5 -7q-48 -33 -70 -62.5t-22 -61.5q0 -23 14 -32t33 -9q16 0 41 5q12 3 12 -8v-30q0 -7 -1.5 -10t-9.5 -5q-14 -5 -31.5 -7.5t-35.5 -2.5z
M133 642q-15 0 -13 14l9 64q2 14 17 14h60q16 0 14 -14l-9 -64q-2 -14 -18 -14h-60z" />
    <glyph glyph-name="ij" unicode="&#x133;" horiz-adv-x="460" 
d="M54 0q-15 0 -13 14l70 500q2 14 17 14h43q15 0 13 -14l-70 -500q-2 -14 -17 -14h-43zM130 638q-15 0 -13 14l10 71q2 14 17 14h68q16 0 14 -14l-10 -71q-2 -14 -18 -14h-68zM351 514q2 14 17 14h43q15 0 13 -14l-72 -514q-8 -62 -23.5 -105.5t-41.5 -72.5
q-49 -55 -141 -55q-19 0 -37.5 2.5t-30.5 7.5q-12 4 -8 20l8 27q4 15 20 11q11 -2 24.5 -4t27.5 -2q25 0 46 8t36.5 27.5t27 53.5t19.5 86zM370 638q-15 0 -13 14l10 71q2 14 17 14h68q16 0 14 -14l-10 -71q-2 -14 -18 -14h-68z" />
    <glyph glyph-name="jcircumflex" unicode="&#x135;" horiz-adv-x="236" 
d="M127 514q2 14 17 14h43q15 0 13 -14l-72 -514q-9 -63 -24.5 -106t-41.5 -72q-49 -55 -141 -55q-19 0 -37 2.5t-30 7.5q-12 4 -8 20l8 28q4 15 20 11q11 -2 24 -4.5t28 -2.5q24 0 46 7.5t39 28.5q15 19 25.5 50.5t18.5 88.5zM322 623q5 -6 -3 -16l-18 -20q-10 -10 -18 -1
l-96 94l-129 -95q-10 -8 -18 1l-18 23q-7 9 1 16l105 95q8 7 13 9.5t14 2.5h67q9 0 13 -2.5t10 -9.5z" />
    <glyph glyph-name="kcommaaccent" unicode="&#x137;" horiz-adv-x="468" 
d="M51 0q-16 0 -13 14l103 738q3 14 17 14h43q16 0 13 -14l-63 -451h43q11 0 18.5 3t14.5 11l160 201q10 12 27 12h41q10 0 11.5 -5t-4.5 -12l-197 -242l153 -252q4 -6 2 -11.5t-11 -5.5h-45q-12 0 -16.5 3t-9.5 10l-120 208q-5 9 -11 12t-20 3h-45l-31 -222q-3 -14 -17 -14
h-43zM154 -278q-16 0 -10 14l39 112l-14 7q-9 5 -12 8.5t-1 13.5l7 55q3 14 17 14h67q15 0 14 -14l-4 -33q-2 -12 -4.5 -22t-6.5 -21.5t-10 -25.5t-15 -33l-28 -63q-5 -12 -18 -12h-21v0z" />
    <glyph glyph-name="kgreenlandic" unicode="&#x138;" horiz-adv-x="468" 
d="M51 0q-16 0 -13 14l70 504q3 14 17 14h43q16 0 13 -14l-30 -217h43q11 0 18.5 3t14.5 11l170 201q10 12 27 12h49q10 0 11 -5t-5 -12l-212 -245l151 -249q4 -6 2 -11.5t-11 -5.5h-45q-12 0 -16.5 3t-9.5 10l-120 208q-5 9 -11 12t-20 3h-45l-31 -222q-3 -14 -17 -14h-43z
" />
    <glyph glyph-name="lacute" unicode="&#x13a;" horiz-adv-x="227" 
d="M120 142q-6 -47 -6 -58q0 -16 7 -22t26 -6q14 0 13 -13l-3 -22q-1 -8 -3 -11t-8 -5q-13 -5 -39 -5q-32 0 -49.5 19.5t-17.5 48.5q0 14 2.5 39.5t10.5 78.5l47 330q9 64 14 106.5t7.5 69t3.5 40.5t1 20q2 14 15 14h45q13 0 13 -11q-1 -23 -7.5 -86.5t-20.5 -165.5z
M129 794q-11 0 -4 10l81 121q5 7 8 8.5t11 1.5h65q6 0 8 -3.5t-4 -9.5l-101 -120q-7 -8 -17 -8h-47z" />
    <glyph glyph-name="lcaron" unicode="&#x13e;" horiz-adv-x="290" 
d="M120 142q-6 -47 -6 -58q0 -16 7 -22t26 -6q14 0 13 -13l-3 -22q-1 -8 -3 -11t-8 -5q-13 -5 -39 -5q-32 0 -49.5 19.5t-17.5 48.5q0 14 2.5 39.5t10.5 78.5l47 330q9 64 14 106.5t7.5 69t3.5 40.5t1 20q2 14 15 14h45q13 0 13 -11q-1 -23 -7.5 -86.5t-20.5 -165.5z
M255 505q-16 0 -10 14l39 112l-14 7q-9 5 -12 8.5t-1 13.5l7 55q3 14 17 14h67q15 0 14 -14l-4 -33q-2 -12 -4.5 -22t-6.5 -21.5t-10 -25.5t-15 -33l-28 -63q-5 -12 -18 -12h-21v0z" />
    <glyph glyph-name="lcommaaccent" unicode="&#x13c;" horiz-adv-x="227" 
d="M120 142q-6 -47 -6 -58q0 -16 7 -22t26 -6q14 0 13 -13l-3 -22q-1 -8 -3 -11t-8 -5q-13 -5 -39 -5q-32 0 -49.5 19.5t-17.5 48.5q0 14 2.5 39.5t10.5 78.5l47 330q9 64 14 106.5t7.5 69t3.5 40.5t1 20q2 14 15 14h45q13 0 13 -11q-1 -23 -7.5 -86.5t-20.5 -165.5z
M21 -278q-16 0 -10 14l39 112l-14 7q-9 5 -12 8.5t-1 13.5l7 55q3 14 17 14h67q15 0 14 -14l-4 -33q-2 -12 -4.5 -22t-6.5 -21.5t-10 -25.5t-15 -33l-28 -63q-5 -12 -18 -12h-21v0z" />
    <glyph glyph-name="lslash" unicode="&#x142;" horiz-adv-x="233" 
d="M120 142q-6 -47 -6 -58q0 -16 7 -22t26 -6q14 0 13 -13l-3 -22q-1 -8 -3 -11t-8 -5q-13 -5 -39 -5q-32 0 -49.5 19.5t-17.5 48.5q0 14 2.5 39.5t10.5 78.5l15 104l-66 -48q-5 -4 -9 -2.5t-3 7.5l7 48q1 13 13 21l69 50l21 150q9 67 14 109.5t7.5 68.5t3 38.5t1.5 19.5
q2 7 4.5 10.5t10.5 3.5h45q13 0 13 -11q-1 -23 -7.5 -86.5t-20.5 -165.5l-11 -77l98 72q5 4 8.5 2.5t2.5 -7.5l-7 -48q-1 -13 -13 -21l-100 -74z" />
    <glyph glyph-name="longs" unicode="&#x17f;" horiz-adv-x="291" 
d="M139 16q-2 -10 -6 -13t-14 -3h-37q-19 0 -16 16l63 452h-77q-15 0 -12 15l4 30q1 15 16 15h77l5 34q15 108 69 161t142 53q26 0 49.5 -5.5t40.5 -13.5q8 -4 9 -8.5t-2 -13.5l-9 -24q-4 -9 -8.5 -10t-15.5 2q-18 5 -36 8.5t-39 3.5q-60 0 -88 -39t-39 -111z" />
    <glyph glyph-name="ldot" unicode="&#x140;" horiz-adv-x="310" 
d="M120 142q-6 -47 -6 -58q0 -16 7 -22t26 -6q14 0 13 -13l-3 -22q-1 -8 -3 -11t-8 -5q-13 -5 -39 -5q-32 0 -49.5 19.5t-17.5 48.5q0 14 2.5 39.5t10.5 78.5l47 330q9 64 14 106.5t7.5 69t3.5 40.5t1 20q2 14 15 14h45q13 0 13 -11q-1 -23 -7.5 -86.5t-20.5 -165.5z
M230 318q-15 0 -13 13l10 66q2 13 16 13h61q16 0 14 -13l-10 -66q-2 -13 -17 -13h-61z" />
    <glyph glyph-name="nacute" unicode="&#x144;" horiz-adv-x="570" 
d="M467 14q-2 -14 -17 -14h-43q-14 0 -13 14l37 259q5 32 8 60t1 48q-3 47 -33 66.5t-82 19.5q-36 0 -67.5 -11t-54.5 -34q-13 -12 -21.5 -28t-15 -40t-12 -59t-12.5 -87l-27 -194q-2 -14 -17 -14h-43q-15 0 -13 14l53 375q5 32 8.5 64.5t6.5 60.5q2 14 17 14h38
q16 0 15 -14l-5 -53q33 36 78.5 56.5t100.5 20.5q73 0 115.5 -36.5t44.5 -107.5q1 -31 -5 -77zM291 584q-11 0 -4 10l81 121q5 7 8 8.5t11 1.5h65q6 0 8 -3.5t-4 -9.5l-101 -120q-7 -8 -17 -8h-47z" />
    <glyph glyph-name="ncaron" unicode="&#x148;" horiz-adv-x="570" 
d="M467 14q-2 -14 -17 -14h-43q-14 0 -13 14l37 259q5 32 8 60t1 48q-3 47 -33 66.5t-82 19.5q-36 0 -67.5 -11t-54.5 -34q-13 -12 -21.5 -28t-15 -40t-12 -59t-12.5 -87l-27 -194q-2 -14 -17 -14h-43q-15 0 -13 14l53 375q5 32 8.5 64.5t6.5 60.5q2 14 17 14h38
q16 0 15 -14l-5 -53q33 36 78.5 56.5t100.5 20.5q73 0 115.5 -36.5t44.5 -107.5q1 -31 -5 -77zM408 592q-8 -7 -13 -9.5t-14 -2.5h-67q-9 0 -13.5 2.5t-9.5 9.5l-82 97q-5 8 3 16l23 21q10 10 19 1l98 -95l126 95q9 8 17 -1l17 -21q5 -5 4 -8.5t-5 -7.5z" />
    <glyph glyph-name="ntilde" unicode="&#xf1;" horiz-adv-x="570" 
d="M467 14q-2 -14 -17 -14h-43q-14 0 -13 14l37 259q5 32 8 60t1 48q-3 47 -33 66.5t-82 19.5q-36 0 -67.5 -11t-54.5 -34q-13 -12 -21.5 -28t-15 -40t-12 -59t-12.5 -87l-27 -194q-2 -14 -17 -14h-43q-15 0 -13 14l53 375q5 32 8.5 64.5t6.5 60.5q2 14 17 14h38
q16 0 15 -14l-5 -53q33 36 78.5 56.5t100.5 20.5q73 0 115.5 -36.5t44.5 -107.5q1 -31 -5 -77zM496 656q-14 -16 -38 -29.5t-49 -13.5q-19 0 -32.5 5t-26.5 11t-26 11t-31 5t-31.5 -8.5t-24.5 -19.5q-8 -8 -14 0l-23 29q-2 5 -0.5 8t6.5 10q11 14 37 29t54 15q19 0 32.5 -5
t26 -11t26 -11t31.5 -5q16 0 29 8.5t22 16.5q5 4 10 5t9 -5l17 -24q6 -9 -4 -21z" />
    <glyph glyph-name="ncommaaccent" unicode="&#x146;" horiz-adv-x="570" 
d="M467 14q-2 -14 -17 -14h-43q-14 0 -13 14l37 259q5 32 8 60t1 48q-3 47 -33 66.5t-82 19.5q-36 0 -67.5 -11t-54.5 -34q-13 -12 -21.5 -28t-15 -40t-12 -59t-12.5 -87l-27 -194q-2 -14 -17 -14h-43q-15 0 -13 14l53 375q5 32 8.5 64.5t6.5 60.5q2 14 17 14h38
q16 0 15 -14l-5 -53q33 36 78.5 56.5t100.5 20.5q73 0 115.5 -36.5t44.5 -107.5q1 -31 -5 -77zM194 -278q-16 0 -10 14l39 112l-14 7q-9 5 -12 8.5t-1 13.5l7 55q3 14 17 14h67q15 0 14 -14l-4 -33q-2 -12 -4.5 -22t-6.5 -21.5t-10 -25.5t-15 -33l-28 -63q-5 -12 -18 -12
h-21v0z" />
    <glyph glyph-name="napostrophe" unicode="&#x149;" horiz-adv-x="631" 
d="M528 14q-2 -14 -17 -14h-43q-14 0 -13 14l37 259q5 32 8 60t1 48q-3 47 -33 66.5t-82 19.5q-36 0 -67.5 -11t-54.5 -34q-13 -12 -21.5 -28t-15 -40t-12 -59t-12.5 -87l-27 -194q-2 -14 -17 -14h-43q-15 0 -13 14l53 375q5 32 8.5 64.5t6.5 60.5q2 14 17 14h38
q16 0 15 -14l-5 -53q33 36 78.5 56.5t100.5 20.5q73 0 115.5 -36.5t44.5 -107.5q1 -31 -5 -77zM47 467q-16 0 -10 14l47 130l-16 7q-10 5 -13 9.5t-1 15.5l9 63q2 14 17 14h76q16 0 14 -14l-6 -42q-2 -11 -4 -21.5t-6.5 -22.5t-11 -27t-15.5 -35l-37 -79q-5 -12 -18 -12h-25
z" />
    <glyph glyph-name="eng" unicode="&#x14b;" horiz-adv-x="570" 
d="M431 273q5 32 8 60t1 48q-3 47 -33 66.5t-82 19.5q-36 0 -67.5 -11t-54.5 -34q-13 -12 -21.5 -28t-15 -40t-12 -59t-12.5 -87l-27 -194q-2 -14 -17 -14h-43q-15 0 -13 14l53 375q5 32 8.5 64.5t6.5 60.5q2 14 17 14h38q16 0 15 -14l-5 -53q33 36 78.5 56.5t100.5 20.5
q73 0 115.5 -36.5t44.5 -107.5q1 -31 -5 -77l-40 -289q-8 -60 -25 -102t-41 -68t-55.5 -37.5t-68.5 -11.5q-22 0 -43 5t-32 10q-6 3 -9 7t1 14l9 26q3 9 8 10.5t10 -0.5q11 -3 25 -6t30 -3q24 0 42.5 6.5t33 23.5t24.5 47t17 77z" />
    <glyph glyph-name="ograve" unicode="&#xf2;" horiz-adv-x="554" 
d="M310 472q-47 0 -83 -22.5t-61 -59.5t-37.5 -84.5t-12.5 -96.5q0 -31 6 -58.5t21 -48.5t39.5 -33.5t61.5 -12.5q46 0 82 22.5t61 59.5t38 84t13 97q0 31 -6.5 58.5t-21.5 48.5t-39.5 33.5t-60.5 12.5zM239 -10q-101 0 -150.5 57.5t-49.5 156.5q0 66 18.5 126.5t54.5 106.5
t89 73.5t121 27.5q97 0 145 -55t48 -158q0 -65 -18 -125t-53 -107t-86.5 -75t-118.5 -28zM335 584q-11 0 -15 8l-72 120q-7 13 6 13h64q8 0 11 -1.5t6 -8.5l47 -121q3 -10 -8 -10h-39z" />
    <glyph glyph-name="oacute" unicode="&#xf3;" horiz-adv-x="554" 
d="M310 472q-47 0 -83 -22.5t-61 -59.5t-37.5 -84.5t-12.5 -96.5q0 -31 6 -58.5t21 -48.5t39.5 -33.5t61.5 -12.5q46 0 82 22.5t61 59.5t38 84t13 97q0 31 -6.5 58.5t-21.5 48.5t-39.5 33.5t-60.5 12.5zM239 -10q-101 0 -150.5 57.5t-49.5 156.5q0 66 18.5 126.5t54.5 106.5
t89 73.5t121 27.5q97 0 145 -55t48 -158q0 -65 -18 -125t-53 -107t-86.5 -75t-118.5 -28zM288 584q-11 0 -4 10l81 121q5 7 8 8.5t11 1.5h65q6 0 8 -3.5t-4 -9.5l-101 -120q-7 -8 -17 -8h-47z" />
    <glyph glyph-name="ocircumflex" unicode="&#xf4;" horiz-adv-x="554" 
d="M310 472q-47 0 -83 -22.5t-61 -59.5t-37.5 -84.5t-12.5 -96.5q0 -31 6 -58.5t21 -48.5t39.5 -33.5t61.5 -12.5q46 0 82 22.5t61 59.5t38 84t13 97q0 31 -6.5 58.5t-21.5 48.5t-39.5 33.5t-60.5 12.5zM239 -10q-101 0 -150.5 57.5t-49.5 156.5q0 66 18.5 126.5t54.5 106.5
t89 73.5t121 27.5q97 0 145 -55t48 -158q0 -65 -18 -125t-53 -107t-86.5 -75t-118.5 -28zM481 623q5 -6 -3 -16l-18 -20q-10 -10 -18 -1l-96 94l-129 -95q-10 -8 -18 1l-18 23q-7 9 1 16l105 95q8 7 13 9.5t14 2.5h67q9 0 13 -2.5t10 -9.5z" />
    <glyph glyph-name="otilde" unicode="&#xf5;" horiz-adv-x="554" 
d="M310 472q-47 0 -83 -22.5t-61 -59.5t-37.5 -84.5t-12.5 -96.5q0 -31 6 -58.5t21 -48.5t39.5 -33.5t61.5 -12.5q46 0 82 22.5t61 59.5t38 84t13 97q0 31 -6.5 58.5t-21.5 48.5t-39.5 33.5t-60.5 12.5zM239 -10q-101 0 -150.5 57.5t-49.5 156.5q0 66 18.5 126.5t54.5 106.5
t89 73.5t121 27.5q97 0 145 -55t48 -158q0 -65 -18 -125t-53 -107t-86.5 -75t-118.5 -28zM491 656q-14 -16 -38 -29.5t-49 -13.5q-19 0 -32.5 5t-26.5 11t-26 11t-31 5t-31.5 -8.5t-24.5 -19.5q-8 -8 -14 0l-23 29q-2 5 -0.5 8t6.5 10q11 14 37 29t54 15q19 0 32.5 -5
t26 -11t26 -11t31.5 -5q16 0 29 8.5t22 16.5q5 4 10 5t9 -5l17 -24q6 -9 -4 -21z" />
    <glyph glyph-name="odieresis" unicode="&#xf6;" horiz-adv-x="554" 
d="M310 472q-47 0 -83 -22.5t-61 -59.5t-37.5 -84.5t-12.5 -96.5q0 -31 6 -58.5t21 -48.5t39.5 -33.5t61.5 -12.5q46 0 82 22.5t61 59.5t38 84t13 97q0 31 -6.5 58.5t-21.5 48.5t-39.5 33.5t-60.5 12.5zM239 -10q-101 0 -150.5 57.5t-49.5 156.5q0 66 18.5 126.5t54.5 106.5
t89 73.5t121 27.5q97 0 145 -55t48 -158q0 -65 -18 -125t-53 -107t-86.5 -75t-118.5 -28zM209 600q-14 0 -12 13l10 66q2 13 15 13h61q17 0 15 -13l-10 -66q-2 -13 -18 -13h-61zM397 600q-15 0 -13 13l10 66q2 13 16 13h61q16 0 14 -13l-10 -66q-2 -13 -17 -13h-61z" />
    <glyph glyph-name="omacron" unicode="&#x14d;" horiz-adv-x="554" 
d="M310 472q-47 0 -83 -22.5t-61 -59.5t-37.5 -84.5t-12.5 -96.5q0 -31 6 -58.5t21 -48.5t39.5 -33.5t61.5 -12.5q46 0 82 22.5t61 59.5t38 84t13 97q0 31 -6.5 58.5t-21.5 48.5t-39.5 33.5t-60.5 12.5zM239 -10q-101 0 -150.5 57.5t-49.5 156.5q0 66 18.5 126.5t54.5 106.5
t89 73.5t121 27.5q97 0 145 -55t48 -158q0 -65 -18 -125t-53 -107t-86.5 -75t-118.5 -28zM481 689q15 0 12 -14l-5 -37q-1 -14 -16 -14h-267q-13 0 -12 14l5 37q3 14 16 14h267z" />
    <glyph glyph-name="obreve" unicode="&#x14f;" horiz-adv-x="554" 
d="M310 472q-47 0 -83 -22.5t-61 -59.5t-37.5 -84.5t-12.5 -96.5q0 -31 6 -58.5t21 -48.5t39.5 -33.5t61.5 -12.5q46 0 82 22.5t61 59.5t38 84t13 97q0 31 -6.5 58.5t-21.5 48.5t-39.5 33.5t-60.5 12.5zM239 -10q-101 0 -150.5 57.5t-49.5 156.5q0 66 18.5 126.5t54.5 106.5
t89 73.5t121 27.5q97 0 145 -55t48 -158q0 -65 -18 -125t-53 -107t-86.5 -75t-118.5 -28zM338 593q-56 0 -92.5 22.5t-36.5 71.5v6.5t1 8.5q1 11 13 11h41q11 0 11 -12q0 -57 68 -57q33 0 56 15.5t29 41.5q3 12 13 12h42q14 0 11 -11q-14 -58 -55.5 -83.5t-100.5 -25.5z" />
    <glyph glyph-name="ohungarumlaut" unicode="&#x151;" horiz-adv-x="554" 
d="M310 472q-47 0 -83 -22.5t-61 -59.5t-37.5 -84.5t-12.5 -96.5q0 -31 6 -58.5t21 -48.5t39.5 -33.5t61.5 -12.5q46 0 82 22.5t61 59.5t38 84t13 97q0 31 -6.5 58.5t-21.5 48.5t-39.5 33.5t-60.5 12.5zM239 -10q-101 0 -150.5 57.5t-49.5 156.5q0 66 18.5 126.5t54.5 106.5
t89 73.5t121 27.5q97 0 145 -55t48 -158q0 -65 -18 -125t-53 -107t-86.5 -75t-118.5 -28zM219 583q-13 0 -6 12l76 118q5 7 8.5 8.5t10.5 1.5h56q6 0 8 -3.5t-3 -9.5l-95 -118q-5 -5 -7.5 -7t-10.5 -2h-37zM376 583q-13 0 -6 12l76 118q5 7 8.5 8.5t10.5 1.5h56q6 0 8 -3.5
t-3 -9.5l-95 -118q-5 -5 -7.5 -7t-10.5 -2h-37z" />
    <glyph glyph-name="oslash" unicode="&#xf8;" horiz-adv-x="554" 
d="M239 -10q-76 0 -125 34l-42 -50q-4 -5 -9.5 -6t-12.5 6l-21 19q-12 10 -4 20l47 56q-33 52 -33 135q0 66 18.5 126.5t54.5 106.5t89 73.5t121 27.5q35 0 64 -9t52 -26l50 59q10 12 22 0l21 -19q12 -10 4 -20l-55 -65q17 -27 26 -61t9 -72q0 -65 -18 -125t-53 -107
t-86.5 -75t-118.5 -28zM310 472q-47 0 -83 -22.5t-61 -59.5t-37.5 -84.5t-12.5 -96.5q0 -22 2 -41t8 -36l267 317q-31 23 -83 23zM438 319q0 46 -10 77l-267 -316q15 -11 35.5 -17.5t47.5 -6.5q46 0 82 22.5t61 59.5t38 84t13 97z" />
    <glyph glyph-name="oslashacute" unicode="&#x1ff;" horiz-adv-x="554" 
d="M272 584q-11 0 -4 10l81 121q5 7 8 8.5t11 1.5h65q6 0 8 -3.5t-4 -9.5l-101 -120q-7 -8 -17 -8h-47zM239 -10q-76 0 -125 34l-42 -50q-4 -5 -9.5 -6t-12.5 6l-21 19q-12 10 -4 20l47 56q-33 52 -33 135q0 66 18.5 126.5t54.5 106.5t89 73.5t121 27.5q35 0 64 -9t52 -26
l50 59q10 12 22 0l21 -19q12 -10 4 -20l-55 -65q17 -27 26 -61t9 -72q0 -65 -18 -125t-53 -107t-86.5 -75t-118.5 -28zM310 472q-47 0 -83 -22.5t-61 -59.5t-37.5 -84.5t-12.5 -96.5q0 -22 2 -41t8 -36l267 317q-31 23 -83 23zM438 319q0 46 -10 77l-267 -316
q15 -11 35.5 -17.5t47.5 -6.5q46 0 82 22.5t61 59.5t38 84t13 97z" />
    <glyph glyph-name="oe" unicode="&#x153;" horiz-adv-x="920" 
d="M239 -10q-101 0 -150.5 57.5t-49.5 156.5q0 66 18.5 126.5t54.5 106.5t89 73.5t121 27.5q124 0 174 -108q31 47 82.5 77.5t123.5 30.5q47 0 81 -15.5t56.5 -43.5t33 -65.5t10.5 -82.5q0 -16 -1.5 -34.5t-3.5 -32.5q-5 -25 -29 -25h-342q-1 -8 -1.5 -16.5t-0.5 -16.5
q0 -78 39 -113t113 -35q35 0 69 8t64 22q8 4 12 2.5t7 -10.5l9 -31q4 -13 -8 -19q-76 -40 -174 -40q-36 0 -66.5 9.5t-54.5 26t-40.5 38.5t-23.5 48q-15 -25 -37 -47t-49.5 -38.5t-59.5 -26.5t-66 -10zM310 472q-47 0 -83 -22.5t-61 -59.5t-37.5 -84.5t-12.5 -96.5
q0 -31 6 -58.5t21 -48.5t39.5 -33.5t61.5 -12.5q46 0 82 22.5t61 59.5t38 84t13 97q0 31 -6.5 58.5t-21.5 48.5t-39.5 33.5t-60.5 12.5zM807 299q1 8 1.5 16.5t0.5 18.5q0 27 -6.5 52t-20.5 43.5t-36 29.5t-54 11q-59 0 -105.5 -40t-69.5 -131h290z" />
    <glyph glyph-name="thorn" unicode="&#xfe;" horiz-adv-x="552" 
d="M177 464q24 32 65.5 53t92.5 21q84 0 131 -53t47 -153q0 -60 -17 -121t-50.5 -110t-83 -80t-114.5 -31q-45 0 -76.5 14t-53.5 37l-38 -264q-1 -10 -35 -10h-8q-18 0 -24.5 2t-5.5 8l80 557q4 25 11 76t15 111t16.5 121t15.5 108q3 16 20 16h37q19 0 16 -16zM127 104
q19 -20 50 -33.5t68 -13.5q50 0 86 25t59 64t34 86.5t11 93.5q0 75 -32 110t-86 35q-42 0 -71 -15.5t-49 -38.5q-8 -9 -14 -20t-12 -29t-11 -44.5t-11 -66.5z" />
    <glyph glyph-name="racute" unicode="&#x155;" horiz-adv-x="343" 
d="M168 408q35 59 83.5 92t97.5 33q12 0 17 -3t3 -14l-4 -35q-1 -6 -4 -10.5t-11 -5.5q-38 -5 -67 -19t-52 -34q-36 -32 -57 -79t-32 -124l-27 -195q-1 -14 -17 -14h-43q-15 0 -13 14l42 299q8 52 14.5 105t11.5 95q2 15 16 15h39q15 0 15 -14q-1 -17 -4.5 -49t-7.5 -57z
M208 584q-11 0 -4 10l81 121q5 7 8 8.5t11 1.5h65q6 0 8 -3.5t-4 -9.5l-101 -120q-7 -8 -17 -8h-47z" />
    <glyph glyph-name="rcaron" unicode="&#x159;" horiz-adv-x="343" 
d="M168 408q35 59 83.5 92t97.5 33q12 0 17 -3t3 -14l-4 -35q-1 -6 -4 -10.5t-11 -5.5q-38 -5 -67 -19t-52 -34q-36 -32 -57 -79t-32 -124l-27 -195q-1 -14 -17 -14h-43q-15 0 -13 14l42 299q8 52 14.5 105t11.5 95q2 15 16 15h39q15 0 15 -14q-1 -17 -4.5 -49t-7.5 -57z
M316 592q-8 -7 -13 -9.5t-14 -2.5h-67q-9 0 -13.5 2.5t-9.5 9.5l-82 97q-5 8 3 16l23 21q10 10 19 1l98 -95l126 95q9 8 17 -1l17 -21q5 -5 4 -8.5t-5 -7.5z" />
    <glyph glyph-name="rcommaaccent" unicode="&#x157;" horiz-adv-x="343" 
d="M168 408q35 59 83.5 92t97.5 33q12 0 17 -3t3 -14l-4 -35q-1 -6 -4 -10.5t-11 -5.5q-38 -5 -67 -19t-52 -34q-36 -32 -57 -79t-32 -124l-27 -195q-1 -14 -17 -14h-43q-15 0 -13 14l42 299q8 52 14.5 105t11.5 95q2 15 16 15h39q15 0 15 -14q-1 -17 -4.5 -49t-7.5 -57z
M7 -278q-16 0 -10 14l39 112l-14 7q-9 5 -12 8.5t-1 13.5l7 55q3 14 17 14h67q15 0 14 -14l-4 -33q-2 -12 -4.5 -22t-6.5 -21.5t-10 -25.5t-15 -33l-28 -63q-5 -12 -18 -12h-21v0z" />
    <glyph glyph-name="sacute" unicode="&#x15b;" horiz-adv-x="438" 
d="M58 92q34 -21 66 -30.5t63 -9.5q23 0 46 5.5t41 17.5t29 31t11 47q0 19 -8 32.5t-23 23.5t-35.5 17t-45.5 14q-31 8 -56 19t-43 26.5t-27.5 38.5t-9.5 55q0 40 17 69.5t44.5 49.5t63 30t72.5 10q38 0 76.5 -12.5t67.5 -34.5q6 -5 7.5 -10.5t-5.5 -13.5l-18 -23
q-6 -8 -10.5 -8.5t-9.5 2.5q-25 16 -53 26.5t-63 10.5q-51 0 -84 -23t-33 -64q0 -21 8 -35t21.5 -23t32 -15.5t39.5 -12.5q35 -10 62.5 -21t46 -26.5t28.5 -38t10 -55.5q0 -39 -16 -70.5t-43 -54t-63.5 -34.5t-78.5 -12q-46 0 -89 12.5t-72 34.5q-8 6 -7.5 12t5.5 14l13 21
q10 16 23 8zM224 584q-11 0 -4 10l81 121q5 7 8 8.5t11 1.5h65q6 0 8 -3.5t-4 -9.5l-101 -120q-7 -8 -17 -8h-47z" />
    <glyph glyph-name="scircumflex" unicode="&#x15d;" horiz-adv-x="438" 
d="M58 92q34 -21 66 -30.5t63 -9.5q23 0 46 5.5t41 17.5t29 31t11 47q0 19 -8 32.5t-23 23.5t-35.5 17t-45.5 14q-31 8 -56 19t-43 26.5t-27.5 38.5t-9.5 55q0 40 17 69.5t44.5 49.5t63 30t72.5 10q38 0 76.5 -12.5t67.5 -34.5q6 -5 7.5 -10.5t-5.5 -13.5l-18 -23
q-6 -8 -10.5 -8.5t-9.5 2.5q-25 16 -53 26.5t-63 10.5q-51 0 -84 -23t-33 -64q0 -21 8 -35t21.5 -23t32 -15.5t39.5 -12.5q35 -10 62.5 -21t46 -26.5t28.5 -38t10 -55.5q0 -39 -16 -70.5t-43 -54t-63.5 -34.5t-78.5 -12q-46 0 -89 12.5t-72 34.5q-8 6 -7.5 12t5.5 14l13 21
q10 16 23 8zM430 623q5 -6 -3 -16l-18 -20q-10 -10 -18 -1l-96 94l-129 -95q-10 -8 -18 1l-18 23q-7 9 1 16l105 95q8 7 13 9.5t14 2.5h67q9 0 13 -2.5t10 -9.5z" />
    <glyph glyph-name="scaron" unicode="&#x161;" horiz-adv-x="438" 
d="M58 92q34 -21 66 -30.5t63 -9.5q23 0 46 5.5t41 17.5t29 31t11 47q0 19 -8 32.5t-23 23.5t-35.5 17t-45.5 14q-31 8 -56 19t-43 26.5t-27.5 38.5t-9.5 55q0 40 17 69.5t44.5 49.5t63 30t72.5 10q38 0 76.5 -12.5t67.5 -34.5q6 -5 7.5 -10.5t-5.5 -13.5l-18 -23
q-6 -8 -10.5 -8.5t-9.5 2.5q-25 16 -53 26.5t-63 10.5q-51 0 -84 -23t-33 -64q0 -21 8 -35t21.5 -23t32 -15.5t39.5 -12.5q35 -10 62.5 -21t46 -26.5t28.5 -38t10 -55.5q0 -39 -16 -70.5t-43 -54t-63.5 -34.5t-78.5 -12q-46 0 -89 12.5t-72 34.5q-8 6 -7.5 12t5.5 14l13 21
q10 16 23 8zM328 592q-8 -7 -13 -9.5t-14 -2.5h-67q-9 0 -13.5 2.5t-9.5 9.5l-82 97q-5 8 3 16l23 21q10 10 19 1l98 -95l126 95q9 8 17 -1l17 -21q5 -5 4 -8.5t-5 -7.5z" />
    <glyph glyph-name="scedilla" unicode="&#x15f;" horiz-adv-x="438" 
d="M175 -229q-23 0 -42.5 4t-34.5 11q-11 5 -6 16l10 26q5 13 16 8t27.5 -9.5t31.5 -4.5q22 0 39 10t17 32q0 17 -13.5 24.5t-43.5 7.5q-11 0 -23 -0.5t-22 -1.5q-13 0 -10 11l23 87q-37 4 -67.5 15t-53.5 27q-8 5 -8 10.5t5 14.5l15 25q10 16 23 8q24 -15 56.5 -27.5
t68.5 -12.5q25 0 48.5 5.5t42 17.5t29.5 31t11 47q0 19 -8 32.5t-23 23t-35.5 16.5t-45.5 14q-31 8 -56 19t-43 26.5t-27.5 37.5t-9.5 52q0 39 15.5 69.5t42.5 51.5t63 32t76 11q45 0 82 -13.5t62 -33.5q6 -5 7 -10.5t-5 -13.5l-19 -25q-10 -14 -20 -6q-23 17 -51.5 28
t-63.5 11q-20 0 -41 -5t-38 -16t-27.5 -28.5t-10.5 -42.5q0 -19 8 -31.5t21.5 -21.5t32 -15t39.5 -12q35 -10 62.5 -21t46 -27t28.5 -38.5t10 -55.5q0 -36 -14 -66t-39 -52t-59 -35.5t-74 -16.5l-11 -44q5 1 14 1.5t16 0.5q33 0 57.5 -18.5t24.5 -54.5q0 -47 -34.5 -76
t-91.5 -29z" />
    <glyph glyph-name="scommaaccent" unicode="&#x219;" horiz-adv-x="438" 
d="M58 92q34 -21 66 -30.5t63 -9.5q23 0 46 5.5t41 17.5t29 31t11 47q0 19 -8 32.5t-23 23.5t-35.5 17t-45.5 14q-31 8 -56 19t-43 26.5t-27.5 38.5t-9.5 55q0 40 17 69.5t44.5 49.5t63 30t72.5 10q38 0 76.5 -12.5t67.5 -34.5q6 -5 7.5 -10.5t-5.5 -13.5l-18 -23
q-6 -8 -10.5 -8.5t-9.5 2.5q-25 16 -53 26.5t-63 10.5q-51 0 -84 -23t-33 -64q0 -21 8 -35t21.5 -23t32 -15.5t39.5 -12.5q35 -10 62.5 -21t46 -26.5t28.5 -38t10 -55.5q0 -39 -16 -70.5t-43 -54t-63.5 -34.5t-78.5 -12q-46 0 -89 12.5t-72 34.5q-8 6 -7.5 12t5.5 14l13 21
q10 16 23 8zM123 -278q-16 0 -10 14l39 112l-14 7q-9 5 -12 8.5t-1 13.5l7 55q3 14 17 14h67q15 0 14 -14l-4 -33q-2 -12 -4.5 -22t-6.5 -21.5t-10 -25.5t-15 -33l-28 -63q-5 -12 -18 -12h-21v0z" />
    <glyph glyph-name="germandbls" unicode="&#xdf;" horiz-adv-x="597" 
d="M551 637q0 -39 -15 -66.5t-38 -48.5t-49 -37t-49 -30.5t-38 -30.5t-15 -37q0 -18 16.5 -31.5t42 -26t54.5 -26t54.5 -32t42 -43t16.5 -59.5q0 -41 -16 -74t-44 -56t-65 -36t-79 -13q-45 0 -87 11t-69 28q-8 5 -8.5 10t4.5 16l12 22q5 8 9.5 11t12.5 -2q28 -16 60.5 -25
t70.5 -9q25 0 47.5 7t39 21t26.5 33.5t10 45.5t-16.5 43.5t-41.5 32t-53.5 27.5t-53.5 28.5t-41.5 36.5t-16.5 52q0 34 15 57.5t37.5 42t49 34t49 32t37.5 36.5t15 48q0 39 -30 62.5t-90 23.5q-74 0 -117 -44q-46 -48 -60 -154l-71 -503q-1 -14 -22 -14h-35q-18 0 -16 14
l71 502q10 71 30.5 121.5t55.5 82.5q33 29 77.5 42.5t98.5 13.5q36 0 69 -9.5t58 -27t40 -43.5t15 -59z" />
    <glyph glyph-name="tcaron" unicode="&#x165;" horiz-adv-x="355" 
d="M53 468q-13 0 -12 15l4 30q1 15 16 15h77l20 141q2 14 17 14h43q15 0 13 -14l-20 -141h130q7 0 10.5 -3t1.5 -12l-5 -34q-1 -11 -15 -11h-130l-39 -278q-5 -36 -7.5 -55.5t-2.5 -30.5q0 -51 67 -51q20 0 41 4.5t40 11.5q16 5 19 -9l5 -26q2 -8 0 -11.5t-8 -6.5
q-19 -10 -50.5 -18t-66.5 -8q-52 0 -86.5 25.5t-34.5 82.5q0 12 2.5 35.5t7.5 55.5l40 279h-77zM300 592q-16 0 -10 14l39 112l-14 7q-9 5 -12 8.5t-1 13.5l7 55q3 14 17 14h67q15 0 14 -14l-4 -33q-2 -12 -4.5 -22t-6.5 -21.5t-10 -25.5t-15 -33l-28 -63q-5 -12 -18 -12
h-21v0z" />
    <glyph glyph-name="tcommaaccent" unicode="&#x163;" horiz-adv-x="355" 
d="M53 468q-13 0 -12 15l4 30q1 15 16 15h77l20 141q2 14 17 14h43q15 0 13 -14l-20 -141h130q7 0 10.5 -3t1.5 -12l-5 -34q-1 -11 -15 -11h-130l-39 -278q-5 -36 -7.5 -55.5t-2.5 -30.5q0 -51 67 -51q20 0 41 4.5t40 11.5q16 5 19 -9l5 -26q2 -8 0 -11.5t-8 -6.5
q-19 -10 -50.5 -18t-66.5 -8q-52 0 -86.5 25.5t-34.5 82.5q0 12 2.5 35.5t7.5 55.5l40 279h-77zM121 -278q-16 0 -10 14l39 112l-14 7q-9 5 -12 8.5t-1 13.5l7 55q3 14 17 14h67q15 0 14 -14l-4 -33q-2 -12 -4.5 -22t-6.5 -21.5t-10 -25.5t-15 -33l-28 -63q-5 -12 -18 -12
h-21v0z" />
    <glyph glyph-name="uni021B" unicode="&#x21b;" horiz-adv-x="355" 
d="M53 468q-13 0 -12 15l4 30q1 15 16 15h77l20 141q2 14 17 14h43q15 0 13 -14l-20 -141h130q7 0 10.5 -3t1.5 -12l-5 -34q-1 -11 -15 -11h-130l-39 -278q-5 -36 -7.5 -55.5t-2.5 -30.5q0 -51 67 -51q20 0 41 4.5t40 11.5q16 5 19 -9l5 -26q2 -8 0 -11.5t-8 -6.5
q-19 -10 -50.5 -18t-66.5 -8q-52 0 -86.5 25.5t-34.5 82.5q0 12 2.5 35.5t7.5 55.5l40 279h-77zM121 -278q-16 0 -10 14l39 112l-14 7q-9 5 -12 8.5t-1 13.5l7 55q3 14 17 14h67q15 0 14 -14l-4 -33q-2 -12 -4.5 -22t-6.5 -21.5t-10 -25.5t-15 -33l-28 -63q-5 -12 -18 -12
h-21v0z" />
    <glyph glyph-name="tbar" unicode="&#x167;" horiz-adv-x="355" 
d="M53 468q-13 0 -12 15l4 30q1 15 16 15h77l20 141q2 14 17 14h43q15 0 13 -14l-20 -141h130q7 0 10.5 -3t1.5 -12l-5 -34q-1 -11 -15 -11h-130l-23 -164h107q15 0 12 -15l-4 -27q-2 -9 -5.5 -11.5t-11.5 -2.5h-106l-8 -58q-5 -30 -7.5 -49t-2.5 -29q0 -12 2 -22.5t7 -16.5
q14 -20 58 -20q17 0 39 4.5t42 11.5q11 4 14 1.5t5 -10.5l5 -26q2 -8 0 -11.5t-8 -6.5q-19 -10 -51.5 -18t-65.5 -8q-35 0 -59 8.5t-37 22.5t-19 32t-6 45q0 12 2.5 36.5t7.5 54.5l8 59h-52q-15 0 -12 15l4 27q2 9 5.5 11.5t11.5 2.5h51l24 164h-77z" />
    <glyph glyph-name="ugrave" unicode="&#xf9;" horiz-adv-x="567" 
d="M452 514q2 14 17 14h43q15 0 13 -14l-48 -342q-6 -43 -9.5 -84.5t-7.5 -75.5q-1 -8 -6 -10t-25 -2h-7q-20 0 -24.5 2t-3.5 9l3 67q-32 -42 -78.5 -65t-101.5 -23q-76 0 -118 36t-42 111q0 18 2 42t6 53l39 282q2 14 17 14h43q15 0 13 -14l-37 -260q-5 -33 -7.5 -58
t-2.5 -43q0 -46 25 -71.5t79 -25.5q42 0 70.5 12t51.5 34t37.5 56.5t23.5 100.5zM316 584q-11 0 -15 8l-72 120q-7 13 6 13h64q8 0 11 -1.5t6 -8.5l47 -121q3 -10 -8 -10h-39z" />
    <glyph glyph-name="uacute" unicode="&#xfa;" horiz-adv-x="567" 
d="M452 514q2 14 17 14h43q15 0 13 -14l-48 -342q-6 -43 -9.5 -84.5t-7.5 -75.5q-1 -8 -6 -10t-25 -2h-7q-20 0 -24.5 2t-3.5 9l3 67q-32 -42 -78.5 -65t-101.5 -23q-76 0 -118 36t-42 111q0 18 2 42t6 53l39 282q2 14 17 14h43q15 0 13 -14l-37 -260q-5 -33 -7.5 -58
t-2.5 -43q0 -46 25 -71.5t79 -25.5q42 0 70.5 12t51.5 34t37.5 56.5t23.5 100.5zM281 584q-11 0 -4 10l81 121q5 7 8 8.5t11 1.5h65q6 0 8 -3.5t-4 -9.5l-101 -120q-7 -8 -17 -8h-47z" />
    <glyph glyph-name="ucircumflex" unicode="&#xfb;" horiz-adv-x="567" 
d="M452 514q2 14 17 14h43q15 0 13 -14l-48 -342q-6 -43 -9.5 -84.5t-7.5 -75.5q-1 -8 -6 -10t-25 -2h-7q-20 0 -24.5 2t-3.5 9l3 67q-32 -42 -78.5 -65t-101.5 -23q-76 0 -118 36t-42 111q0 18 2 42t6 53l39 282q2 14 17 14h43q15 0 13 -14l-37 -260q-5 -33 -7.5 -58
t-2.5 -43q0 -46 25 -71.5t79 -25.5q42 0 70.5 12t51.5 34t37.5 56.5t23.5 100.5zM477 623q5 -6 -3 -16l-18 -20q-10 -10 -18 -1l-96 94l-129 -95q-10 -8 -18 1l-18 23q-7 9 1 16l105 95q8 7 13 9.5t14 2.5h67q9 0 13 -2.5t10 -9.5z" />
    <glyph glyph-name="utilde" unicode="&#x169;" horiz-adv-x="567" 
d="M452 514q2 14 17 14h43q15 0 13 -14l-48 -342q-6 -43 -9.5 -84.5t-7.5 -75.5q-1 -8 -6 -10t-25 -2h-7q-20 0 -24.5 2t-3.5 9l3 67q-32 -42 -78.5 -65t-101.5 -23q-76 0 -118 36t-42 111q0 18 2 42t6 53l39 282q2 14 17 14h43q15 0 13 -14l-37 -260q-5 -33 -7.5 -58
t-2.5 -43q0 -46 25 -71.5t79 -25.5q42 0 70.5 12t51.5 34t37.5 56.5t23.5 100.5zM476 656q-14 -16 -38 -29.5t-49 -13.5q-19 0 -32.5 5t-26.5 11t-26 11t-31 5t-31.5 -8.5t-24.5 -19.5q-8 -8 -14 0l-23 29q-2 5 -0.5 8t6.5 10q11 14 37 29t54 15q19 0 32.5 -5t26 -11t26 -11
t31.5 -5q16 0 29 8.5t22 16.5q5 4 10 5t9 -5l17 -24q6 -9 -4 -21z" />
    <glyph glyph-name="udieresis" unicode="&#xfc;" horiz-adv-x="567" 
d="M452 514q2 14 17 14h43q15 0 13 -14l-48 -342q-6 -43 -9.5 -84.5t-7.5 -75.5q-1 -8 -6 -10t-25 -2h-7q-20 0 -24.5 2t-3.5 9l3 67q-32 -42 -78.5 -65t-101.5 -23q-76 0 -118 36t-42 111q0 18 2 42t6 53l39 282q2 14 17 14h43q15 0 13 -14l-37 -260q-5 -33 -7.5 -58
t-2.5 -43q0 -46 25 -71.5t79 -25.5q42 0 70.5 12t51.5 34t37.5 56.5t23.5 100.5zM199 600q-14 0 -12 13l10 66q2 13 15 13h61q17 0 15 -13l-10 -66q-2 -13 -18 -13h-61zM387 600q-15 0 -13 13l10 66q2 13 16 13h61q16 0 14 -13l-10 -66q-2 -13 -17 -13h-61z" />
    <glyph glyph-name="umacron" unicode="&#x16b;" horiz-adv-x="567" 
d="M452 514q2 14 17 14h43q15 0 13 -14l-48 -342q-6 -43 -9.5 -84.5t-7.5 -75.5q-1 -8 -6 -10t-25 -2h-7q-20 0 -24.5 2t-3.5 9l3 67q-32 -42 -78.5 -65t-101.5 -23q-76 0 -118 36t-42 111q0 18 2 42t6 53l39 282q2 14 17 14h43q15 0 13 -14l-37 -260q-5 -33 -7.5 -58
t-2.5 -43q0 -46 25 -71.5t79 -25.5q42 0 70.5 12t51.5 34t37.5 56.5t23.5 100.5zM464 689q15 0 12 -14l-5 -37q-1 -14 -16 -14h-267q-13 0 -12 14l5 37q3 14 16 14h267z" />
    <glyph glyph-name="ubreve" unicode="&#x16d;" horiz-adv-x="567" 
d="M452 514q2 14 17 14h43q15 0 13 -14l-48 -342q-6 -43 -9.5 -84.5t-7.5 -75.5q-1 -8 -6 -10t-25 -2h-7q-20 0 -24.5 2t-3.5 9l3 67q-32 -42 -78.5 -65t-101.5 -23q-76 0 -118 36t-42 111q0 18 2 42t6 53l39 282q2 14 17 14h43q15 0 13 -14l-37 -260q-5 -33 -7.5 -58
t-2.5 -43q0 -46 25 -71.5t79 -25.5q42 0 70.5 12t51.5 34t37.5 56.5t23.5 100.5zM321 593q-56 0 -92.5 22.5t-36.5 71.5v6.5t1 8.5q1 11 13 11h41q11 0 11 -12q0 -57 68 -57q33 0 56 15.5t29 41.5q3 12 13 12h42q14 0 11 -11q-14 -58 -55.5 -83.5t-100.5 -25.5z" />
    <glyph glyph-name="uring" unicode="&#x16f;" horiz-adv-x="567" 
d="M452 514q2 14 17 14h43q15 0 13 -14l-48 -342q-6 -43 -9.5 -84.5t-7.5 -75.5q-1 -8 -6 -10t-25 -2h-7q-20 0 -24.5 2t-3.5 9l3 67q-32 -42 -78.5 -65t-101.5 -23q-76 0 -118 36t-42 111q0 18 2 42t6 53l39 282q2 14 17 14h43q15 0 13 -14l-37 -260q-5 -33 -7.5 -58
t-2.5 -43q0 -46 25 -71.5t79 -25.5q42 0 70.5 12t51.5 34t37.5 56.5t23.5 100.5zM319 583q-31 0 -53.5 20.5t-22.5 53.5q0 18 8 35t22 29.5t31.5 20t37.5 7.5q32 0 54.5 -20.5t22.5 -52.5q0 -19 -8.5 -36t-22 -29.5t-32 -20t-37.5 -7.5zM325 623q16 0 32 13t16 35
q0 16 -9.5 27t-26.5 11q-20 0 -35 -13.5t-15 -35.5q0 -17 11 -27t27 -10z" />
    <glyph glyph-name="uhungarumlaut" unicode="&#x171;" horiz-adv-x="567" 
d="M452 514q2 14 17 14h43q15 0 13 -14l-48 -342q-6 -43 -9.5 -84.5t-7.5 -75.5q-1 -8 -6 -10t-25 -2h-7q-20 0 -24.5 2t-3.5 9l3 67q-32 -42 -78.5 -65t-101.5 -23q-76 0 -118 36t-42 111q0 18 2 42t6 53l39 282q2 14 17 14h43q15 0 13 -14l-37 -260q-5 -33 -7.5 -58
t-2.5 -43q0 -46 25 -71.5t79 -25.5q42 0 70.5 12t51.5 34t37.5 56.5t23.5 100.5zM208 583q-13 0 -6 12l76 118q5 7 8.5 8.5t10.5 1.5h56q6 0 8 -3.5t-3 -9.5l-95 -118q-5 -5 -7.5 -7t-10.5 -2h-37zM365 583q-13 0 -6 12l76 118q5 7 8.5 8.5t10.5 1.5h56q6 0 8 -3.5t-3 -9.5
l-95 -118q-5 -5 -7.5 -7t-10.5 -2h-37z" />
    <glyph glyph-name="uogonek" unicode="&#x173;" horiz-adv-x="567" 
d="M452 514q2 14 17 14h43q15 0 13 -14l-48 -342q-6 -43 -10 -84t-6 -77q0 -5 -2.5 -7t-6.5 -4q-50 -30 -71.5 -61t-21.5 -63q0 -23 14 -32t33 -9q16 0 41 5q12 3 12 -8v-30q0 -7 -1.5 -10t-9.5 -5q-14 -5 -31.5 -7.5t-35.5 -2.5q-50 0 -72.5 23.5t-22.5 55.5
q0 42 29.5 81.5t78.5 71.5l3 69q-32 -42 -78.5 -65t-101.5 -23q-76 0 -118 36t-42 111q0 18 2 42t6 53l39 282q2 14 17 14h43q15 0 13 -14l-37 -260q-5 -33 -7.5 -58t-2.5 -43q0 -46 25 -71.5t79 -25.5q42 0 70.5 12t51.5 34t37.5 56.5t23.5 100.5z" />
    <glyph glyph-name="wgrave" unicode="&#x1e81;" horiz-adv-x="768" 
d="M556 16q-5 -9 -10 -12.5t-17 -3.5h-45q-12 0 -16.5 4t-6.5 12l-32 253q-7 54 -12 105t-8 85q-14 -37 -31.5 -86t-38.5 -103l-103 -254q-3 -8 -9 -12t-18 -4h-46q-12 0 -16.5 4t-6.5 12l-80 496q-3 16 14 16h44q8 0 13 -2.5t6 -10.5l36 -262q7 -49 12 -95t10 -87
q17 45 35 91t35 90l102 259q3 9 8 13t19 4h46q14 0 17.5 -3.5t5.5 -13.5l29 -203q9 -65 16 -125t15 -111q60 125 103.5 237t73.5 206q4 13 21 13h39q10 0 12 -4t-3 -15q-34 -100 -85.5 -221t-127.5 -272zM414 584q-11 0 -15 8l-72 120q-7 13 6 13h64q8 0 11 -1.5t6 -8.5
l47 -121q3 -10 -8 -10h-39z" />
    <glyph glyph-name="wacute" unicode="&#x1e83;" horiz-adv-x="768" 
d="M556 16q-5 -9 -10 -12.5t-17 -3.5h-45q-12 0 -16.5 4t-6.5 12l-32 253q-7 54 -12 105t-8 85q-14 -37 -31.5 -86t-38.5 -103l-103 -254q-3 -8 -9 -12t-18 -4h-46q-12 0 -16.5 4t-6.5 12l-80 496q-3 16 14 16h44q8 0 13 -2.5t6 -10.5l36 -262q7 -49 12 -95t10 -87
q17 45 35 91t35 90l102 259q3 9 8 13t19 4h46q14 0 17.5 -3.5t5.5 -13.5l29 -203q9 -65 16 -125t15 -111q60 125 103.5 237t73.5 206q4 13 21 13h39q10 0 12 -4t-3 -15q-34 -100 -85.5 -221t-127.5 -272zM372 584q-11 0 -4 10l81 121q5 7 8 8.5t11 1.5h65q6 0 8 -3.5
t-4 -9.5l-101 -120q-7 -8 -17 -8h-47z" />
    <glyph glyph-name="wcircumflex" unicode="&#x175;" horiz-adv-x="768" 
d="M556 16q-5 -9 -10 -12.5t-17 -3.5h-45q-12 0 -16.5 4t-6.5 12l-32 253q-7 54 -12 105t-8 85q-14 -37 -31.5 -86t-38.5 -103l-103 -254q-3 -8 -9 -12t-18 -4h-46q-12 0 -16.5 4t-6.5 12l-80 496q-3 16 14 16h44q8 0 13 -2.5t6 -10.5l36 -262q7 -49 12 -95t10 -87
q17 45 35 91t35 90l102 259q3 9 8 13t19 4h46q14 0 17.5 -3.5t5.5 -13.5l29 -203q9 -65 16 -125t15 -111q60 125 103.5 237t73.5 206q4 13 21 13h39q10 0 12 -4t-3 -15q-34 -100 -85.5 -221t-127.5 -272zM575 623q5 -6 -3 -16l-18 -20q-10 -10 -18 -1l-96 94l-129 -95
q-10 -8 -18 1l-18 23q-7 9 1 16l105 95q8 7 13 9.5t14 2.5h67q9 0 13 -2.5t10 -9.5z" />
    <glyph glyph-name="wdieresis" unicode="&#x1e85;" horiz-adv-x="768" 
d="M556 16q-5 -9 -10 -12.5t-17 -3.5h-45q-12 0 -16.5 4t-6.5 12l-32 253q-7 54 -12 105t-8 85q-14 -37 -31.5 -86t-38.5 -103l-103 -254q-3 -8 -9 -12t-18 -4h-46q-12 0 -16.5 4t-6.5 12l-80 496q-3 16 14 16h44q8 0 13 -2.5t6 -10.5l36 -262q7 -49 12 -95t10 -87
q17 45 35 91t35 90l102 259q3 9 8 13t19 4h46q14 0 17.5 -3.5t5.5 -13.5l29 -203q9 -65 16 -125t15 -111q60 125 103.5 237t73.5 206q4 13 21 13h39q10 0 12 -4t-3 -15q-34 -100 -85.5 -221t-127.5 -272zM298 600q-14 0 -12 13l10 66q2 13 15 13h61q17 0 15 -13l-10 -66
q-2 -13 -18 -13h-61zM486 600q-15 0 -13 13l10 66q2 13 16 13h61q16 0 14 -13l-10 -66q-2 -13 -17 -13h-61z" />
    <glyph glyph-name="ygrave" unicode="&#x1ef3;" horiz-adv-x="560" 
d="M388 75q-27 -41 -71 -63t-95 -22q-37 0 -67.5 11t-52 31.5t-33.5 49t-12 63.5q0 34 9 97l38 272q2 14 17 14h43q15 0 13 -14l-36 -255q-9 -59 -9 -97q0 -49 26.5 -77t80.5 -28q36 0 66.5 16t50.5 36q29 30 38.5 71t16.5 92l34 242q2 14 17 14h43q15 0 13 -14l-73 -517
q-10 -69 -28 -116t-53 -79q-30 -27 -77 -40.5t-101 -13.5q-33 0 -68.5 6t-58.5 14q-9 3 -10 7.5t1 11.5l9 30q4 9 8 12t15 0q20 -6 50 -11.5t61 -5.5q38 0 71 9t53 29q25 24 37 58t20 83zM313 584q-11 0 -15 8l-72 120q-7 13 6 13h64q8 0 11 -1.5t6 -8.5l47 -121
q3 -10 -8 -10h-39z" />
    <glyph glyph-name="yacute" unicode="&#xfd;" horiz-adv-x="560" 
d="M388 75q-27 -41 -71 -63t-95 -22q-37 0 -67.5 11t-52 31.5t-33.5 49t-12 63.5q0 34 9 97l38 272q2 14 17 14h43q15 0 13 -14l-36 -255q-9 -59 -9 -97q0 -49 26.5 -77t80.5 -28q36 0 66.5 16t50.5 36q29 30 38.5 71t16.5 92l34 242q2 14 17 14h43q15 0 13 -14l-73 -517
q-10 -69 -28 -116t-53 -79q-30 -27 -77 -40.5t-101 -13.5q-33 0 -68.5 6t-58.5 14q-9 3 -10 7.5t1 11.5l9 30q4 9 8 12t15 0q20 -6 50 -11.5t61 -5.5q38 0 71 9t53 29q25 24 37 58t20 83zM278 584q-11 0 -4 10l81 121q5 7 8 8.5t11 1.5h65q6 0 8 -3.5t-4 -9.5l-101 -120
q-7 -8 -17 -8h-47z" />
    <glyph glyph-name="ycircumflex" unicode="&#x177;" horiz-adv-x="560" 
d="M388 75q-27 -41 -71 -63t-95 -22q-37 0 -67.5 11t-52 31.5t-33.5 49t-12 63.5q0 34 9 97l38 272q2 14 17 14h43q15 0 13 -14l-36 -255q-9 -59 -9 -97q0 -49 26.5 -77t80.5 -28q36 0 66.5 16t50.5 36q29 30 38.5 71t16.5 92l34 242q2 14 17 14h43q15 0 13 -14l-73 -517
q-10 -69 -28 -116t-53 -79q-30 -27 -77 -40.5t-101 -13.5q-33 0 -68.5 6t-58.5 14q-9 3 -10 7.5t1 11.5l9 30q4 9 8 12t15 0q20 -6 50 -11.5t61 -5.5q38 0 71 9t53 29q25 24 37 58t20 83zM478 623q5 -6 -3 -16l-18 -20q-10 -10 -18 -1l-96 94l-129 -95q-10 -8 -18 1l-18 23
q-7 9 1 16l105 95q8 7 13 9.5t14 2.5h67q9 0 13 -2.5t10 -9.5z" />
    <glyph glyph-name="ydieresis" unicode="&#xff;" horiz-adv-x="560" 
d="M388 75q-27 -41 -71 -63t-95 -22q-37 0 -67.5 11t-52 31.5t-33.5 49t-12 63.5q0 34 9 97l38 272q2 14 17 14h43q15 0 13 -14l-36 -255q-9 -59 -9 -97q0 -49 26.5 -77t80.5 -28q36 0 66.5 16t50.5 36q29 30 38.5 71t16.5 92l34 242q2 14 17 14h43q15 0 13 -14l-73 -517
q-10 -69 -28 -116t-53 -79q-30 -27 -77 -40.5t-101 -13.5q-33 0 -68.5 6t-58.5 14q-9 3 -10 7.5t1 11.5l9 30q4 9 8 12t15 0q20 -6 50 -11.5t61 -5.5q38 0 71 9t53 29q25 24 37 58t20 83zM192 600q-14 0 -12 13l10 66q2 13 15 13h61q17 0 15 -13l-10 -66q-2 -13 -18 -13h-61
zM380 600q-15 0 -13 13l10 66q2 13 16 13h61q16 0 14 -13l-10 -66q-2 -13 -17 -13h-61z" />
    <glyph glyph-name="zacute" unicode="&#x17a;" horiz-adv-x="445" 
d="M349 468h-260q-13 0 -12 16l4 29q1 15 16 15h343q14 0 13 -15l-2 -19q-1 -9 -6 -17t-16 -22l-331 -395h266q16 0 13 -16l-4 -29q-2 -15 -17 -15h-345q-15 0 -12 16l3 21q2 11 10.5 22t24.5 31zM231 584q-11 0 -4 10l81 121q5 7 8 8.5t11 1.5h65q6 0 8 -3.5t-4 -9.5
l-101 -120q-7 -8 -17 -8h-47z" />
    <glyph glyph-name="zcaron" unicode="&#x17e;" horiz-adv-x="445" 
d="M349 468h-260q-13 0 -12 16l4 29q1 15 16 15h343q14 0 13 -15l-2 -19q-1 -9 -6 -17t-16 -22l-331 -395h266q16 0 13 -16l-4 -29q-2 -15 -17 -15h-345q-15 0 -12 16l3 21q2 11 10.5 22t24.5 31zM335 592q-8 -7 -13 -9.5t-14 -2.5h-67q-9 0 -13.5 2.5t-9.5 9.5l-82 97
q-5 8 3 16l23 21q10 10 19 1l98 -95l126 95q9 8 17 -1l17 -21q5 -5 4 -8.5t-5 -7.5z" />
    <glyph glyph-name="zdotaccent" unicode="&#x17c;" horiz-adv-x="445" 
d="M349 468h-260q-13 0 -12 16l4 29q1 15 16 15h343q14 0 13 -15l-2 -19q-1 -9 -6 -17t-16 -22l-331 -395h266q16 0 13 -16l-4 -29q-2 -15 -17 -15h-345q-15 0 -12 16l3 21q2 11 10.5 22t24.5 31zM239 615q-15 0 -13 13l10 66q2 13 16 13h61q16 0 14 -13l-10 -66
q-2 -13 -17 -13h-61z" />
    <glyph glyph-name="Delta" unicode="&#x394;" horiz-adv-x="607" 
d="M517 120q4 -20 6 -32.5t3 -21.5t0.5 -15.5t-1.5 -14.5l-3 -20q-1 -16 -18 -16h-492q-15 0 -14 16l3 23q1 8 3 15t6 16t9.5 20.5t13.5 29.5l273 584q5 9 10 12.5t16 3.5h54q11 0 15.5 -3.5t6.5 -12.5zM85 66h357l-92 581z" />
    <glyph glyph-name="Omega" unicode="&#x3a9;" horiz-adv-x="726" 
d="M637 60q17 0 15 -16l-4 -28q-3 -16 -20 -16h-238q-16 0 -15 14l2 21q2 14 5 18.5t8 6.5q53 22 91.5 61t63 89.5t36.5 109t12 119.5q0 60 -13 102.5t-37 69.5t-56.5 40t-71.5 13q-65 0 -113.5 -33t-80 -86t-47 -119.5t-15.5 -132.5q0 -93 29.5 -149t85.5 -85q5 -2 7 -7.5
t0 -17.5l-3 -18q-3 -16 -15 -16h-238q-17 0 -14 16l4 28q2 16 19 16h145q-45 35 -72 89.5t-27 137.5q0 92 22.5 172.5t66 140.5t107 95t144.5 35q120 0 186 -74.5t66 -210.5q0 -62 -11.5 -120t-34.5 -108t-57.5 -90.5t-80.5 -66.5h149z" />
    <glyph glyph-name="mu" unicode="&#x3bc;" horiz-adv-x="566" 
d="M396 69q-31 -35 -74 -57t-90 -22q-42 0 -71 15t-46 39l-16 -118q-5 -42 -7.5 -78.5t-4.5 -65.5q-2 -15 -19 -15h-39q-17 0 -16 14q2 38 6.5 80.5t10.5 84.5l79 568q2 14 17 14h43q15 0 13 -14l-36 -255q-5 -32 -7.5 -57t-2.5 -48q0 -94 106 -94q38 0 67.5 11t52.5 36
q19 20 29.5 45.5t16.5 54.5t9.5 61t8.5 65l26 181q2 14 17 14h43q15 0 13 -14l-43 -302q-16 -113 -22 -198q-2 -14 -17 -14h-35q-15 0 -15 14q1 7 1 25.5t2 29.5z" />
    <glyph glyph-name="pi" unicode="&#x3c0;" horiz-adv-x="625" 
d="M79 0q-15 0 -13 14l64 454h-82q-14 0 -12 15l4 30q3 15 17 15h544q14 0 11 -15l-4 -30q-2 -15 -16 -15h-121l-44 -311q-2 -15 -3 -27t-1 -23q0 -24 8 -35q15 -20 52 -20q12 0 25.5 3t25.5 8q7 2 11 1.5t6 -7.5l7 -23q2 -8 0.5 -12.5t-9.5 -9.5q-15 -8 -38 -15t-49 -7
q-63 0 -90 28q-13 14 -18 31t-5 43t6 71l43 305h-195l-64 -454q-2 -14 -17 -14h-43z" />
    <glyph glyph-name="apple" unicode="&#xf8ff;" horiz-adv-x="517" 
d="M453 542v-66h-201v-66h201v-202h-269v66h202v69h-202v199h269zM453 676v-66h-334v-543h74v-67h-141v676h401z" />
	g2="T,Tcaron,Tcommaaccent,uni021A,Tbar"
	k="39" />
  </font>
</defs>
</svg>
